<?xml version="1.0" encoding="utf-8"?>
<!-- Generator: Adobe Illustrator 22.1.0, SVG Export Plug-In . SVG Version: 6.00 Build 0)  -->
<svg version="1.1" id="Layer_1" xmlns="http://www.w3.org/2000/svg" xmlns:xlink="http://www.w3.org/1999/xlink" x="0px" y="0px"
	 viewBox="0 0 439.8 227.7" style="enable-background:new 0 0 439.8 227.7;" xml:space="preserve">
<style type="text/css">
	.st0{opacity:0.15;}
	.st1{opacity:0.5;fill:#377DFF;enable-background:new    ;}
	.st2{fill:#5353C6;}
	.st3{opacity:0.3;fill:url(#SVGID_1_);}
	.st4{opacity:0.3;fill:url(#SVGID_2_);}
	.st5{opacity:0.3;fill:url(#SVGID_3_);}
	.st6{fill:#FFFFFF;}
	.st7{opacity:0.3;fill:#A9C0E8;}
	.st8{fill:#F9CCDA;}
	.st9{fill:#FF4500;}
	.st10{fill:url(#SVGID_4_);}
	.st11{fill:url(#SVGID_5_);}
	.st12{fill:#3535A5;}
	.st13{fill:#D3805F;}
	.st14{fill:#B2664F;}
	.st15{fill:url(#SVGID_6_);}
	.st16{fill:#D37897;}
	.st17{fill:#E28DA5;}
	.st18{fill:#D6A659;}
	.st19{fill:#EABD70;}
	.st20{fill:url(#SVGID_7_);}
	.st21{fill:url(#SVGID_8_);}
	.st22{fill:url(#SVGID_9_);}
	.st23{opacity:0.4;fill:url(#SVGID_10_);}
	.st24{fill:#6BD100;}
	.st25{fill:#78DB0F;}
	.st26{opacity:0.7;fill:#FFFFFF;}
	.st27{fill:#FEC55E;}
	.st28{opacity:0.2;fill:#231F20;enable-background:new    ;}
	.st29{fill:#717386;}
	.st30{fill:#4D5068;}
	.st31{fill:#9A9DD0;}
	.st32{fill:#9E9E9E;}
	.st33{fill:#C5C5C5;}
	.st34{fill:#8184C4;}
	.st35{fill:#377DFF;}
	.st36{opacity:0.3;fill:#414042;enable-background:new    ;}
	.st37{fill:#212121;}
	.st38{fill:#FED17E;}
	.st39{fill:#F1F2F2;}
	.st40{fill:#B7D2F9;}
	.st41{fill:#414042;}
	.st42{fill:#191C3C;}
	.st43{fill:#474963;}
	.st44{fill:#ECECEC;}
	.st45{fill:#B1B1B1;}
	.st46{opacity:0.3;}
	.st47{fill:#BF9447;}
	.st48{fill:#FCD991;}
	.st49{opacity:0.3;fill:#231F20;enable-background:new    ;}
	.st50{fill:#00C9A7;}
	.st51{fill:#FDFDFE;}
	.st52{fill:#575A8F;}
	.st53{fill:#FDE1A7;}
	.st54{fill:#55960F;}
	.st55{fill:#62AD12;}
</style>
<g class="st0">
	<ellipse class="st1" cx="426.6" cy="146.7" rx="10.4" ry="10.4"/>
	<path class="st1" d="M287.7,17.2c0,7.5-6.1,13.5-13.5,13.5c-7.5,0-13.5-6.1-13.5-13.5c0-7.5,6.1-13.5,13.5-13.5
		C281.6,3.6,287.7,9.7,287.7,17.2z"/>
	<path class="st1" d="M101.8,34.4c0,3.8-3.1,6.9-6.9,6.9S88,38.2,88,34.4s3.1-6.9,6.9-6.9S101.8,30.6,101.8,34.4z"/>
	<path class="st1" d="M344.1,47.5c0,3.8-3.1,6.9-6.9,6.9s-6.9-3.1-6.9-6.9c0-3.8,3.1-6.9,6.9-6.9S344.1,43.7,344.1,47.5z"/>
	<circle class="st1" cx="179.8" cy="6.9" r="6.9"/>
	<path class="st1" d="M439.8,176.9c0,1.6-1.3,2.8-2.8,2.8c-1.6,0-2.8-1.3-2.8-2.8c0-1.6,1.3-2.8,2.8-2.8
		C438.6,174,439.8,175.3,439.8,176.9z"/>
	<path class="st1" d="M329.9,22.7c0,1.2-1,2.1-2.1,2.1c-1.2,0-2.1-1-2.1-2.1c0-1.2,1-2.1,2.1-2.1S329.9,21.5,329.9,22.7z"/>
	<circle class="st1" cx="122.1" cy="6.9" r="2.8"/>
	<path class="st1" d="M25.9,67c0,2-1.6,3.7-3.7,3.7c-2,0-3.7-1.6-3.7-3.7c0-2,1.6-3.7,3.7-3.7C24.2,63.4,25.9,65,25.9,67z"/>
	<path class="st1" d="M433.9,101.9c0,2-1.6,3.7-3.7,3.7c-2,0-3.7-1.6-3.7-3.7c0-2,1.6-3.7,3.7-3.7
		C432.3,98.2,433.9,99.9,433.9,101.9z"/>
	<ellipse class="st1" cx="58.8" cy="55.5" rx="15.6" ry="15.6"/>
	<path class="st1" d="M12,183.3c0,2-1.6,3.7-3.7,3.7c-2,0-3.7-1.6-3.7-3.7s1.6-3.7,3.7-3.7C10.3,179.6,12,181.3,12,183.3z"/>
	<circle class="st1" cx="406.7" cy="47.5" r="15.1"/>
	<ellipse class="st1" cx="12" cy="115.2" rx="12" ry="12"/>
	<path class="st1" d="M424.6,227.4c0-28.2-6-55.1-16.8-79.3c3.9-8.1,6.1-17.1,6.1-26.7c0-34-27.5-61.5-61.5-61.5
		c-6.4,0-12.5,1-18.3,2.8C303.9,43.5,268,32.3,229.5,32.3c-4.8,0-9.6,0.2-14.3,0.5c-8.4-6.3-18.9-10.1-30.2-10.1
		c-21.4,0-39.7,13.4-46.9,32.3c-14.8,7.9-28.5,17.6-40.7,28.8c-4-0.9-8.1-1.4-12.4-1.4c-30.8,0-55.7,24.9-55.7,55.7
		c0,13.4,4.7,25.7,12.6,35.3c-4.9,17.1-7.6,35.2-7.6,53.9L424.6,227.4L424.6,227.4z"/>
	<path class="st1" d="M370.1,227c0-78.3-63.4-141.7-141.7-141.7S86.7,148.7,86.7,227H370.1z"/>
</g>
<g>
	<polygon class="st2" points="364.5,171.4 115.9,193 115.9,192.5 364.5,170.8 	"/>
</g>
<linearGradient id="SVGID_1_" gradientUnits="userSpaceOnUse" x1="203.1274" y1="214.2798" x2="289.2564" y2="214.2798">
	<stop  offset="0" style="stop-color:#5353C6"/>
	<stop  offset="1" style="stop-color:#5353C6;stop-opacity:2.927700e-02"/>
</linearGradient>
<ellipse class="st3" cx="246.2" cy="214.3" rx="43.1" ry="6.6"/>
<linearGradient id="SVGID_2_" gradientUnits="userSpaceOnUse" x1="138.8177" y1="211.6444" x2="173.7987" y2="211.6444">
	<stop  offset="0" style="stop-color:#5353C6"/>
	<stop  offset="1" style="stop-color:#5353C6;stop-opacity:2.927700e-02"/>
</linearGradient>
<ellipse class="st4" cx="156.3" cy="211.6" rx="17.5" ry="2.3"/>
<linearGradient id="SVGID_3_" gradientUnits="userSpaceOnUse" x1="278.921" y1="211.4088" x2="365.05" y2="211.4088">
	<stop  offset="0" style="stop-color:#5353C6"/>
	<stop  offset="1" style="stop-color:#5353C6;stop-opacity:2.927700e-02"/>
</linearGradient>
<ellipse class="st5" cx="322" cy="211.4" rx="43.1" ry="6.6"/>
<polygon class="st6" points="253.3,166.4 148.7,174.9 148.7,43.5 253.3,52 "/>
<path class="st7" d="M181.3,76.4c0.5,4,3.8,7.3,4,11.3c0.2,4.8-4,8.5-7.7,11.6c-3.7,3-7.3,6.3-9.2,10.7c-2,4.3-1.8,9.9,1.6,13.3
	c4,4,10.8,3.5,15.3,6.9c3.4,2.6,4.9,7,7.2,10.6c4.9,7.8,14.4,12.6,23.6,11.9c2.5-0.2,5.3-0.9,6.7-3c1.7-2.6,0.8-6.1-0.8-8.7
	c-1.5-2.7-3.7-5.1-4.3-8.1c-1.4-6.4,4.1-12.1,9.4-15.9c5.4-3.8,11.6-7.7,12.9-14.1c1.3-6.8-3.8-13.3-9.3-17.5
	c-3.3-2.5-7.1-4.8-8.9-8.5c-1.5-3.1-1.4-6.7-2.6-9.8c-1.6-4.4-5.8-7.8-10.4-8.5c-8.6-1.3-10.1,5.7-16.2,8.7
	C187.9,69.4,180.3,68.1,181.3,76.4z"/>
<g>
	<path class="st8" d="M269.4,208c-0.1,1.2-0.2,2.5-1,3.5c-0.9,1.1-2.5,1.4-3.9,1.6c-2.1,0.3-4.1,0.6-6.2,0.9
		c-0.1,0.3,0.3,0.6,0.6,0.7c1.5,0.5,3.2,0.3,4.8,0.1c1.9-0.2,3.7-0.3,5.6-0.3c0.8,0,1.8-0.1,2.2-0.8c0.3-0.5,0.2-1.2,0.1-1.8
		c-0.2-1.9,0.3-3.8,0-5.7c0-0.2-0.1-0.5-0.3-0.5c-0.1,0-0.2,0-0.3,0C269.5,206,269.5,206.6,269.4,208z"/>
	<path class="st2" d="M270,212.9c-1.5,0.9-3.1,1.2-4.9,1c-0.1,0-0.7-0.1-0.8-0.2c-0.1-0.3,0-0.7-0.3-0.7c-1.3,0-2.6,0.2-3.9,0.3
		c-0.4,0.1-2,0.1-2.1,0.4c-0.1,0.3-0.1,0.6,0.2,0.9c0.2,0.2,0.5,0.4,0.8,0.5c1.5,0.6,3.1,0.5,4.7,0.4c1.9-0.1,3.9-0.2,5.8-0.3
		c0.7,0,1.4-0.1,1.9-0.4c0.8-0.5,1.1-1.6,1.1-2.6C272.4,210.6,270.5,212.6,270,212.9z"/>
	<path class="st8" d="M260.7,123.6c0,0,7-0.4,7-0.6c-0.2-2-2-5.1-1.1-6.9c1-1.8,1.7-2.8,2.7-4.6c0.1-0.3,0.3-0.6,0.1-0.8
		c-0.2-0.2-0.5-0.1-0.7,0c-1.3,0.4-2.5,0.8-3.8,1.3c-2.1,0.8-4.1,0.8-4.2,3C260.7,117.4,260.7,123.6,260.7,123.6z"/>
	<path class="st8" d="M239.1,211.3c-0.2,1.2-0.5,2.5-1.4,3.3c-1,1-2.6,1.1-4.1,1.1c-2.1,0-4.2,0.1-6.3,0.1c-0.1,0.3,0.2,0.6,0.5,0.7
		c1.4,0.7,3.1,0.7,4.7,0.8c1.9,0.1,3.7,0.2,5.6,0.4c0.8,0.1,1.8,0.2,2.3-0.5c0.4-0.5,0.3-1.2,0.3-1.8c0-1.9,0.8-3.7,0.8-5.6
		c0-0.2,0-0.5-0.2-0.6c-0.1-0.1-0.2-0.1-0.3,0C239.5,209.2,239.4,209.9,239.1,211.3z"/>
	<path class="st9" d="M273.6,153.8c0,0-1.4,10.3-1.9,18.2c-0.5,7.9,2.1,24.9,1.9,29.4c-0.2,4.6-1.2,7.2-1.2,7.2h-4
		c0,0-4.9-21.2-5.1-25.7c-0.2-4.6-3.2-27.8-3.2-27.8L273.6,153.8z"/>
	<linearGradient id="SVGID_4_" gradientUnits="userSpaceOnUse" x1="267.2217" y1="185.0947" x2="267.2217" y2="162.205">
		<stop  offset="0" style="stop-color:#D37897;stop-opacity:0"/>
		<stop  offset="0.8988" style="stop-color:#BC547C"/>
	</linearGradient>
	<path class="st10" d="M273.6,153.8l-7.7,0.7c-2.4,1.5-4.1,3.9-5,6.6c0.8,6.2,1.9,15.5,2.3,20c0.4,0,0.7,0.1,1.1,0.1
		c2-0.1,3.9-0.9,5.7-2c0.6-0.4,1.2-0.8,1.8-1.3c-0.1-2.2-0.1-4.2,0-5.8C272.2,164.1,273.6,153.8,273.6,153.8z"/>
	<path class="st2" d="M219.9,115.9c0,0.5-0.6,0.6-0.7,0.1c-1.7-6.1-5.6-21.5-5.5-23.6c0-1.3,1-2.3,1-2.3h1.2c0,0,1,1,1.1,2.3
		C217,93.4,219.3,109.8,219.9,115.9z"/>
	<path class="st8" d="M261.5,100.5c-0.8,1.5-1.8,3.2-3.4,3.4c-0.3,0-0.5,0-0.8,0.2c-0.4,0.3-0.5,0.9-0.4,1.3
		c0.1,1.9,0.1,3.8,0.2,5.7c0.1,1.7,0.3,3.7,1.8,4.6c1.1,0.6,2.4,0.5,3.6,0.2c1-0.2,2-0.4,2.9-0.8c2.8-1.2,4.7-4,5.6-7
		c0.7-2.3,0.8-4.9-0.2-7.1C268.7,96.8,263.7,96.3,261.5,100.5z"/>
	<path class="st9" d="M271.7,153.3c-0.8,0.1-1.6,0.3-2.3,0.4c-0.1-0.1-0.3-0.1-0.5-0.2c-5.4-1-11-0.7-16.2,1.2
		c-2.7,8.1-9.8,37.4-11.3,41.3c-1.8,4.7-2.9,9.5-4,14.4c1.7,0.4,3.3,0.7,5,0.8c6.2-14.7,8.9-14,9.8-23.8c0.2-2,2.8-5.3,4-7
		c5.5-7.7,14.8-18.5,16.2-20.8C273.7,157.6,276.3,152.6,271.7,153.3z"/>
	<linearGradient id="SVGID_5_" gradientUnits="userSpaceOnUse" x1="262.8875" y1="163.5373" x2="262.8875" y2="151.5343">
		<stop  offset="0" style="stop-color:#D37897;stop-opacity:0"/>
		<stop  offset="0.8988" style="stop-color:#BC547C"/>
	</linearGradient>
	<path class="st11" d="M271.7,153.3c-0.8,0.1-1.6,0.3-2.3,0.4c-0.1-0.1-0.3-0.1-0.5-0.2c-5.4-1-11-0.7-16.2,1.2
		c-0.3,1-0.7,2.3-1.2,3.9c1.8,1.1,4.7,2.1,9.4,2.4c4.9,0.3,9.4-1.5,12.7-3.6C274.6,155.3,275,152.8,271.7,153.3z"/>
	<path class="st8" d="M220.2,102.6c-0.1-0.4-0.2-0.7-0.5-0.9c-0.4-0.3-0.9-0.2-1.3,0c-0.4,0.2-0.8,0.5-1.3,0.6
		c-0.8,0.2-1.8-0.1-2.5,0.4c-0.4,0.3-0.6,0.8-0.5,1.3c0.1,0.2,0.2,0.5,0.3,0.7c0.4,0.8,0.3,1.8,0.8,2.5c0.4,0.5,1,0.8,1.6,1
		c1.5,0.6,3,1.2,4.4,1.8c0.1,0,0.2,0.1,0.3,0c0.1,0,0.1-0.1,0.1-0.2c0.6-1.5,0.4-2.3-0.4-3.5C220.8,105.1,220.6,103.8,220.2,102.6z"
		/>
	<g>
		<path class="st6" d="M260.3,103.2c-0.6,2-1.6,3.5-2.2,3.3c-0.6-0.2-0.6-2,0-4c0.6-2,1.6-3.5,2.2-3.3
			C261,99.4,261,101.2,260.3,103.2z"/>
		<path class="st12" d="M258.3,106.7c0,0-0.1,0-0.1,0c-0.4-0.1-0.5-0.6-0.5-1.4c0-0.8,0.2-1.7,0.5-2.7c0.3-1,0.7-1.9,1.1-2.5
			c0.5-0.7,0.9-1,1.3-0.9c0.4,0.1,0.5,0.6,0.5,1.4c0,0.8-0.2,1.7-0.5,2.7c-0.3,1-0.7,1.9-1.1,2.5C259,106.3,258.6,106.7,258.3,106.7
			z M260.3,99.3c-0.2,0-0.5,0.2-0.9,0.8c-0.4,0.6-0.8,1.5-1.1,2.4c-0.3,1-0.5,1.9-0.5,2.6c0,0.8,0.2,1.1,0.3,1.2
			c0.2,0.1,0.5-0.1,0.9-0.8c0.4-0.6,0.8-1.5,1.1-2.4c0.3-1,0.5-1.9,0.5-2.6C260.7,99.7,260.5,99.4,260.3,99.3
			C260.3,99.3,260.3,99.3,260.3,99.3z"/>
	</g>
	<path class="st2" d="M239.1,216.2c-1.7,0.7-3.2,0.8-5,0.3c-0.1,0-0.7-0.2-0.8-0.3c0-0.3,0.1-0.7-0.2-0.7c-1.3-0.1-2.6-0.2-3.9-0.2
		c-0.4,0-2-0.2-2.2,0.1c-0.2,0.3-0.1,0.6,0,0.9c0.2,0.3,0.4,0.5,0.7,0.6c1.4,0.7,3,0.9,4.6,1c1.9,0.2,3.9,0.3,5.8,0.5
		c0.7,0.1,1.4,0.1,1.9-0.2c0.9-0.4,1.3-1.4,1.4-2.4C241.8,214.2,239.6,215.9,239.1,216.2z"/>
	<path class="st2" d="M275.8,124.1c-2-1.8-4.4-3.8-7.1-3.7c-0.9,0-14.9-3.1-16.5-3.3c-10.8-0.8-19.7-9.5-30.4-10.9
		c-1.1,0.3-1.4,1.8-1,2.8c0.4,1,1.4,1.7,2.3,2.4c9.7,6.6,19.1,13,29.6,18.1c-2.4,6.3,3.4,9.6,3,11.1c-0.4,1.7-4.4,12.7-4,14.3
		c3.9,1.2,7.1,1.4,11.2,1.7s8.5-0.4,12-2.6c-0.4-2-2.2-3.9-0.8-4.7c4-2.5,7.9-4.5,10.5-8.4c0.5-0.8,1-1.6,1.1-2.5
		C286.1,136.2,278.7,126.7,275.8,124.1z M273.4,145.1c0.5-2.3,3.1-9.1,3.1-9.1c1.2,0.6,2.5,2.9,2.5,2.9S274.6,144.3,273.4,145.1z"/>
	<path class="st6" d="M216,90.1c-0.8,0.4-1.8,0.2-2.4-0.4c-0.3-0.4-0.6-0.9-0.4-1.5c0.5-1.4,1.5-3,1.1-3.9c-0.5-0.9-0.5-0.8-0.5-0.9
		c0-0.1,2.5,1.4,2.9,2.7C217.5,88.6,216.8,89.7,216,90.1z"/>
	<path class="st8" d="M219.3,98.6c-0.1-0.3-0.3-0.6-0.5-0.7c-0.3-0.1-0.7,0.1-0.8,0.5c-0.1,0.3-0.1,0.7-0.1,1.1c0.1,1,0.2,2,0.3,2.9
		c0.1,0.6,0.2,1.2,0.7,1.4c0.4,0.2,0.9,0,1.1-0.3c0.5-0.6,0.2-1.4,0.1-2C219.8,100.5,219.6,99.6,219.3,98.6z"/>
	<path class="st2" d="M217,87.2c-0.1-0.4-0.1-0.7-0.3-1.2c-0.4-1.2-2.9-2.7-2.9-2.7c0,0,0,0,0,0.1c0,0,0,0,0,0
		c0,0.1,0.2,0.3,0.4,0.8c0.4,0.9-0.4,2.4-1,3.7c0.2,0.1,0.3,0.1,0.5,0c0.4-0.2,0.6-0.7,1-0.7c0.6,0.1,0.3,1.1,0.9,1.3
		c0.3,0.1,0.7-0.2,0.8-0.5C216.6,87.9,216.7,87.5,217,87.2C217,87.3,217,87.3,217,87.2z"/>
	<g>
		<line class="st6" x1="259.9" y1="103.6" x2="262.6" y2="105.2"/>
		
			<rect x="261.1" y="102.8" transform="matrix(0.4995 -0.8663 0.8663 0.4995 40.303 278.5585)" class="st12" width="0.3" height="3.2"/>
	</g>
	<path class="st13" d="M275.9,100.6c-1.5-1.5-3.3-2.4-5.2-3.2c-1.5-0.6-3-1.1-4.6-1.1c-1.6,0-3.3,0.7-4.1,2.1
		c-0.6,1-0.7,2.3-0.5,3.5c0.1,0.8,0.5,2.5,1.1,3c0.5,0.5,1.3,0.2,1.7,0.9c0.3,0.5,0.3,1.1,0.1,1.7c-0.2,0.6-0.4,1.1-0.9,1.5
		c-0.1,0.1-0.3,0.2-0.4,0.2c-0.8,0.2-1.3,1-1.2,1.8c0.2,1.3,0.6,2.5,1.4,3.5c0.2,0.2,0.4,0.5,0.6,0.7c-0.1,0.4-0.1,0.7-0.2,1.1
		c-0.1,1.1,0.3,2.4,1.4,2.6c-0.4-0.4-0.7-0.9-0.8-1.4c0-0.6,0.5-1.1,1-1c0.4,0.1,0.6,0.6,0.7,1c0.2,1-0.1,2.1-0.8,2.8
		c0.7-0.4,1.4-0.8,1.9-1.5c0.5-0.7,0.7-1.6,1.2-2.3c0.1-0.1,0.2-0.3,0.4-0.4c0.1,0.1,0.1,0.2,0.2,0.3c0.4,0.6,0.5,1,0.1,2
		c-0.1,0.2-0.4,0.7-0.4,0.7c0.1-0.1,1.8-1.4,0.6-3.4c0.3-0.1,0.6-0.1,0.9-0.2c2.2-0.7,3.7-2.5,5.2-4.3c1.3-1.5,2.6-3.2,2.9-5.2
		C278.3,104.1,277.4,102.1,275.9,100.6z"/>
	<path class="st12" d="M275.8,124.1c-1.2-1.1-2.5-2.2-3.9-2.9c0.6,1.1,1.5,2.1,1.8,3.3c0.2,1.1,0.3,2.2,0.3,3.2
		c0,2.3,0.1,4.6,0.1,6.9c0,1.6,0.1,3.2-0.7,4.6c-0.8,1.6-2.3,2.6-3.9,3.4c-0.3,0.2-0.7,0.4-0.9,0.7c-0.4,0.7,0.1,1.6,0.7,2.1
		c0.6,0.5,1.4,0.8,1.9,1.4c0,3,0,5.9,0.1,8.9c1.2-0.4,2.4-1,3.6-1.6c-0.4-2-2.2-3.9-0.8-4.7c4-2.5,7.9-4.5,10.5-8.4
		c0.5-0.8,1-1.6,1.1-2.5C286.1,136.2,278.7,126.7,275.8,124.1z M273.4,145.1c0.5-2.3,3.1-9.1,3.1-9.1c1.2,0.6,2.5,2.9,2.5,2.9
		S274.6,144.3,273.4,145.1z"/>
	<path class="st2" d="M277.3,130.9c0.2,0.2-0.8,4.3-0.9,4.9c0,0.2,0,0.4,0,0.6c0.1-0.3,0.2-0.4,0.2-0.4c1.2,0.6,2.5,2.9,2.5,2.9
		s-4.4,5.4-5.6,6.2c0,0,0,0,0-0.1c-0.1,0.2-0.3,0.5-0.4,0.7c-0.2,0.4-0.3,1.2,0.2,1.2c0.2,0,0.3-0.1,0.5-0.2
		c1.1-0.9,2.2-1.7,3.2-2.6c0.6-0.5,1.2-0.9,1.7-1.5c0.7-0.7,1.2-1.6,1.7-2.5c0.4-0.7,0.8-1.4,1.2-2.1c0.2-0.3,0.4-0.7,0.4-1.1
		c0-0.3-0.2-0.5-0.3-0.8C280.4,134.3,278.9,132.5,277.3,130.9z"/>
	<path class="st12" d="M256.1,128.2c1.3-0.8,2.6-1.6,3.3-2.9c0.3-0.7,0.4-1.5,1-1.9c1.3,1.6,2.3,3.4,3,5.3c0.3,0.7,0.5,1.5,0.3,2.3
		c-0.2,0.8-0.8,1.5-1.6,1.5c-0.4,0-0.7-0.1-1.1-0.3c-1.9-0.8-5.3-1.8-6.6-3.3C255,128.7,255.6,128.5,256.1,128.2z"/>
	<path class="st12" d="M258.9,141c-1-0.5-2.3-1.3-3.5-1.3c0.3,0.4,0.4,0.8,0.3,1c-0.2,0.9-1.4,4.3-2.5,7.6c0.8,0,1.6-0.3,2.4-0.7
		c1.7-0.7,3.5-1.6,4.5-3.1c0.4-0.7,0.7-1.5,0.4-2.2C260.3,141.7,259.6,141.3,258.9,141z"/>
	<path class="st12" d="M258.2,126.2c-0.8-0.3-1.6-0.3-2.4-0.3c-3.9,0-7.9-1.1-11.3-3c-2.1-1.3-4.1-2.9-6.4-3.8
		c-1.9-0.8-3.9-1.1-5.7-2c-1.5-0.8-2.7-2-4.1-3c-0.9-0.7-4.9-3.9-6.9-3.9c0.5,0.5,1.1,1,1.7,1.4c9.7,6.6,19.1,13,29.6,18.1
		c-0.2,0.4-0.3,0.8-0.4,1.1c0.1,0,0.3,0,0.4,0c1.1-0.2,2.1-0.8,3.3-1.1c1.2-0.3,2.9-0.3,3.3-1.5C259.6,127.3,259,126.5,258.2,126.2z
		"/>
	<path class="st14" d="M274.7,99.6c-2.3,0.1-4.2,1.3-4.1,4.5c0,0.8,0.3,1.6,0.4,2.4c0.3,3.3-2.3,6.1-3.8,9c-0.5,1-0.9,2.2-0.2,3.1
		c0,0,0,0,0,0c0.4-0.7,0.6-1.4,1.1-2.1c0.1-0.1,0.2-0.3,0.4-0.4c0.1,0.1,0.1,0.2,0.2,0.3c0.4,0.6,0.5,1,0.1,2
		c-0.1,0.2-0.4,0.7-0.4,0.7c0.1-0.1,1.8-1.4,0.6-3.4c0.3-0.1,0.6-0.1,0.9-0.2c2.2-0.7,3.7-2.5,5.2-4.3c1.3-1.5,2.6-3.2,2.9-5.2
		c0.3-2-0.7-4.1-2.2-5.6C275.5,100.3,275.2,99.9,274.7,99.6z"/>
	
		<ellipse transform="matrix(0.2099 -0.9777 0.9777 0.2099 117.7155 352.4888)" class="st13" cx="277" cy="103.4" rx="5.7" ry="5.7"/>
	<linearGradient id="SVGID_6_" gradientUnits="userSpaceOnUse" x1="240.3318" y1="196.2819" x2="255.5217" y2="196.2819">
		<stop  offset="0" style="stop-color:#D37897;stop-opacity:0"/>
		<stop  offset="0.8988" style="stop-color:#BC547C"/>
	</linearGradient>
	<path class="st15" d="M242.4,211.2c6.2-14.7,8.9-14,9.8-23.8c0.2-1.7,2-4.3,3.3-6c-0.2,0.1-0.4,0.2-0.6,0.3c-3.7,2.1-6.2,6-7.7,9.9
		c-2,5-2.9,10.5-5.4,15.4c-0.6,1.3-1.3,2.7-1.5,4C241,211.1,241.7,211.1,242.4,211.2z"/>
</g>
<g>
	<path class="st16" d="M313.9,115.2c0,0-3.5,0.6-12.7,12.1c-4,8.4-4.1,12.2-4.1,12.2s0.2,1.8,2.8,0.6c2.6-1.2,11.3-13.3,11.3-13.3
		L313.9,115.2z"/>
	<path class="st17" d="M309.8,117.2c-1.9,2.3-3.4,20.6-1.8,21.5c3.5,1.8,7.6,1.7,11.6,1.6c1.1,0,2.2-0.1,3.2-0.5
		c1.2-0.5,2.1-1.5,2.8-2.6c1.2-2.1,1.4-4.6,1-6.9c-0.4-2.3-1.6-4.5-3-6.4c-1.4-1.8-3.1-3.4-4-5.5c-0.9-2.1-0.9-4.8-3.6-4.6
		C313.6,114,311.4,115.4,309.8,117.2z"/>
	<path class="st2" d="M299.8,207.9l-1.9,3.8l-10.8-5.8c0,0,0-1.4,2.2-0.8c2.2,0.6,7.5,3.6,7.5,3.6l1.3-2.3L299.8,207.9z"/>
	<path class="st2" d="M329.5,209l0.1,4.3l-4.2,3.8c-1.3,1.2-3,1.7-4.7,1.4c-0.6-0.1-1.1-0.4-0.9-0.8c0.6-1.2,6.7-4.7,6.7-4.7
		l0.3-5.5L329.5,209z"/>
	<path class="st18" d="M309.1,143.7c-3.4,11.9-6.1,23.9-8.1,36.1c-1.5,9.1-2.1,18.5-5.4,27.1c1.5,0.6,2.6,0.8,4.3,1.1
		c1.9-3.2,3.5-5.7,5.1-9c1-2.1,1.9-4.2,2.3-6.5c0.6-3.6,0.1-7.4,1.3-10.8c4.1-11.3,9.1-21.7,12.4-33.3c0.1-0.4,0.2-0.9,0.1-1.3
		c-0.2-0.6-0.9-0.8-1.6-0.9C315.9,145.5,312.7,144.1,309.1,143.7z"/>
	<path class="st19" d="M327.5,139.6c0.9,23.4,1.7,46.8,2.6,70.2c-1.7,0-3.8,0-5.5,0c-1.5-5.1-2.4-10.2-2.7-15.5
		c-0.9-16.1-3.7-32.2-8.3-47.7c2-2.1,3.6-3.6,6-5.3C321.9,139.8,324.7,139.1,327.5,139.6z"/>
	<path class="st17" d="M295.3,131.3c-0.7,1.9-1.7,3.7-1.4,5.7c0.3,2,2.1,3.9,4.2,3.6c1.7-0.3,2.4-4.2,2.4-4.2l4-17.1l-3.3-0.5
		C301.2,118.6,296.5,128.3,295.3,131.3z"/>
	<path class="st17" d="M308.1,143.4c0,0-0.2,2,0.2,3c0.7,1.9,5,2.9,5,2.9s14.9-0.5,15.1-1.8c0.5-2.7-0.3-5.3-0.3-8
		c0-0.3,0-0.6-0.2-0.9c-0.2-0.2-0.4-0.3-0.6-0.4c-3.8-1.3-8-1.7-12-1.1c-1.6,0.2-4.4,0.5-5.7,1.5
		C308.1,139.7,308.1,143.4,308.1,143.4z"/>
	<path class="st8" d="M296.8,134.9c-0.1-0.1-0.3-0.1-0.4-0.1c-0.1,0.1-0.1,0.2-0.2,0.3c-0.6,1-2.5,0.6-3,1.6c-0.2,0.4-0.1,1,0.1,1.4
		c0.3,0.4,0.6,0.7,1,1c1,0.7,3.5,0.7,3.5,0.7l3.2,0.5l0-1.3l-1.6-1c0,0,0.3-0.8,0.2-1C298.6,136.1,297.5,135.2,296.8,134.9z"/>
	<linearGradient id="SVGID_7_" gradientUnits="userSpaceOnUse" x1="318.3605" y1="150.318" x2="318.3605" y2="135.6026">
		<stop  offset="0" style="stop-color:#D37897;stop-opacity:0"/>
		<stop  offset="0.8988" style="stop-color:#BC547C"/>
	</linearGradient>
	<path class="st20" d="M308.3,141.5c-0.1,0.4-0.1,0.9-0.1,1.2c1.2,1.2,3.8,3,7.5,3.2c3.1,0.2,8,1.3,11.6,2.2
		c0.7-0.2,1.1-0.4,1.2-0.6c0.5-2.7-0.3-5.3-0.3-8c0-0.2,0-0.3,0-0.5c-2.6-0.2-5.1-0.4-5.1-0.4L308.3,141.5z"/>
	<path class="st8" d="M297,134.8c-0.1-0.1-0.3-0.2-0.5-0.3c-0.2-0.1-0.4-0.1-0.7-0.1c-0.3,0-0.6,0-0.9,0c-0.1,0-0.3,0-0.4,0.2
		c-0.1,0.1,0.1,0.3,0.2,0.4c0.4,0.3,0.9,0.4,1.3,0.7c0.4,0.3,0.6,0.7,1.1,1c0.1,0.1,0.3,0.1,0.4,0.1c0.1,0,0.3-0.1,0.4-0.1
		c0.5-0.3,0.5-0.5,0.1-0.9C297.7,135.5,297.3,135.1,297,134.8z"/>
	<path class="st17" d="M313.2,115.1l8.4-1.4l4.7,0.9c3.6,0.7,6.3,3.8,6.4,7.5c0.1,6.1-0.1,14.9-2.1,19.4c-0.9,2-4.1,1.7-6.3,1.7
		c-6.4,0-19.1-0.2-25.1-2.7c0.1-0.9,0-1.7,0.4-2.6c5.7-0.9,17.7-2.8,23.3-1.8c-4.6-5.1-7.8-11.5-9.1-18.3
		C313.7,116.9,313.2,115.1,313.2,115.1z"/>
	<linearGradient id="SVGID_8_" gradientUnits="userSpaceOnUse" x1="318.2794" y1="117.9275" x2="332.6123" y2="117.9275">
		<stop  offset="0" style="stop-color:#D37897;stop-opacity:0"/>
		<stop  offset="0.8988" style="stop-color:#BC547C"/>
	</linearGradient>
	<path class="st21" d="M332.6,122.2C332.6,122.2,332.6,122.1,332.6,122.2c-0.1-3.8-2.7-6.9-6.4-7.6l-4.7-0.9l-1.3,0.2l-2,6.2
		c0.3,0,8.4-1.3,13.8,1.8C332.3,122,332.4,122.1,332.6,122.2z"/>
	<path class="st6" d="M315.4,115.3c-0.1,0.2-0.2,0.5-0.2,0.8c-0.1,1.4,0,2.8,0.4,4.2c0.1,0.2,0.1,0.4,0.2,0.5
		c0.4,0.5,1.1,0.4,1.7,0.2c0.9-0.3,1.6-0.8,2.4-1.3c1.4-0.9,2.9-2,3.7-3.5c0.1-0.2,0.2-0.5,0.2-0.8c-0.1-0.6-0.7-0.9-1.3-1.1
		C321,114,316.3,113.6,315.4,115.3z"/>
	<path class="st8" d="M321.8,115.7c-1.9,1.5-4.7,2.9-4.7,2.9l-1.5-7.2c0,0-2.8,0.4-3.5,0.3c-2.9-0.4-5.8-2.4-6.4-5.2
		c-0.4-1.8,0.2-3.6,0.7-5.4c1.1-3.6,2.2-7.2,4.4-10.2c0.7-1,1.9-1.4,3.2-1.4c1.7,0,3.4,0.1,5,0.6c1.6,0.6,3.1,1.6,3.9,3
		c1,1.7,1.1,3.8,0.8,5.7c-0.3,1.9-0.9,3.8-1.2,5.8c-0.1,0.6-1,2.1-1.2,3.5C321,110.9,321.5,114.4,321.8,115.7z"/>
	<path class="st2" d="M319.4,104.2c0.3,1.5,1.6,3.5,2,3.7c0-0.6,0.9-2.8,1-3.4c0.3-1.9,0.9-3.8,1.2-5.8c0.3-1.9,0.2-4-0.8-5.7
		c-0.9-1.4-2.3-2.5-3.9-3c-1.6-0.6-3.3-0.7-5-0.6c-0.5,0-1,0.1-1.5,0.2c1.5,1.8,6.4,3.2,7,2.3C316.9,96.1,318.3,99.5,319.4,104.2z"
		/>
	<path class="st8" d="M320.5,98.7c1.1-0.1,2.3,0.1,2.9,0.9c0.7,1,0.4,2.4-0.2,3.4c-0.5,0.8-1.1,1.6-2,2c-1.2,0.6-2.6,0.5-3.7-0.3
		C314,102.3,317.6,99.1,320.5,98.7z"/>
	<path class="st2" d="M302.9,109.9c0.3,2.4,1.6,4.4,4,4.8c1.8,0.4,4.1,0.6,5.8-0.1c6.2-2.3,3.6-8.1,4.1-9.6c0.7-1.9,1.5-3.9,1.8-5.9
		c-1.2-0.3-2.2,0.8-2.8,1.8c-0.7,1-2.4,3.3-3.6,3c-0.9-1.8-2.4-3.5-4.3-3.8c-0.7-0.1-1.8-0.4-2.2,0.3
		C303.7,104.5,302.7,107.8,302.9,109.9z"/>
	<path class="st8" d="M304.2,119.1c0.1,0.1,0.1,0.1,0.2,0.2c0.8-1.4,1.5-2.9,2.2-4.5c0.2-0.4,0.3-0.8,0.3-1.2
		c-0.1-0.5-0.4-1-0.8-1.4c-0.4-0.5-0.8-1.1-1.3-1.6c0.4-0.7,0.8-1.4,1.1-2.1c0.2-0.3,0.3-0.6,0.4-0.9c0-0.3,0-0.7-0.3-0.9
		c-0.3-0.2-0.6-0.2-0.8,0.1c-0.9,1.2-4,10.2-3.9,11.3c0.1,0.7,0.2,1.5,0.8,1.9C302.8,120.6,303.7,119.8,304.2,119.1z"/>
	<path class="st6" d="M308.9,97c-0.6,1.9-1.9,3.2-2.8,2.9c-0.9-0.3-1.1-2.1-0.5-4c0.6-1.9,1.9-3.2,2.8-2.9
		C309.3,93.2,309.5,95,308.9,97z"/>
	<ellipse transform="matrix(0.3106 -0.9505 0.9505 0.3106 122.7872 364.1793)" class="st6" cx="312.5" cy="97.4" rx="4" ry="3.3"/>
	<linearGradient id="SVGID_9_" gradientUnits="userSpaceOnUse" x1="320.7179" y1="139.6997" x2="320.7179" y2="118.997">
		<stop  offset="0" style="stop-color:#D37897;stop-opacity:0"/>
		<stop  offset="0.8988" style="stop-color:#BC547C"/>
	</linearGradient>
	<path class="st22" d="M325.8,123.2l-2.9,9c0,0-4.6,4.1-7.2,4.3c0.2,0.2,8.7-0.3,8.7-0.3L325.8,123.2z"/>
	<linearGradient id="SVGID_10_" gradientUnits="userSpaceOnUse" x1="318.7839" y1="102.2549" x2="321.8893" y2="102.2549">
		<stop  offset="0" style="stop-color:#D37897;stop-opacity:0"/>
		<stop  offset="0.8988" style="stop-color:#BC547C"/>
	</linearGradient>
	<path class="st23" d="M318.8,102c0,0,1.4-1.8,2.7-1.1c1.3,0.8-0.8,2.9-0.8,2.9l-1.9,0.1V102z"/>
	<path class="st2" d="M310.4,100.8c0.2,0.2,0.5,0.3,0.8,0.4c1.7,0.6,3.7-0.7,4.4-2.8c0.5-1.5,0.2-3.1-0.7-4.1L310.4,100.8z"/>
	<path class="st6" d="M308.9,97c0.5-1.4,0.5-2.8,0.1-3.5l-2.8,6.4C307,100.2,308.3,98.9,308.9,97z"/>
</g>
<g>
	<path class="st6" d="M328.9,61.6c0-5.7-4.8-10.3-10.5-10c-5.1,0.3-9.2,4.5-9.4,9.6c-0.1,2.8,0.9,5.3,2.7,7.2
		c1.4,1.5,2.7,3.3,3.5,5.2l0.5,1.3v1.9h2.6h1.3h2.6v-1.9l0.4-0.9c0.9-2.1,2.2-4.1,3.8-5.8C327.9,66.5,328.9,64.2,328.9,61.6z"/>
	<rect x="315.4" y="75" class="st2" width="7" height="4.9"/>
	<g>
		<polygon class="st2" points="320.1,77.2 318.1,77.2 314.5,60.3 315.3,60.2 318.7,76.4 319.4,76.4 322.5,59.9 323.3,60 		"/>
	</g>
	<circle class="st2" cx="318.9" cy="80" r="1.6"/>
	<g>
		<g>
			<g>
				<rect x="318.7" y="39.8" class="st6" width="0.6" height="8.2"/>
			</g>
		</g>
		<g>
			<g>
				<rect x="330.8" y="59.5" class="st6" width="8.2" height="0.6"/>
			</g>
			<g>
				<rect x="298.9" y="59.5" class="st6" width="8.2" height="0.6"/>
			</g>
		</g>
		<g>
			<g>
				
					<rect x="306.7" y="45.2" transform="matrix(0.6584 -0.7527 0.7527 0.6584 67.7472 247.8865)" class="st6" width="0.6" height="8.2"/>
			</g>
		</g>
		<g>
			<g>
				
					<rect x="325.4" y="47.5" transform="matrix(0.6586 -0.7525 0.7525 0.6586 76.4968 264.2305)" class="st6" width="8.2" height="0.6"/>
			</g>
		</g>
	</g>
</g>
<polygon class="st9" points="265.1,62.7 247.3,61.8 247.3,33.7 265.1,35.1 "/>
<polygon class="st9" points="154.8,109.2 142.3,108.6 142.3,88.8 154.8,89.8 "/>
<polygon class="st2" points="158,120.1 148,119.6 148,103.7 158,104.6 "/>
<polygon class="st19" points="241.4,61.4 225.7,62 225.7,42.3 241.4,42.9 "/>
<polygon class="st19" points="193.7,180.2 178.1,180.8 178.1,161.1 193.7,161.7 "/>
<g>
	<path class="st24" d="M154.4,171c-0.4-1.9-0.8-3.8-0.5-5.7c0.3-2.5,1.6-4.7,3-6.7c0.9-1.2,2.3-2.5,3.7-1.9c0.5,0.3,0.9,0.8,1.2,1.3
		c2.1,3.7,1.5,8.1,1.3,12.3c-0.2,2.9-0.2,5.8-1.2,8.5c-0.3,0.9-0.8,1.8-1.5,2.5c-0.7,0.7-1.7,1-2.7,0.8c-2.1-0.5-2.6-3.4-2.7-5.2
		C155,174.8,154.9,173,154.4,171z"/>
	<path class="st12" d="M160.6,191.8c1.1,0.3,2.3,0.8,2.9,1.8c-0.7,1.1-1.5,2-2.5,2.9c-1.4,1.3-3.2,2.5-5.1,2.3
		c-2-0.2-3.4-1.7-4.9-2.9c-1.3-1.1-3.2-1.8-4.3-2.9c-1.6-1.5,0.5-1.8,2-2C152.7,190.4,156.8,190.7,160.6,191.8z"/>
	<path class="st25" d="M155,195.7c-1.8-2.3-11.1-5.8-13.2-7.8c-3.6-3.5-5.7-8.5-5.7-13.5c0-6.1,2.9-11.8,3-17.9
		c0-2.8-0.5-5.6-0.4-8.3c0.1-2.8,1.2-5.8,3.5-7.2c3.4-2.1,8.2,0,10.2,3.4s2,7.7,1.7,11.7c-0.4,4-1,8.1-0.1,12
		c1.6,6.3,7.1,11,8.8,17.3c0.7,2.4-5.6,7.5-5.7,10c-0.1,2.8-0.2,6.6-1.5,9.1c-1.7,3.6,2.8,5-0.7,1.1
		C152.8,202.8,157.6,199,155,195.7z"/>
	<g>
		<path class="st2" d="M155.7,199l-0.3-0.1c1.2-6.6-0.2-13.7-3.7-19.4c-0.4-0.6-0.8-1.3-1.2-1.9c-1.2-1.7-2.4-3.5-2.9-5.6
			c-0.9-3-0.3-6.2,0.3-9.3c0.2-0.8,0.3-1.6,0.4-2.5c1-6.3,0-11.9-2.8-15.8l0.2-0.2c2.9,4,3.9,9.7,2.9,16c-0.1,0.8-0.3,1.7-0.4,2.5
			c-0.6,3.1-1.2,6.2-0.3,9.2c0.6,2,1.8,3.8,2.9,5.5c0.4,0.6,0.8,1.3,1.2,1.9C155.5,185.1,156.9,192.3,155.7,199z"/>
	</g>
	<g>
		<path class="st2" d="M148.5,158.7c-1.8-2.1-3.4-3.7-5.4-5.3l0.2-0.2c1.9,1.5,3.6,3.2,5.4,5.3L148.5,158.7z"/>
	</g>
	<g>
		<path class="st2" d="M149.1,174.9l-0.2-0.2c0.5-0.7,1-1.6,1.5-2.5c0.5-0.9,1.1-1.8,1.5-2.5l0.2,0.2c-0.5,0.7-1,1.6-1.5,2.5
			C150.1,173.2,149.5,174.1,149.1,174.9z"/>
	</g>
	<g>
		<path class="st2" d="M155,187.7c-0.8-1.3-2.5-1.7-4-2.1l-0.4-0.1c-2.3-0.6-4.6-1.5-6.6-2.8l0.2-0.2c2,1.3,4.2,2.2,6.5,2.8l0.4,0.1
			c1.6,0.4,3.3,0.8,4.2,2.2L155,187.7z"/>
	</g>
	<g>
		<path class="st2" d="M147.3,166.1c-1.6-1.5-3.1-3.2-4.4-4.9l0.2-0.2c1.4,1.7,2.8,3.3,4.4,4.8L147.3,166.1z"/>
	</g>
	<g>
		
			<rect x="147.1" y="150.1" transform="matrix(0.4371 -0.8994 0.8994 0.4371 -50.8677 219.2208)" class="st2" width="5.1" height="0.3"/>
	</g>
	<g>
		<path class="st2" d="M153.2,181.6l-0.3-0.1c0.6-1.6,1.4-3.2,2.2-4.7l0.3,0.1C154.6,178.5,153.9,180,153.2,181.6z"/>
	</g>
	<path class="st2" d="M163.6,193.6c-5.7,1.6-12.1,1.1-17.4-1.5l3.1,19.2h9.5L163.6,193.6z"/>
	<path class="st6" d="M160.7,204.1l0.4-1.5c-0.2,0.1-0.5,0.1-0.7,0.2c-1.5,0.4-3,0.4-4.5,0.4c-2.4-0.1-4.8-0.4-7.1-1.3
		c-0.4-0.2-0.8-0.3-1.2-0.5l0.3,1.6c0.1,0.1,0.3,0.1,0.4,0.2C152.3,204.8,156.8,205.6,160.7,204.1z"/>
</g>
<path class="st6" d="M308.1,78.5l-1.1-0.2c-0.1-0.4-0.3-0.8-0.5-1.1l0.7-0.9c0.3-0.4,0.2-1-0.1-1.3l-1-1c-0.2-0.2-0.4-0.3-0.7-0.3
	c-0.2,0-0.4,0.1-0.6,0.2l-0.9,0.7c-0.4-0.2-0.8-0.4-1.2-0.5l-0.2-1.1c-0.1-0.5-0.5-0.8-1-0.8H300c-0.5,0-0.9,0.4-1,0.8l-0.2,1.2
	c-0.4,0.1-0.8,0.3-1.1,0.5l-0.9-0.7c-0.2-0.1-0.4-0.2-0.6-0.2c-0.3,0-0.5,0.1-0.7,0.3l-1,1c-0.3,0.3-0.4,0.9-0.1,1.3l0.7,1
	c-0.2,0.4-0.3,0.7-0.5,1.1l-1.1,0.2c-0.5,0.1-0.8,0.5-0.8,1V81c0,0.5,0.4,0.9,0.8,1l1.2,0.2c0.1,0.4,0.3,0.8,0.5,1.1l-0.7,0.9
	c-0.3,0.4-0.2,1,0.1,1.3l1,1c0.2,0.2,0.4,0.3,0.7,0.3c0.2,0,0.4-0.1,0.6-0.2l1-0.7c0.3,0.2,0.7,0.3,1.1,0.4l0.2,1.1
	c0.1,0.5,0.5,0.8,1,0.8h1.4c0.5,0,0.9-0.4,1-0.8l0.2-1.1c0.4-0.1,0.8-0.3,1.1-0.5l0.9,0.7c0.2,0.1,0.4,0.2,0.6,0.2
	c0.3,0,0.5-0.1,0.7-0.3l1-1c0.3-0.3,0.4-0.9,0.1-1.3l-0.7-0.9c0.2-0.4,0.3-0.7,0.5-1.1l1.1-0.2c0.5-0.1,0.8-0.5,0.8-1v-1.4
	C308.9,79,308.6,78.6,308.1,78.5z M300.7,83.7c-1.9,0-3.4-1.5-3.4-3.4c0-1.9,1.5-3.4,3.4-3.4s3.4,1.5,3.4,3.4
	C304.2,82.1,302.6,83.7,300.7,83.7z"/>
<path class="st26" d="M296.3,58.5l-0.9-0.2c-0.1-0.3-0.2-0.6-0.4-0.9l0.6-0.8c0.2-0.3,0.2-0.8-0.1-1.1l-0.8-0.8
	c-0.2-0.2-0.4-0.2-0.6-0.2c-0.2,0-0.3,0.1-0.5,0.2l-0.8,0.6c-0.3-0.2-0.6-0.3-0.9-0.4l-0.2-0.9c-0.1-0.4-0.4-0.7-0.8-0.7h-1.2
	c-0.4,0-0.7,0.3-0.8,0.7l-0.2,0.9c-0.3,0.1-0.6,0.2-0.9,0.4l-0.8-0.6c-0.1-0.1-0.3-0.2-0.5-0.2c-0.2,0-0.4,0.1-0.6,0.2l-0.8,0.8
	c-0.3,0.3-0.3,0.7-0.1,1.1l0.6,0.8c-0.2,0.3-0.3,0.6-0.4,0.9l-0.9,0.2c-0.4,0.1-0.7,0.4-0.7,0.8v1.2c0,0.4,0.3,0.7,0.7,0.8l0.9,0.2
	c0.1,0.3,0.2,0.6,0.4,0.9l-0.5,0.8c-0.2,0.3-0.2,0.8,0.1,1.1L286,65c0.2,0.2,0.4,0.2,0.6,0.2c0.2,0,0.3-0.1,0.5-0.2l0.8-0.6
	c0.3,0.1,0.6,0.3,0.9,0.4l0.2,0.9c0.1,0.4,0.4,0.7,0.8,0.7h1.2c0.4,0,0.7-0.3,0.8-0.7l0.2-0.9c0.3-0.1,0.6-0.2,0.9-0.4l0.8,0.6
	c0.1,0.1,0.3,0.2,0.5,0.2c0.2,0,0.4-0.1,0.6-0.2l0.8-0.8c0.3-0.3,0.3-0.7,0.1-1.1l-0.6-0.8c0.2-0.3,0.3-0.6,0.4-0.9l0.9-0.2
	c0.4-0.1,0.7-0.4,0.7-0.8v-1.2C297,58.9,296.7,58.5,296.3,58.5z M290.3,62.7c-1.5,0-2.8-1.3-2.8-2.8c0-1.5,1.3-2.8,2.8-2.8
	c1.5,0,2.8,1.3,2.8,2.8C293.1,61.4,291.9,62.7,290.3,62.7z"/>
<polygon class="st6" points="289.2,71.6 264.1,71.6 264.1,89.1 277.5,89.1 276.1,93.6 281.9,89.1 289.2,89.1 "/>
<g>
	<path class="st2" d="M272.6,80.7c0,0.5-0.4,1-1,1c-0.5,0-1-0.4-1-1c0-0.5,0.4-1,1-1C272.1,79.7,272.6,80.1,272.6,80.7z"/>
	<path class="st2" d="M277.4,80.7c0,0.5-0.4,1-1,1c-0.5,0-1-0.4-1-1c0-0.5,0.4-1,1-1C277,79.7,277.4,80.1,277.4,80.7z"/>
	<path class="st2" d="M282.3,80.7c0,0.5-0.4,1-1,1c-0.5,0-1-0.4-1-1c0-0.5,0.4-1,1-1C281.9,79.7,282.3,80.1,282.3,80.7z"/>
</g>
<g>
	<g id="appDevelopment_334_">
		<g id="appDevelopment_404_">
			<path id="appDevelopment_408_" class="st27" d="M107.8,200.5L107.8,200.5h2l2.8-8.4c0.2-0.5,0.1-1-0.1-1.5l-3.7-6.5H108l-0.1,7
				c0.1,0.1,0.7,0.3,0.8,0.4c0.5,0.5,0.5,1.4,0,1.9s-1.4,0.5-1.9,0s-0.5-1.4,0-1.9c0.1-0.1,0.5-0.4,0.6-0.4l0.2-6.9H107l-3.8,6.5
				c-0.3,0.5-0.3,1-0.2,1.5l2.7,8.4L107.8,200.5z"/>
			<polygon id="appDevelopment_407_" class="st28" points="105.8,200.5 107.8,200.5 107.8,200.5 109.8,200.5 110.7,197.7 
				104.9,197.7 			"/>
			<rect id="appDevelopment_406_" x="103.4" y="199" class="st29" width="8.8" height="15.9"/>
			<rect id="appDevelopment_405_" x="107.8" y="199" class="st30" width="4.4" height="15.9"/>
		</g>
		<g id="appDevelopment_392_">
			<path id="appDevelopment_401_" class="st31" d="M123.9,194.8v3.8c0,0.7,0.6,1.3,1.3,1.3c1.4,0,2.5,1.1,2.5,2.5v10.3
				c0,1.3,1.1,2.4,2.5,2.3c1.2-0.1,2-1.2,2-2.4v-10.1c0-1.4,1.1-2.5,2.5-2.5c0.7,0,1.3-0.6,1.3-1.3v-3.9L123.9,194.8L123.9,194.8z
				 M129.1,212.5c0-0.4,0.4-0.8,0.8-0.8c0.4,0,0.8,0.4,0.8,0.8s-0.4,0.8-0.8,0.8C129.5,213.3,129.1,212.9,129.1,212.5z"/>
			<rect id="appDevelopment_400_" x="123.9" y="183.1" class="st27" width="12" height="8.7"/>
			<rect id="appDevelopment_399_" x="123.9" y="183.1" class="st27" width="4.8" height="8.7"/>
			<rect id="appDevelopment_398_" x="123.9" y="191.3" class="st32" width="12" height="3.5"/>
			<rect id="appDevelopment_397_" x="123.9" y="191.5" class="st33" width="12" height="0.5"/>
			<rect id="appDevelopment_396_" x="123.9" y="192.8" class="st33" width="12" height="0.5"/>
			<rect id="appDevelopment_395_" x="123.9" y="194" class="st33" width="12" height="0.5"/>
			<path id="appDevelopment_394_" class="st34" d="M129.9,194.8v16.9c-0.4,0-0.8,0.4-0.8,0.8s0.4,0.8,0.8,0.8v1.6
				c-1.3,0-2.3-1-2.3-2.3v-10.3c0-1.4-1.1-2.5-2.5-2.5c-0.7,0-1.3-0.6-1.3-1.3v-3.7H129.9z"/>
			<path id="appDevelopment_393_" class="st35" d="M128,183.1v3.4c0,0.5,0.4,1,1,1l0,0c0.5,0,1-0.4,1-1v-1c0-0.4,0.4-0.8,0.8-0.8
				l0,0c0.4,0,0.8,0.4,0.8,0.8v3.6c0,0.4,0.4,0.8,0.8,0.8l0,0c0.4,0,0.8-0.4,0.8-0.8v-1.7l0,0c0.9,0,1.6-0.7,1.6-1.6V183H128V183.1z
				"/>
		</g>
		<path id="appDevelopment_391_" class="st36" d="M123.9,183.1v8.1v0.2v0.3v0.2v0.7v0.5v0.7v0.5v0.3v3.8c0,0.7,0.6,1.3,1.3,1.3
			c0.1,0,0.3,0,0.4,0v-12.9l-1.4-3.6L123.9,183.1L123.9,183.1z"/>
		<g id="appDevelopment_384_">
			<rect id="appDevelopment_390_" x="119.5" y="186.8" class="st27" width="4.9" height="24.4"/>
			<path id="appDevelopment_389_" class="st27" d="M124.5,212.4h-4.9v1.4c0,0.6,0.5,1.2,1.2,1.2h2.6c0.6,0,1.2-0.5,1.2-1.2
				L124.5,212.4L124.5,212.4z"/>
			<rect id="appDevelopment_388_" x="119.5" y="211.2" class="st37" width="4.9" height="1.2"/>
			<rect id="appDevelopment_387_" x="119.5" y="186.8" class="st38" width="2.5" height="24.4"/>
			<path id="appDevelopment_386_" class="st39" d="M121.8,181.1l-2.3,5.7h4.9l-2.3-5.7C122.1,180.9,121.9,180.9,121.8,181.1z"/>
			<path id="appDevelopment_385_" class="st37" d="M121.9,180.7l-0.6,1.5h1.3l-0.6-1.5C122,180.7,122,180.7,121.9,180.7z"/>
		</g>
		<path id="appDevelopment_383_" class="st36" d="M110.3,199l2.3-6.8c0.2-0.5,0.1-1-0.1-1.5l-3.2-5.7l0,0v1.2v0.4v1.2v0.4v1.2v0.4
			v1.2v0.4v1.2v0.4v1.2v0.4v1.2v0.4v1.2v0.4v1.2v0.4v1.2v0.4v1.2v0.4v1.2v0.4v1.2v0.4v1.2v0.4v1.2v0.4v1.2v0.4v1.2v0.4v1.2v0.4v0.8
			c0,0.6,0.5,1.1,1.1,1.1h1.9v-15.9h-2C110.3,199.8,110.3,199,110.3,199z"/>
		<g id="appDevelopment_359_">
			<path id="appDevelopment_382_" class="st35" d="M111.3,180h3.9c0.6,0,1,0.5,1,1v32.9c0,0.6-0.5,1-1,1h-3.9c-0.6,0-1-0.5-1-1V181
				C110.3,180.5,110.7,180,111.3,180z"/>
			<path id="appDevelopment_381_" class="st40" d="M111.4,180h2.1v34.9h-2.1c-0.6,0-1.1-0.5-1.1-1.1v-32.7
				C110.3,180.5,110.8,180,111.4,180z"/>
			<rect id="appDevelopment_380_" x="110.3" y="212.5" class="st41" width="0.7" height="0.4"/>
			<rect id="appDevelopment_379_" x="110.3" y="211" class="st41" width="0.7" height="0.4"/>
			<rect id="appDevelopment_378_" x="110.3" y="209.4" class="st41" width="0.7" height="0.4"/>
			<rect id="appDevelopment_377_" x="110.3" y="207.9" class="st41" width="0.7" height="0.4"/>
			<rect id="appDevelopment_376_" x="110.2" y="206.3" class="st41" width="1.5" height="0.4"/>
			<rect id="appDevelopment_375_" x="110.3" y="204.8" class="st41" width="0.7" height="0.4"/>
			<rect id="appDevelopment_374_" x="110.3" y="203.2" class="st41" width="0.7" height="0.4"/>
			<rect id="appDevelopment_373_" x="110.3" y="201.7" class="st41" width="0.7" height="0.4"/>
			<rect id="appDevelopment_372_" x="110.3" y="200.1" class="st41" width="0.7" height="0.4"/>
			<rect id="appDevelopment_371_" x="110.2" y="198.6" class="st41" width="1.5" height="0.4"/>
			<rect id="appDevelopment_370_" x="110.3" y="197" class="st41" width="0.7" height="0.4"/>
			<rect id="appDevelopment_369_" x="110.3" y="195.5" class="st41" width="0.7" height="0.4"/>
			<rect id="appDevelopment_368_" x="110.3" y="193.9" class="st41" width="0.7" height="0.4"/>
			<rect id="appDevelopment_367_" x="110.3" y="192.4" class="st41" width="0.7" height="0.4"/>
			<rect id="appDevelopment_366_" x="110.2" y="190.8" class="st41" width="1.5" height="0.4"/>
			<rect id="appDevelopment_365_" x="110.3" y="189.3" class="st41" width="0.7" height="0.4"/>
			<rect id="appDevelopment_364_" x="110.3" y="187.7" class="st41" width="0.7" height="0.4"/>
			<rect id="appDevelopment_363_" x="110.3" y="186.2" class="st41" width="0.7" height="0.4"/>
			<rect id="appDevelopment_362_" x="110.3" y="184.6" class="st41" width="0.7" height="0.4"/>
			<rect id="appDevelopment_361_" x="110.2" y="183.1" class="st41" width="1.5" height="0.4"/>
			<rect id="appDevelopment_360_" x="110.3" y="181.5" class="st41" width="0.7" height="0.4"/>
		</g>
		<path id="appDevelopment_358_" class="st36" d="M115.2,180v6.9l0,0h-0.6v2.7v0.3v4.6h0.6v20.4c0.6,0,1-0.5,1-1.1v-32.7
			C116.2,180.5,115.8,180.1,115.2,180z"/>
		<g id="appDevelopment_349_">
			<rect id="appDevelopment_357_" x="116.3" y="194.2" class="st42" width="2.6" height="20.7"/>
			<rect id="appDevelopment_356_" x="117.6" y="194.2" class="st43" width="1.3" height="20.7"/>
			<rect id="appDevelopment_355_" x="115.7" y="189.6" class="st42" width="3.5" height="4.9"/>
			<rect id="appDevelopment_354_" x="115.7" y="189.6" class="st6" width="3.5" height="0.3"/>
			<rect id="appDevelopment_353_" x="115.7" y="186.9" class="st42" width="3.5" height="2.7"/>
			<polygon id="appDevelopment_352_" class="st32" points="119.1,181.3 116.3,178.9 116.3,186.9 119.1,186.9 			"/>
			<polygon id="appDevelopment_351_" class="st44" points="116.3,179.8 116.3,186.9 119.1,186.9 119.1,182.2 			"/>
			<polygon id="appDevelopment_350_" class="st45" points="117.7,186.9 119.1,186.9 119.1,182.2 117.7,181 			"/>
		</g>
		<g id="appDevelopment_342_" class="st46">
			<path id="appDevelopment_348_" class="st36" d="M110.3,214.9h1.1h0.8h1.3h1.6h0.1l0,0c0.3,0,0.5-0.1,0.7-0.3c0,0,0,0,0-0.1
				c0.1-0.1,0.1-0.2,0.2-0.3s0.1-0.3,0.1-0.4v-9.1h-12.8v10.2h4.4L110.3,214.9L110.3,214.9z"/>
			<path id="appDevelopment_347_" class="st36" d="M119.5,213.6c0,0.7,0.6,1.3,1.3,1.3h2.4c0.7,0,1.3-0.6,1.3-1.3v-1.3v-1.2v-6.5
				h-4.9v6.5v1.2v1.3H119.5z"/>
			<polygon id="appDevelopment_346_" class="st36" points="118.9,214.9 118.9,204.7 116.3,204.7 116.3,214.9 117.6,214.9 			"/>
			<path id="appDevelopment_343_" class="st36" d="M127.6,204.7v8c0,0.2,0,0.3,0.1,0.5c0,0.1,0,0.1,0.1,0.2c0,0.1,0,0.2,0.1,0.2
				c0,0.1,0.1,0.2,0.1,0.2l0.1,0.1c0.1,0.1,0.1,0.2,0.2,0.3c0,0,0,0,0.1,0.1c0.1,0.1,0.2,0.2,0.3,0.2l0,0c0.4,0.3,0.9,0.4,1.5,0.4
				c1.2-0.1,2-1.2,2-2.4v-7.8H127.6z M129.9,213.3c-0.4,0-0.8-0.4-0.8-0.8s0.4-0.8,0.8-0.8c0.4,0,0.8,0.4,0.8,0.8
				S130.4,213.3,129.9,213.3z"/>
		</g>
		<g id="appDevelopment_335_">
			<path id="appDevelopment_341_" class="st27" d="M137.1,227.2h-34.2v-21.4h36.3v19.3C139.2,226.2,138.3,227.2,137.1,227.2z"/>
			<path id="appDevelopment_340_" class="st47" d="M101.3,227.2h1.6v-21.4h-3.7v19.3C99.2,226.2,100.1,227.2,101.3,227.2z"/>
			<polygon id="appDevelopment_339_" class="st28" points="99.2,210.3 101.6,210.3 102.9,205.8 99.2,206.7 			"/>
			<path id="appDevelopment_338_" class="st27" d="M98.6,208.5h2.6c0.2,0,0.4-0.1,0.4-0.3l1.2-2.4h-3.7l-1,2
				C98,208.1,98.3,208.5,98.6,208.5z"/>
			<polygon id="appDevelopment_337_" class="st28" points="139.2,210.3 139.2,206.7 102.9,205.8 104.9,210.3 			"/>
			<path id="appDevelopment_336_" class="st27" d="M140.2,208.5h-35.1c-0.2,0-0.3-0.1-0.4-0.2l-1.8-2.5h36.3l1.4,1.9
				C140.9,208,140.7,208.5,140.2,208.5z"/>
		</g>
	</g>
	<g id="appDevelopment_320_">
		<polygon id="appDevelopment_327_" class="st27" points="350.5,215.6 344.1,215.1 349.2,209.2 		"/>
		<polygon id="appDevelopment_326_" class="st27" points="345.4,221.4 339,220.9 344.1,215.1 		"/>
		<polygon id="appDevelopment_325_" class="st27" points="357.9,227.2 340.2,227.2 355.6,209.7 		"/>
		<polygon id="appDevelopment_324_" class="st38" points="357.9,227.2 345.4,221.4 350.5,215.5 		"/>
		<polygon id="appDevelopment_323_" class="st38" points="339,220.9 340.2,227.2 345.3,221.4 		"/>
		<polygon id="appDevelopment_322_" class="st38" points="344.1,215.1 345.4,221.4 350.5,215.6 		"/>
		<polygon id="appDevelopment_321_" class="st38" points="349.2,209.2 350.5,215.5 355.6,209.7 		"/>
	</g>
	<g id="appDevelopment_121_">
		<g id="appDevelopment_307_">
			<path id="appDevelopment_319_" class="st48" d="M301.2,225.5c-3.7,3.1-9.2,2.6-12.2-1.1c-3.1-3.7-2.6-9.2,1.1-12.2
				c3.7-3.1,9.2-2.6,12.2,1.1C305.4,217,304.9,222.5,301.2,225.5z"/>
			<g>
				<path class="st6" d="M298,217.2l-2.8,5.9c0,0.1-0.1,0.1-0.2,0.1c0,0,0,0-0.1,0s-0.2-0.1-0.2-0.3l1-4.1l-2.1,0.5c0,0,0,0-0.1,0
					s-0.1,0-0.2-0.1s-0.1-0.1-0.1-0.2l1-4.2c0-0.1,0.1-0.2,0.2-0.2h1.7c0.1,0,0.2,0.1,0.2,0.2v0.1l-0.9,2.4l2-0.5c0,0,0,0,0.1,0
					s0.1,0,0.2,0.1C298,217,298,217.1,298,217.2z"/>
			</g>
		</g>
		<path id="appDevelopment_306_" class="st49" d="M294.5,219.1c0-2.9-1.3-5.4-3.3-7.2c-0.4,0.2-0.8,0.5-1.2,0.8c-2,1.7-3,4-3.1,6.4
			c0.1,1.9,0.7,3.7,2,5.3c0.6,0.8,1.4,1.4,2.2,1.9C293.2,224.6,294.5,222,294.5,219.1z"/>
		<g id="appDevelopment_150_">
			<path id="appDevelopment_305_" class="st35" d="M293,218c0,5.3-4.3,9.5-9.5,9.5c-5.3,0-9.5-4.3-9.5-9.5c0-5.3,4.3-9.5,9.5-9.5
				S293,212.8,293,218z"/>
			<g>
				<path class="st6" d="M286,221.3c0,0.1,0,0.2-0.1,0.2c0,0-0.5,0.2-1.1,0.2c-1.6,0-3-1-3.4-2.5h-0.5c-0.1,0-0.2-0.1-0.2-0.2v-0.6
					c0-0.1,0.1-0.2,0.2-0.2h0.3c0-0.2,0-0.4,0-0.6h-0.4c-0.1,0-0.2-0.1-0.2-0.2v-0.6c0-0.1,0.1-0.2,0.2-0.2h0.5
					c0.5-1.5,1.8-2.4,3.4-2.4c0.5,0,1,0.1,1,0.1s0.1,0,0.1,0.1v0.1l-0.2,0.8c0,0.1-0.1,0.1-0.2,0.1c0,0-0.4-0.1-0.7-0.1
					c-0.9,0-1.6,0.5-2,1.3h2.5c0.1,0,0.1,0,0.1,0.1v0.1l-0.1,0.6c0,0.1-0.1,0.1-0.2,0.1h-2.6c0,0.2,0,0.3,0,0.6h2.4
					c0.1,0,0.1,0,0.1,0.1v0.1l-0.1,0.6c0,0.1-0.1,0.1-0.2,0.1h-2c0.3,0.8,1.1,1.3,2,1.3c0.5,0,0.8-0.1,0.8-0.1h0.1l0.1,0.1
					L286,221.3z"/>
			</g>
		</g>
		<path id="appDevelopment_149_" class="st49" d="M279.8,210.3c-3.3,1.4-5.7,4.6-5.9,8.4c0.2,3.2,2.1,6,4.7,7.6
			c4-2.9,5.4-8.3,3.3-12.9C281.4,212.2,280.7,211.2,279.8,210.3z"/>
		<g id="appDevelopment_134_">
			<ellipse id="appDevelopment_148_" class="st27" cx="270.8" cy="217.1" rx="10.5" ry="10.5"/>
			<g>
				<path class="st6" d="M276.9,213.2v6.9c0,0.5-0.4,0.9-0.9,0.9h-9.1c-0.5,0-0.9-0.4-0.9-0.9v-6.9c0-0.5,0.4-0.9,0.9-0.9h9.1
					C276.4,212.3,276.9,212.7,276.9,213.2z M266.6,213.2v1.3h9.5v-1.3c0-0.1-0.1-0.2-0.2-0.2h-9.1
					C266.7,213,266.6,213.1,266.6,213.2z M276.1,220.2v-3.5h-9.5v3.5c0,0.1,0.1,0.2,0.2,0.2h9.1C276,220.4,276.1,220.3,276.1,220.2z
					 M267.4,218.9h1.5v0.7h-1.5V218.9z M269.6,218.9h2.2v0.7h-2.2V218.9z"/>
			</g>
		</g>
		<path id="appDevelopment_133_" class="st49" d="M261.3,221.5c0.7,1.5,1.7,2.7,2.8,3.6c0.6-0.8,1.2-1.8,1.5-2.8
			c1.4-4.1,0.2-8.5-2.9-11.2c-1.5,1.8-2.4,4.1-2.4,6.5C260.4,218.9,260.7,220.2,261.3,221.5z"/>
		<g id="appDevelopment_122_">
			<path id="appDevelopment_132_" class="st50" d="M263.6,220.6c-1.9,5.4-7.9,8.3-13.3,6.4c-5.4-1.9-8.3-7.9-6.4-13.3
				c1.9-5.4,7.8-8.3,13.3-6.4C262.7,209.3,265.5,215.2,263.6,220.6z"/>
			<g>
				<path class="st6" d="M254.1,220.8v0.9c0,0.1-0.1,0.2-0.2,0.2h-0.7c-0.1,0-0.2-0.1-0.2-0.2v-0.9c-1.2-0.2-1.9-0.9-2-1
					s-0.1-0.2,0-0.2l0.6-0.7l0.1-0.1h0.1c0,0,0.8,0.7,1.7,0.7c0.5,0,1.1-0.3,1.1-0.9c0-0.5-0.6-0.8-1.4-1.1c-1-0.4-2.2-0.9-2.2-2.2
					c0-1,0.8-1.8,1.9-2v-1c0-0.1,0.1-0.2,0.2-0.2h0.7c0.1,0,0.2,0.1,0.2,0.2v0.9c1.1,0.1,1.7,0.7,1.7,0.7c0.1,0.1,0.1,0.1,0,0.2
					l-0.4,0.8l-0.1,0.1c-0.1,0-0.1,0-0.1,0s-0.7-0.6-1.5-0.6c-0.7,0-1.1,0.3-1.1,0.8c0,0.6,0.7,0.8,1.4,1.1c1,0.4,2.1,0.8,2.1,2.1
					S255.2,220.6,254.1,220.8z"/>
			</g>
		</g>
	</g>
	<g id="appDevelopment_33_">
		<g id="appDevelopment_117_">
			<path id="appDevelopment_120_" class="st35" d="M235.4,218.1c0,5.1-4.1,9.3-9.3,9.3c-5.1,0-9.3-4.1-9.3-9.3s4.1-9.3,9.3-9.3
				C231.2,208.8,235.4,213,235.4,218.1z"/>
			<g id="appDevelopment_118_">
				<polygon id="appDevelopment_119_" class="st6" points="225.3,221 222.3,218 223.3,217 225.3,218.9 228.9,215.2 230,216.3 				
					"/>
			</g>
		</g>
		<path id="appDevelopment_116_" class="st49" d="M216.9,218.1c0,2.9,1.4,5.6,3.5,7.2c1-0.8,1.9-1.9,2.5-3.1c1.9-4,0.8-8.6-2.4-11.4
			C218.2,212.6,216.9,215.2,216.9,218.1z"/>
		<g id="appDevelopment_107_">
			<path id="appDevelopment_115_" class="st27" d="M221.1,222.2c-2.3,4.7-7.9,6.7-12.6,4.4c-4.7-2.3-6.7-7.9-4.4-12.6
				c2.3-4.7,7.9-6.7,12.6-4.4C221.4,211.9,223.4,217.5,221.1,222.2z"/>
			<g id="appDevelopment_108_">
				<g>
					<path id="appDevelopment_110_" class="st6" d="M212.1,216.9l1-2.1l1.7,0.8l-1,2.1l2.1,1l-0.7,1.5l-2.1-1l-1,2.1l-1.7-0.8l1-2.1
						l-2-1l0.7-1.5L212.1,216.9z"/>
				</g>
			</g>
		</g>
		<path id="appDevelopment_105_" class="st49" d="M207.9,209.9c-1.6,0.9-3,2.3-3.9,4.1c-2.1,4.4-0.5,9.7,3.6,12.2
			c2.8-1.7,4.7-4.7,4.7-8.2C212.3,214.6,210.5,211.6,207.9,209.9z"/>
		<g id="appDevelopment_34_">
			<circle id="appDevelopment_103_" class="st42" cx="201.3" cy="217.9" r="9.6"/>
			<g>
				<path class="st6" d="M204.8,218.1c0.2,0.3,0.3,0.7,0.3,1.2c-0.1,0.6-0.3,1.1-0.8,1.3c-0.4,0.2-1,0.4-1.7,0.4v1.2h-0.9V221H201
					v1.2h-0.9V221h-1.7l0.2-1h0.2c0.3,0,0.5,0,0.5,0c0.1,0,0.2-0.1,0.2-0.3v-3.8c0-0.2-0.1-0.3-0.3-0.3c-0.1,0-0.3,0-0.7,0h-0.1
					v-0.9h0.5c0.6,0,1,0,1.2,0v-1.4h0.9v1.4h0.7v-1.3h0.9v1.4c0.6,0.1,1,0.2,1.4,0.4s0.6,0.6,0.6,1c0.1,0.7-0.2,1.1-0.7,1.4
					C204.2,217.6,204.6,217.8,204.8,218.1z M201,217.3h0.1c0.5,0,0.9,0,1.1-0.1c0.5-0.1,0.7-0.4,0.7-0.7c0-0.4-0.2-0.6-0.7-0.8
					c-0.3-0.1-0.6-0.1-1.1-0.1c-0.1,0-0.1,0-0.2,0L201,217.3L201,217.3z M201.2,220c0.6,0,1,0,1.3-0.1c0.5-0.1,0.8-0.4,0.8-0.8
					s-0.3-0.7-0.8-0.8c-0.3-0.1-0.7-0.1-1.3-0.1H201v1.8L201.2,220L201.2,220z"/>
			</g>
		</g>
	</g>
	<g id="appDevelopment_29_">
		<path id="appDevelopment_30_" class="st27" d="M177.8,219.2h2.3c0.5,0,0.9-0.4,0.9-0.9v-3c0-0.5-0.4-0.9-0.9-0.9h-1.8
			c-0.3,0-0.6-0.2-0.7-0.5c-0.1-0.2-0.1-0.3-0.2-0.5c-0.1-0.3-0.1-0.6,0.1-0.8l1.3-1.3c0.3-0.3,0.3-0.9,0-1.2l-2.1-2.1
			c-0.3-0.3-0.9-0.3-1.2,0l-1.3,1.3c-0.2,0.2-0.5,0.3-0.8,0.1c-0.2-0.1-0.4-0.2-0.6-0.2c-0.3-0.1-0.4-0.4-0.4-0.7v-1.8
			c0-0.5-0.4-0.9-0.9-0.9h-3c-0.5,0-0.9,0.4-0.9,0.9v1.8c0,0.3-0.2,0.6-0.5,0.7c-0.2,0.1-0.4,0.1-0.5,0.2c-0.3,0.1-0.6,0.1-0.8-0.1
			l-1.3-1.3c-0.3-0.3-0.9-0.3-1.2,0l-2.1,2.1c-0.3,0.3-0.3,0.9,0,1.2l1.3,1.3c0.2,0.2,0.3,0.5,0.2,0.8c-0.1,0.2-0.2,0.4-0.2,0.6
			c-0.1,0.3-0.4,0.4-0.7,0.4H160c-0.5,0-0.9,0.4-0.8,0.9v3c0,0.5,0.4,0.9,0.9,0.8h1.8c0.3,0,0.6,0.2,0.7,0.5
			c0.1,0.2,0.1,0.3,0.2,0.5c0.1,0.3,0.1,0.6-0.1,0.8l-1.3,1.3c-0.3,0.3-0.3,0.9,0,1.2l2.1,2.1c0.3,0.3,0.9,0.3,1.2,0l1.3-1.3
			c0.2-0.2,0.5-0.3,0.8-0.1c0.2,0.1,0.4,0.2,0.6,0.2c0.3,0.1,0.4,0.4,0.4,0.7v1.8c0,0.5,0.4,0.9,0.9,0.8h3c0.5,0,0.9-0.4,0.8-0.9
			v-1.8c0-0.3,0.2-0.6,0.5-0.7c0.2-0.1,0.3-0.1,0.5-0.2c0.3-0.1,0.6-0.1,0.8,0.1l1.3,1.3c0.3,0.3,0.9,0.3,1.2,0l2.1-2.1
			c0.3-0.3,0.3-0.9,0-1.2l-1.3-1.3c-0.2-0.2-0.3-0.5-0.1-0.8C177.6,219.8,177.8,219.2,177.8,219.2z M166,216.1
			c0.5-2.6,3.2-4.1,5.6-3.2c1.9,0.7,3,2.7,2.6,4.7c-0.5,2.6-3.2,4.1-5.6,3.2C166.8,220.1,165.7,218.1,166,216.1z"/>
	</g>
	<g id="appDevelopment_857_">
		<g id="appDevelopment_868_">
			<path id="appDevelopment_901_" class="st51" d="M91.4,227.2H66.5c-1.2,0-2.2-1-2.2-2.2v-20.6h27.1c0.4,0,0.8,0.3,0.8,0.8v21.3
				C92.1,226.8,91.8,227.2,91.4,227.2z"/>
			<path id="appDevelopment_900_" class="st52" d="M67.2,223.3c-1,0-3,0.2-3,2.3v-22.4c0-1.3,1-2.3,2.3-2.3h0.7V223.3z"/>
		</g>
		<path id="appDevelopment_834_" class="st35" d="M83.3,217.8h1.5c0.3,0,0.5-0.2,0.5-0.5v-1.9c0-0.3-0.2-0.5-0.5-0.5h-1.2
			c-0.2,0-0.4-0.1-0.4-0.3c0-0.1-0.1-0.2-0.1-0.3c-0.1-0.2-0.1-0.4,0.1-0.5L84,213c0.2-0.2,0.2-0.6,0-0.8l-1.3-1.3
			c-0.2-0.2-0.6-0.2-0.8,0l-0.8,0.8c-0.1,0.1-0.3,0.2-0.5,0.1c-0.1-0.1-0.2-0.1-0.4-0.1c-0.2-0.1-0.3-0.2-0.3-0.4v-1.2
			c0-0.3-0.2-0.5-0.5-0.5h-1.9c-0.3,0-0.5,0.2-0.5,0.5v1.2c0,0.2-0.1,0.4-0.3,0.4c-0.1,0-0.2,0.1-0.3,0.1c-0.2,0.1-0.4,0.1-0.5-0.1
			l-0.9-0.9c-0.2-0.2-0.6-0.2-0.8,0l-1.3,1.3c-0.2,0.2-0.2,0.6,0,0.8l0.8,0.8c0.1,0.1,0.2,0.3,0.1,0.5c-0.1,0.1-0.1,0.2-0.1,0.4
			c-0.1,0.2-0.2,0.3-0.4,0.3h-1.2c-0.3,0-0.5,0.2-0.5,0.5v1.9c0,0.3,0.2,0.5,0.5,0.5h1.2c0.2,0,0.4,0.1,0.4,0.3
			c0,0.1,0.1,0.2,0.1,0.3c0.1,0.2,0.1,0.4-0.1,0.5l-0.8,0.8c-0.2,0.2-0.2,0.6,0,0.8l1.3,1.3c0.2,0.2,0.6,0.2,0.8,0l0.8-0.8
			c0.1-0.1,0.3-0.2,0.5-0.1c0.1,0.1,0.2,0.1,0.4,0.1c0.2,0.1,0.3,0.2,0.3,0.4v1.2c0,0.3,0.2,0.5,0.5,0.5h1.9c0.3,0,0.5-0.2,0.5-0.5
			v-1.2c0-0.2,0.1-0.4,0.3-0.4c0.1,0,0.2-0.1,0.3-0.1c0.2-0.1,0.4-0.1,0.5,0.1l0.8,0.8c0.2,0.2,0.6,0.2,0.8,0l1.3-1.3
			c0.2-0.2,0.2-0.6,0-0.8l-0.8-0.8c-0.1-0.1-0.2-0.3-0.1-0.5C83.2,218.2,83.3,217.8,83.3,217.8z M75.8,215.8c0.3-1.7,2-2.6,3.6-2
			c1.2,0.5,1.9,1.7,1.7,3c-0.3,1.7-2,2.6-3.6,2C76.3,218.4,75.6,217.1,75.8,215.8z"/>
		<path id="appDevelopment_858_" class="st36" d="M92.1,226.6v-21.7c0-0.3-0.3-0.6-0.6-0.6h-1.8v19.1v0.6v2.5c0,0.3,0.3,0.6,0.6,0.6
			h1.2C91.9,227.2,92.1,226.9,92.1,226.6z"/>
		<g id="appDevelopment_838_">
			<rect id="appDevelopment_856_" x="90.5" y="202.5" class="st27" width="2.5" height="21.6"/>
			<path id="appDevelopment_855_" class="st52" d="M93,224h-2.5v2.3c0,0.5,0.4,0.8,0.8,0.8h0.9c0.5,0,0.8-0.4,0.8-0.8V224z"/>
			<rect id="appDevelopment_852_" x="90.5" y="202.5" class="st53" width="1.3" height="21.6"/>
			<path id="appDevelopment_851_" class="st39" d="M91.6,199.5l-1.2,2.9H93l-1.2-2.9C91.8,199.4,91.7,199.4,91.6,199.5z"/>
			<path id="appDevelopment_850_" class="st37" d="M91.7,199.4l-0.3,0.8h0.7L91.7,199.4C91.7,199.3,91.7,199.3,91.7,199.4z"/>
			<rect id="appDevelopment_854_" x="90.5" y="223.4" class="st37" width="2.5" height="0.6"/>
		</g>
	</g>
</g>
<g>
	<path class="st54" d="M388.7,204.7c0.2-1.1,0.5-2.2,0.3-3.3c-0.2-1.4-1-2.7-1.9-3.9c-0.5-0.7-1.5-1.5-2.3-1.1
		c-0.3,0.1-0.6,0.4-0.7,0.7c-1.3,2.1-1,4.7-0.8,7.1c0.1,1.7,0.1,3.4,0.7,4.9c0.2,0.5,0.5,1,0.9,1.4c0.4,0.4,1.1,0.6,1.7,0.5
		c1.3-0.3,1.7-2,1.7-3C388.4,206.9,388.4,205.9,388.7,204.7z"/>
	<path class="st12" d="M384.8,216.7c-0.7,0.2-1.5,0.5-1.8,1c0.4,0.6,1,1.2,1.5,1.7c0.9,0.8,2,1.4,3.2,1.3c1.2-0.1,2.2-1,3.1-1.7
		c0.8-0.6,2-1,2.7-1.7c1-0.9-0.3-1.1-1.3-1.2C389.8,215.9,387.2,216.1,384.8,216.7z"/>
	<path class="st55" d="M388.4,219c1.1-1.3,7-3.3,8.3-4.5c2.3-2,3.6-4.9,3.6-7.8c0-3.5-1.8-6.8-1.9-10.3c0-1.6,0.3-3.2,0.2-4.8
		c-0.1-1.6-0.7-3.3-2.2-4.2c-2.2-1.2-5.2,0-6.5,2s-1.3,4.4-1.1,6.8s0.6,4.7,0,6.9c-1,3.6-4.5,6.4-5.5,10c-0.4,1.4,3.6,4.3,3.6,5.7
		c0,1.6,0.1,3.8,0.9,5.2c1.1,2.1-1.7,2.9,0.4,0.6C389.7,223,386.7,220.8,388.4,219z"/>
	<g>
		<path class="st2" d="M387.9,220.9l0.2,0c-0.7-3.8,0.1-7.9,2.3-11.2c0.2-0.4,0.5-0.7,0.8-1.1c0.7-1,1.5-2,1.9-3.2
			c0.5-1.8,0.2-3.6-0.2-5.4c-0.1-0.5-0.2-0.9-0.3-1.4c-0.6-3.6,0-6.9,1.8-9.1l-0.1-0.1c-1.8,2.3-2.5,5.6-1.8,9.2
			c0.1,0.5,0.2,1,0.3,1.4c0.4,1.8,0.7,3.6,0.2,5.3c-0.4,1.2-1.1,2.2-1.8,3.2c-0.3,0.4-0.5,0.7-0.8,1.1
			C388,212.9,387.2,217,387.9,220.9z"/>
	</g>
	<g>
		<path class="st2" d="M392.5,197.7c1.1-1.2,2.2-2.2,3.4-3l-0.1-0.1c-1.2,0.9-2.3,1.8-3.4,3.1L392.5,197.7z"/>
	</g>
	<g>
		<path class="st2" d="M392.1,207l0.2-0.1c-0.3-0.4-0.6-0.9-1-1.5c-0.3-0.5-0.7-1-1-1.5l-0.2,0.1c0.3,0.4,0.6,0.9,1,1.5
			C391.5,206,391.8,206.5,392.1,207z"/>
	</g>
	<g>
		<path class="st2" d="M388.3,214.4c0.5-0.7,1.5-1,2.5-1.2l0.3-0.1c1.5-0.3,2.9-0.9,4.2-1.6l-0.1-0.1c-1.3,0.7-2.7,1.3-4.1,1.6
			l-0.3,0.1c-1,0.2-2.1,0.5-2.7,1.3L388.3,214.4z"/>
	</g>
	<g>
		<path class="st2" d="M393.2,201.9c1-0.9,1.9-1.8,2.8-2.8l-0.1-0.1c-0.9,1-1.8,1.9-2.8,2.8L393.2,201.9z"/>
	</g>
	<g>
		<polygon class="st2" points="392.3,194.1 392.5,194.1 391.1,191.4 390.9,191.5 		"/>
	</g>
	<g>
		<path class="st2" d="M389.5,210.8l0.2-0.1c-0.4-0.9-0.9-1.8-1.4-2.7l-0.2,0.1C388.6,209,389.1,209.9,389.5,210.8z"/>
	</g>
	<path class="st2" d="M382.9,217.8c3.6,0.9,7.6,0.6,11-0.9L392,228h-6L382.9,217.8z"/>
	<path class="st6" d="M384.7,223.8l-0.3-0.9c0.2,0,0.3,0.1,0.5,0.1c0.9,0.2,1.9,0.2,2.8,0.2c1.5,0,3.1-0.3,4.5-0.7
		c0.3-0.1,0.5-0.2,0.7-0.3l-0.2,0.9c-0.1,0-0.2,0.1-0.3,0.1C390.1,224.2,387.2,224.7,384.7,223.8z"/>
</g>
</svg>
