<?xml version="1.0" encoding="utf-8"?>
<!-- Generator: Adobe Illustrator 22.1.0, SVG Export Plug-In . SVG Version: 6.00 Build 0)  -->
<svg version="1.1" id="Layer_1" xmlns="http://www.w3.org/2000/svg" xmlns:xlink="http://www.w3.org/1999/xlink" x="0px" y="0px"
	 viewBox="0 0 383.2 193.4" style="enable-background:new 0 0 383.2 193.4;" xml:space="preserve">
<style type="text/css">
	.st0{fill:#00C9A7;}
	.st1{fill:none;stroke:#1E2022;stroke-miterlimit:10;}
	.st2{fill:#F4F4F4;}
	.st3{fill:url(#SVGID_1_);}
	.st4{fill:#3878FF;}
	.st5{fill:#F76D59;}
	.st6{fill:#1F1F89;}
	.st7{fill:#F7F5EF;}
	.st8{fill:#8E574A;}
	.st9{fill:#E2E1E0;}
	.st10{opacity:0.5;fill:none;stroke:#0A5DE2;stroke-width:2;stroke-linecap:round;stroke-miterlimit:10;}
	.st11{fill:#D6D6D6;}
	.st12{fill:#AFC6F5;}
	.st13{fill:#0A5DE2;}
	.st14{fill:#2B159B;}
	.st15{opacity:0.4;}
	.st16{fill:#E5E5E5;}
	.st17{fill:#D64536;}
	.st18{fill:url(#SVGID_2_);}
	.st19{fill:#B0D8FF;}
	.st20{fill:#BCCCFD;}
	.st21{fill:url(#SVGID_3_);}
	.st22{fill:#80392E;}
	.st23{fill:#FEC55E;}
	.st24{opacity:0.2;fill:#231F20;enable-background:new    ;}
	.st25{fill:#717386;}
	.st26{fill:#4D5068;}
	.st27{fill:#9A9DD0;}
	.st28{fill:#9E9E9E;}
	.st29{fill:#C5C5C5;}
	.st30{fill:#8184C4;}
	.st31{fill:#377DFF;}
	.st32{opacity:0.3;fill:#414042;enable-background:new    ;}
	.st33{fill:#212121;}
	.st34{fill:#FED17E;}
	.st35{fill:#F1F2F2;}
	.st36{fill:#B7D2F9;}
	.st37{fill:#414042;}
	.st38{fill:#191C3C;}
	.st39{fill:#474963;}
	.st40{fill:#FFFFFF;}
	.st41{fill:#ECECEC;}
	.st42{fill:#B1B1B1;}
	.st43{opacity:0.3;}
	.st44{fill:#BF9447;}
	.st45{fill:#FCD991;}
	.st46{opacity:0.3;fill:#231F20;enable-background:new    ;}
	.st47{fill:#FDFDFE;}
	.st48{fill:#575A8F;}
	.st49{fill:#FDE1A7;}
</style>
<g>
	<g>
		<g>
			<path class="st0" d="M87.5,152.7c-0.1,0-0.2,0.1-0.3,0.1c-2.7,1.3-4.2,1.1-6.8-0.1c-2.5-1.1-4.8-2.5-6.9-4.3
				c-2.6-2.3-4.6-5.3-5-8.7c-0.1-0.8-0.1-1.6,0.4-2.2c0.6-0.9,1.9-1,2.9-0.6c1,0.4,1.8,1.1,2.5,1.9c0.3,0.3,0.7,0.6,1.1,0.7
				c0.4,0.1,1,0,1.2-0.4c0.4-0.6-0.3-1.3-0.8-1.8c-1.3-1.1-2.5-1.7-3.8-2.6c-1.7-1.2-3.2-2.6-4.2-4.5c-0.9-1.8-1.1-4.1-0.2-5.9
				c0.3-0.6,0.7-1.1,1.2-1.4c0.9-0.6,2.1-0.6,3.2-0.3c1.1,0.2,2.1,0.6,3.2,0.8c2.6,0.3,3.6-1.6,3.6-4c0-1.6-0.6-3.2-0.6-4.8
				c-0.2-2.8,1.2-5.8,3.8-7.1c2.6-1.2,6.1-0.1,7.1,2.6c1,2.9-1.3,6.2,0.2,9c0.5,0.9,1.6,2.2,2.5,2.7c1.4,0.9,3.5-0.2,5.2-0.1
				c0.4,0,0.8,0.1,1,0.3s0.3,0.5,0.3,0.7c0.4,2-0.3,4.2-1.9,5.6c-1.7,1.6-4.7,2.4-5.4,4.8c-0.5,1.5-0.3,5.3,2.2,4.9
				c0.9-0.1,1.5-1,2.4-1.3c1.1-0.4,2.3,0.4,2.8,1.4s0.3,2.3-0.1,3.3c-0.7,1.7-1.9,3-3.2,4.3C92.6,148.5,90.9,151.1,87.5,152.7z"/>
		</g>
		<line class="st1" x1="83.9" y1="117.3" x2="83.9" y2="191.5"/>
		<polyline class="st1" points="90.8,127.5 83.9,134.4 77,127.5 		"/>
		<polyline class="st1" points="90.8,141.4 83.9,148.2 77,141.4 		"/>
	</g>
	<g>
		<g>
			<path class="st0" d="M338.4,147.3c-0.1,0.1-0.2,0.1-0.3,0.2c-3.4,1.6-5.1,1.3-8.4-0.2c-3-1.4-5.9-3-8.4-5.2
				c-3.2-2.8-5.6-6.6-6.1-10.8c-0.1-0.9-0.1-2,0.4-2.7c0.8-1,2.3-1.2,3.5-0.7c1.2,0.5,2.2,1.4,3.1,2.3c0.4,0.4,0.8,0.7,1.4,0.9
				c0.5,0.1,1.2,0,1.5-0.5c0.4-0.8-0.3-1.7-1-2.2c-1.6-1.3-3-2.1-4.7-3.2c-2.1-1.5-4-3.2-5.1-5.5s-1.4-5.1-0.2-7.3
				c0.4-0.7,0.9-1.3,1.5-1.7c1.2-0.7,2.6-0.7,4-0.4c1.3,0.3,2.6,0.8,4,0.9c3.2,0.3,4.5-1.9,4.4-4.9c0-2-0.7-3.9-0.8-5.9
				c-0.2-3.5,1.5-7.2,4.7-8.7c3.1-1.5,7.5-0.1,8.7,3.2c1.2,3.6-1.6,7.6,0.3,11c0.6,1.1,2,2.7,3,3.3c1.8,1.1,4.3-0.2,6.3-0.1
				c0.5,0,0.9,0.1,1.3,0.4c0.2,0.2,0.3,0.6,0.4,0.9c0.5,2.5-0.4,5.2-2.3,6.9c-2.1,1.9-5.8,2.9-6.7,5.9c-0.6,1.9-0.3,6.6,2.7,6.1
				c1.1-0.2,1.9-1.3,2.9-1.6c1.3-0.4,2.9,0.4,3.4,1.7c0.6,1.3,0.4,2.8-0.1,4.1c-0.8,2.1-2.4,3.7-3.9,5.3
				C344.7,142.1,342.6,145.3,338.4,147.3z"/>
		</g>
		<line class="st1" x1="334" y1="103.7" x2="334" y2="195"/>
		<polyline class="st1" points="342.4,116.4 334,124.8 325.5,116.4 		"/>
		<polyline class="st1" points="342.4,133.3 334,141.8 325.5,133.3 		"/>
	</g>
</g>
<g>
</g>
<g>
	<g>
		<polygon class="st2" points="111.8,134.6 111.2,139.6 107.8,148.8 110.9,149.8 113.4,140.2 113.7,134.8 		"/>
		
			<linearGradient id="SVGID_1_" gradientUnits="userSpaceOnUse" x1="-39.6958" y1="163.7009" x2="-40.5282" y2="178.209" gradientTransform="matrix(-1 0 0 1 67.987 0)">
			<stop  offset="3.252340e-03" style="stop-color:#241084"/>
			<stop  offset="0.9896" style="stop-color:#0A5DE2"/>
		</linearGradient>
		<polygon class="st3" points="104.4,158.8 106,174.8 105.4,188.8 110.8,188.8 111.1,187.7 107.4,187.3 109.4,174.8 111.1,159.4 		
			"/>
		<polygon class="st4" points="102.6,158.6 101.4,172.2 93.2,183.3 94.2,188.5 96.7,188.5 95.2,187.4 95,184 102.8,175.1 
			109.8,159.1 		"/>
		<polygon class="st5" points="113.7,134.8 113.6,129.7 112.6,129.6 111.8,134.6 		"/>
		<g>
			<path class="st5" d="M104,141.8c-0.4,1.8-0.4,4.6,2.3,5.1c2.7,0.4,4.3-1.3,4.7-3.1c0.4-1.8-0.3-4.2-3.1-4.6
				C106.1,139,104.3,140.3,104,141.8z"/>
			<path class="st6" d="M105.9,146.8c-1.9-0.5-2.7-2.4-2.4-4.3c0.3-2.3,2.6-3.6,4.4-3.2c0.1,0,0.2,0.1,0.3,0.1c0,0.3,0,0.6-0.1,0.8
				c-0.3,0.9-1.1,1.7-2,1.9C106.2,142.1,105.7,146.2,105.9,146.8z"/>
			<path class="st5" d="M105.7,142.4c-0.3,0-0.6,0-0.8,0.2c-0.8,0.4-0.5,1.6,0.2,2c0.2,0.1,0.5,0.2,0.7,0.2c0.2,0,0.5,0,0.6-0.1
				c0.2-0.1,0.3-0.3,0.3-0.5c0-0.2,0-0.4,0-0.6C106.7,143,106.2,142.4,105.7,142.4z"/>
			<path class="st7" d="M108.7,141.3c0.2,0.7,0.8,1.1,1.3,0.9c0.5-0.2,0.7-0.9,0.5-1.6c-0.2-0.7-0.8-1.1-1.3-0.9
				C108.6,139.9,108.4,140.6,108.7,141.3z"/>
		</g>
		<path class="st8" d="M112,129.1c0,0.6,0.5,1.1,1.1,1.1s1.1-0.5,1.1-1.1c0-0.6-0.5-1.1-1.1-1.1S112,128.4,112,129.1z"/>
		<path class="st7" d="M117.3,136.7l-1.7,0.6c-0.7,2-1.8,3.9-3.4,5.4l-3.2,3.2l-3.9,2.7l-2.9,11l9.1,0.9l0.3-12.1l3.4-4.3
			c1.4-1.8,2.3-3.9,2.7-6.1L117.3,136.7z"/>
		<path class="st9" d="M121.7,109.3h-12.7c-2.2,0-3.9,1.8-3.9,4v12.9c0,2.2,1.8,4,3.9,4h12.7c2.2,0,3.9-1.8,3.9-4v-12.9
			C125.6,111.1,123.8,109.3,121.7,109.3z"/>
		<path class="st5" d="M117.7,129.8c0,0.6,0.5,1.1,1.1,1.1c0.6,0,1.1-0.5,1.1-1.1c0-0.6-0.5-1.1-1.1-1.1
			C118.2,128.7,117.7,129.2,117.7,129.8z"/>
		<polygon class="st5" points="115.4,137.9 117.7,138.7 119.5,130.3 118.2,130 		"/>
		<path class="st5" d="M120.3,117.1c0,2.9-5.2,10.7-5.2,10.7s-5.2-7.8-5.2-10.7c0-2.9,2.3-5.3,5.2-5.3
			C117.9,111.8,120.3,114.2,120.3,117.1z"/>
		<path class="st7" d="M117.6,116.7c0,1.4-1.1,2.5-2.5,2.5s-2.5-1.1-2.5-2.5c0-1.4,1.1-2.5,2.5-2.5S117.6,115.3,117.6,116.7z"/>
		<line class="st10" x1="88.8" y1="188.7" x2="129.3" y2="188.7"/>
	</g>
	<g>
		<path class="st11" d="M215.5,33.4h-44.7c-2.5,0-4.6,2.1-4.6,4.6v108.7c0,2.6,2,4.6,4.6,4.6h44.7c2.5,0,4.6-2.1,4.6-4.6V38
			C220,35.5,218,33.4,215.5,33.4z"/>
		<path class="st6" d="M215.5,33.4h-44.7c-2.5,0-4.6,2.1-4.6,4.6v4.7H220V38C220,35.5,218,33.4,215.5,33.4z"/>
		<path class="st6" d="M166.2,140.8v5.9c0,2.6,2,4.6,4.6,4.6h44.7c2.5,0,4.6-2.1,4.6-4.6v-5.9H166.2z"/>
		<path class="st5" d="M211.6,45.9h-12.7c-2.2,0-3.9,1.8-3.9,4v12.9c0,2.2,1.8,4,3.9,4h12.7c2.2,0,3.9-1.8,3.9-4V50
			C215.5,47.7,213.7,45.9,211.6,45.9z"/>
		<path class="st12" d="M211.6,109.5h-12.7c-2.2,0-3.9,1.8-3.9,4v12.9c0,2.2,1.8,4,3.9,4h12.7c2.2,0,3.9-1.8,3.9-4v-12.9
			C215.5,111.3,213.7,109.5,211.6,109.5z"/>
		<path class="st5" d="M187.2,109.5h-12.7c-2.2,0-3.9,1.8-3.9,4v12.9c0,2.2,1.8,4,3.9,4h12.7c2.2,0,3.9-1.8,3.9-4v-12.9
			C191.2,111.3,189.4,109.5,187.2,109.5z"/>
		<line class="st10" x1="166" y1="151.9" x2="224" y2="151.9"/>
	</g>
	<g>
		<g>
			<g>
				<polygon class="st6" points="240.3,154.2 233.2,111 233.7,110.9 240.8,154.1 				"/>
			</g>
			<g>
				<polygon class="st6" points="227.3,154.2 220.2,111 220.7,110.9 227.8,154.1 				"/>
			</g>
			<g>
				<rect x="222" y="119.9" class="st6" width="13.1" height="0.5"/>
			</g>
			<g>
				<rect x="222.9" y="125.6" class="st6" width="13.1" height="0.5"/>
			</g>
			<g>
				<rect x="223.8" y="131.4" class="st6" width="13.1" height="0.5"/>
			</g>
			<g>
				<rect x="224.8" y="137.2" class="st6" width="13.1" height="0.5"/>
			</g>
			<g>
				<rect x="225.7" y="142.9" class="st6" width="13.1" height="0.5"/>
			</g>
			<g>
				<rect x="226.6" y="148.7" class="st6" width="13.1" height="0.5"/>
			</g>
		</g>
		<g>
			<g>
				<polygon class="st4" points="213.3,154.2 212.8,154.1 219.8,110.9 220.4,111 				"/>
			</g>
			<g>
				<polygon class="st4" points="226.3,154.2 225.7,154.1 232.8,110.9 233.3,111 				"/>
			</g>
			<g>
				<rect x="218.5" y="119.9" class="st4" width="13.1" height="0.5"/>
			</g>
			<g>
				<rect x="217.6" y="125.6" class="st4" width="13.1" height="0.5"/>
			</g>
			<g>
				<rect x="216.6" y="131.4" class="st4" width="13.1" height="0.5"/>
			</g>
			<g>
				<rect x="215.7" y="137.2" class="st4" width="13.1" height="0.5"/>
			</g>
			<g>
				<rect x="214.8" y="142.9" class="st4" width="13.1" height="0.5"/>
			</g>
			<g>
				<rect x="213.8" y="148.7" class="st4" width="13.1" height="0.5"/>
			</g>
		</g>
		<g>
			<rect x="219" y="110.3" class="st13" width="16" height="1.6"/>
		</g>
	</g>
	<g>
		<polygon class="st7" points="248.9,103 247.4,86.6 245.4,69.1 246.9,68.9 250.5,85.5 256.1,85.9 261.9,69.1 263.4,69.4 
			259.2,87.3 259.4,102.5 		"/>
		<path class="st5" d="M250.9,80.6c-0.4,1.6,0.2,4.1,1.8,4.5c1.5,0.4,3.4-1.4,3.8-3c0.4-1.6-0.5-3.2-2-3.6
			C252.9,78.2,251.3,79.1,250.9,80.6z"/>
		<path class="st14" d="M253,79.7c-0.3-0.1-0.8-0.3-0.9-0.6c0,0,0-0.1,0-0.1c0.7-0.5,1.6-0.7,2.4-0.5c1.5,0.4,2.4,2,2,3.6
			c-0.3,1.1-1.3,2.4-2.4,2.8c0-0.3,0.1-0.6,0.2-0.9c0.3-1.2,0.7-2.5,1.1-3.7C254.5,80.2,253.7,80,253,79.7z"/>
		<path class="st5" d="M254.8,82.1c0.2-0.2,0.5-0.2,0.7-0.1c0.1,0,0.1,0.1,0.1,0.1c0.1,0.1,0.1,0.3,0.1,0.5c0,0.5-0.4,0.8-0.8,1
			c-0.1,0-0.3,0.1-0.4,0c-0.1,0-0.2-0.1-0.3-0.2C254,83,254.5,82.4,254.8,82.1z"/>
		<polygon class="st4" points="259.4,102.5 257.9,127.6 256.2,127.6 254.7,102.7 253.2,102.8 252.3,128.2 251,128.2 248.9,103 
			248.6,99.9 259.4,100 		"/>
		<polygon class="st4" points="257.9,127.6 261.6,128 261.5,128.6 256,128.6 256.2,127.6 		"/>
		<polygon class="st4" points="252.3,128.2 252.3,128.9 247.1,129.1 247.1,128.5 251,128.2 		"/>
		<path class="st14" d="M253.7,82.8c-0.9,0.1-1.7-0.9-2.6-1c-0.1,0-0.1,0-0.2,0c-0.1,0-0.1,0.1-0.1,0.2c-0.1,0.2-0.2,0.5-0.4,0.7
			c-0.1,0.2-0.2,0.5-0.3,0.7c-0.1,0.3,0,0.6,0,1c0,0.3,0.1,0.5,0.2,0.7c0.2,0.4,0.6,0.7,1,0.9c0.4,0.2,0.9,0.2,1.3,0.1
			c0.3,0,0.6-0.1,0.9-0.2c0.6-0.3,1-1,0.9-1.7c0-0.2-0.1-0.3-0.1-0.5c0-0.2,0.1-0.3,0.2-0.5c0.1-0.2,0.7-1,0.2-1
			c-0.1,0-0.4,0.3-0.5,0.3C254.1,82.7,253.9,82.7,253.7,82.8z"/>
		<g class="st15">
			<polygon class="st12" points="259.9,74.9 262.1,74.9 263.4,69.4 261.9,69.1 			"/>
			<polygon class="st12" points="246.9,68.9 245.4,69.1 246,74.9 248.2,74.9 			"/>
		</g>
		<path class="st4" d="M285.1,51.2h-52c-2.6,0-4.6,2.1-4.6,4.7v7.9c0,2.6,2.1,4.7,4.6,4.7h52c2.6,0,4.6-2.1,4.6-4.7v-7.9
			C289.7,53.3,287.6,51.2,285.1,51.2z"/>
		<path class="st16" d="M283.6,51.2h-52c-2.6,0-4.6,2.1-4.6,4.7v7.9c0,2.6,2.1,4.7,4.6,4.7h52c2.6,0,4.6-2.1,4.6-4.7v-7.9
			C288.2,53.3,286.1,51.2,283.6,51.2z"/>
		<path class="st12" d="M284.3,64.5l-2.5-2.6c0.6-0.8,1-1.8,1-2.8c0-2.4-1.9-4.3-4.2-4.3c-2.3,0-4.2,1.9-4.2,4.3
			c0,2.4,1.9,4.3,4.2,4.3c0.9,0,1.7-0.3,2.4-0.8l2.5,2.7c0.1,0.1,0.2,0.2,0.4,0.2c0.1,0,0.3-0.1,0.4-0.2
			C284.5,65.1,284.5,64.8,284.3,64.5L284.3,64.5z M278.6,55.9c1.7,0,3.1,1.4,3.1,3.2c0,1.8-1.4,3.2-3.1,3.2c-1.7,0-3.1-1.4-3.1-3.2
			C275.4,57.4,276.8,55.9,278.6,55.9L278.6,55.9z M278.6,55.9"/>
		<line class="st10" x1="232" y1="129.2" x2="287.3" y2="129.2"/>
		<path class="st5" d="M247.3,68.2c0,0.8-0.6,1.4-1.3,1.4c-0.7,0-1.3-0.6-1.3-1.4s0.6-1.4,1.3-1.4C246.7,66.9,247.3,67.5,247.3,68.2
			z"/>
		<path class="st5" d="M263.5,68.6c0,0.8-0.6,1.4-1.3,1.4c-0.7,0-1.3-0.6-1.3-1.4c0-0.8,0.6-1.4,1.3-1.4
			C262.9,67.3,263.5,67.9,263.5,68.6z"/>
	</g>
	<g>
		<path class="st12" d="M198.2,72.6c0.3,0.8-0.1,1.6-0.8,1.9s-1.6-0.1-1.9-0.9c-0.3-0.8,0.1-1.6,0.8-1.9
			C197,71.5,197.9,71.9,198.2,72.6z"/>
		<path class="st4" d="M193.7,66.1l-12.5-2.2c-2.1-0.4-4.2,1.1-4.6,3.3l-2.2,12.8c-0.4,2.2,1.1,4.3,3.2,4.6l12.5,2.2
			c2.1,0.4,4.2-1.1,4.6-3.3l2.2-12.8C197.3,68.6,195.9,66.5,193.7,66.1z"/>
		<g>
			<path class="st4" d="M133,138.5h9.2c0.2,0,0.4-0.1,0.5-0.3s0-0.4-0.1-0.6l-8.9-9.7l-0.8,0.7l8,8.8h-8V138.5z"/>
		</g>
		<g>
			<polygon class="st17" points="197.8,72.8 201.8,74.4 213.3,75.5 209.4,78.2 201.4,76.3 197.2,74.3 			"/>
			<path class="st12" d="M211.7,71c0.6,1.7-0.2,3.6-1.9,4.2c-1.7,0.6-3.5-0.2-4.2-1.9c-0.6-1.7,0.2-3.6,1.9-4.2
				C209.2,68.5,211.1,69.3,211.7,71z"/>
			<linearGradient id="SVGID_2_" gradientUnits="userSpaceOnUse" x1="221.412" y1="92.0325" x2="219.0486" y2="106.5768">
				<stop  offset="3.252340e-03" style="stop-color:#241084"/>
				<stop  offset="0.9896" style="stop-color:#0A5DE2"/>
			</linearGradient>
			<polygon class="st18" points="223.8,84.6 222.5,98.2 222.9,110.3 218.4,110.3 218.1,109.4 221.2,108.9 219.6,98.3 218.1,85.1 			
				"/>
			<path class="st5" d="M196,74.2c1.7,0.7,7.3,2.2,9.2,2.1l3.8-0.3l3.9-1.1l8.6,4.3l-4.6,6.5l-7.9-6.6l-4.6-0.2
				c-1.9-0.1-7.3-2.2-9-3.2L196,74.2z"/>
			<path class="st6" d="M212.2,70.2c-0.7-1.5-3.4-1.9-4.9-1.2c-0.1,0-0.2,0.1-0.3,0.2c0,0.3,0.1,0.5,0.2,0.7
				c0.5,0.7,1.3,1.2,2.1,1.3c0,0,0.1,0.2,0.2,0.4c0.1-0.1,0.2-0.2,0.3-0.3c0.2-0.1,0.5-0.1,0.7,0c0.8,0.2,0.8,1.3,0.2,1.8
				c-0.2,0.2-0.4,0.3-0.6,0.3c0,0-0.1,0-0.1,0c-0.1,1.1,0,1.2,0.2,1.5C211.7,74,213.1,72.2,212.2,70.2z"/>
			<polygon class="st4" points="237.9,82.8 230.2,86.2 221.3,79.2 216.7,85.6 230.2,89.8 238.1,84.4 239.8,86.3 240.4,85.7 			"/>
			<path class="st12" d="M196.5,74.2c0.3,0.8-0.1,1.6-0.8,1.9c-0.8,0.3-1.6-0.1-1.9-0.9c-0.3-0.8,0.1-1.6,0.8-1.9
				C195.3,73,196.2,73.4,196.5,74.2z"/>
		</g>
		<g>
			<path class="st4" d="M132.6,36.4H143v106.4h-10.4V36.4z M141.9,37.5h-8.3v104.3h8.3V37.5z"/>
		</g>
		
			<rect x="131.1" y="137.1" transform="matrix(-1 -1.224647e-16 1.224647e-16 -1 275.5474 283.9325)" class="st7" width="13.3" height="9.7"/>
		<g>
			<path class="st4" d="M133,98.5h9.2c0.2,0,0.4-0.1,0.5-0.3s0-0.4-0.1-0.6l-8.9-9.7l-0.8,0.7l8,8.8h-8V98.5z"/>
		</g>
		<g>
			<path class="st4" d="M133,108.5h9.2c0.2,0,0.4-0.1,0.5-0.3s0-0.4-0.1-0.6l-8.9-9.7l-0.8,0.7l8,8.8h-8V108.5z"/>
		</g>
		<g>
			<path class="st4" d="M133,118.5h9.2c0.2,0,0.4-0.1,0.5-0.3s0-0.4-0.1-0.6l-8.9-9.7l-0.8,0.7l8,8.8h-8V118.5z"/>
		</g>
		<g>
			<path class="st4" d="M133,128.5h9.2c0.2,0,0.4-0.1,0.5-0.3c0.1-0.2,0-0.4-0.1-0.6l-8.9-9.7l-0.8,0.7l8,8.8h-8V128.5z"/>
		</g>
		<g>
			<path class="st4" d="M133,88.7h9.2c0.2,0,0.4-0.1,0.5-0.3s0-0.4-0.1-0.6l-8.9-9.7l-0.8,0.7l8,8.8h-8V88.7z"/>
		</g>
		<g>
			<path class="st4" d="M133,78.9h9.2c0.2,0,0.4-0.1,0.5-0.3c0.1-0.2,0-0.4-0.1-0.6l-8.9-9.7L133,69l8,8.8h-8V78.9z"/>
		</g>
		<g>
			<path class="st4" d="M133,69.2h9.2c0.2,0,0.4-0.1,0.5-0.3c0.1-0.2,0-0.4-0.1-0.6l-8.9-9.7l-0.8,0.7l8,8.8h-8V69.2z"/>
		</g>
		<g>
			<path class="st4" d="M133,59.4h9.2c0.2,0,0.4-0.1,0.5-0.3c0.1-0.2,0-0.4-0.1-0.6l-8.9-9.7l-0.8,0.7l8,8.8h-8V59.4z"/>
		</g>
		<g>
			<path class="st4" d="M133,49.6h9.2c0.2,0,0.4-0.1,0.5-0.3c0.1-0.2,0-0.4-0.1-0.6l-8.9-9.7l-0.8,0.7l8,8.8h-8V49.6z"/>
		</g>
		<g>
			<path class="st4" d="M133,39.9h9.2c0.2,0,0.4-0.1,0.5-0.3s0-0.4-0.1-0.6l-8.9-9.7L133,30l8,8.8h-8V39.9z"/>
		</g>
		
			<rect x="132.6" y="25.6" transform="matrix(-1 -1.224647e-16 1.224647e-16 -1 282.0481 65.694)" class="st6" width="16.9" height="14.5"/>
		
			<rect x="107.2" y="25.6" transform="matrix(-1 -1.224647e-16 1.224647e-16 -1 231.3296 59.5356)" class="st6" width="16.9" height="8.3"/>
		<g>
			<path class="st4" d="M107.5,26.7h83.3c0.3,0,0.5-0.2,0.5-0.5c0-0.3-0.2-0.5-0.5-0.5h-83.3c-0.3,0-0.5,0.2-0.5,0.5
				C107,26.4,107.2,26.7,107.5,26.7z"/>
		</g>
		<g>
			<rect x="186.5" y="28.7" class="st4" width="0.5" height="35.2"/>
		</g>
		<path class="st19" d="M137.3,25.8"/>
		
			<rect x="126.6" y="145.1" transform="matrix(-1 -1.224647e-16 1.224647e-16 -1 275.5473 294.3941)" class="st4" width="22.3" height="4.3"/>
		<g>
			<path class="st4" d="M141,26.5c0.1,0,0.1,0,0.2-0.1l4.4-4.5h40.7l4.2,4.2c0.1,0.1,0.3,0.1,0.4,0c0.1-0.1,0.1-0.3,0-0.4l-4.3-4.4
				h-41.2l-4.6,4.7c-0.1,0.1-0.1,0.3,0,0.4C140.8,26.5,140.9,26.5,141,26.5z"/>
		</g>
		<g>
			<path class="st4" d="M107.2,26.5c0.1,0,0.2-0.1,0.2-0.1l4.4-8.6h10.8l4.2,8.4c0.1,0.1,0.2,0.2,0.4,0.1c0.1-0.1,0.2-0.2,0.1-0.4
				l-4.3-8.7h-11.4l-4.6,8.9c-0.1,0.1,0,0.3,0.1,0.4C107.1,26.5,107.1,26.5,107.2,26.5z"/>
		</g>
		<path class="st7" d="M184.8,28.7c0,1.1,0.9,2,2,2c1.1,0,2-0.9,2-2c0-1.1-0.9-2-2-2C185.6,26.7,184.8,27.6,184.8,28.7z"/>
		<g>
			<path class="st4" d="M175.2,21.9c0.1,0,0.2-0.1,0.3-0.2c0-0.1,0-0.3-0.2-0.3L135.9,9.2c-0.1,0-0.1,0-0.2,0l-18.7,8
				c-0.1,0.1-0.2,0.2-0.1,0.4c0.1,0.1,0.2,0.2,0.3,0.1l18.6-8L175.2,21.9C175.1,21.9,175.2,21.9,175.2,21.9z"/>
		</g>
		<g>
			<path class="st4" d="M142,26.6c0.1,0,0.1,0,0.2,0c0.3-0.1,0.4-0.4,0.3-0.7l-6.2-16.6c-0.1-0.2-0.3-0.4-0.5-0.3
				c-0.2,0-0.4,0.2-0.5,0.4l-3.2,16.2c-0.1,0.3,0.1,0.6,0.4,0.6c0.3,0.1,0.6-0.1,0.6-0.4l2.8-14.4l5.5,14.8
				C141.6,26.4,141.8,26.6,142,26.6z"/>
		</g>
		<path class="st20" d="M134.7,9.4c0,0.6,0.5,1.1,1.1,1.1c0.6,0,1.1-0.5,1.1-1.1c0-0.6-0.5-1.1-1.1-1.1
			C135.2,8.3,134.7,8.8,134.7,9.4z"/>
		<g>
			<path class="st4" d="M180.8,26.6c0.1,0,0.1,0,0.2-0.1l5.2-4.3v4c0,0.1,0.1,0.3,0.3,0.3c0.1,0,0.3-0.1,0.3-0.3v-4.6
				c0-0.1-0.1-0.2-0.2-0.2c-0.1,0-0.2,0-0.3,0l-5.7,4.7c-0.1,0.1-0.1,0.3,0,0.4C180.6,26.5,180.7,26.6,180.8,26.6z"/>
		</g>
		<g>
			<path class="st4" d="M175.7,26.6c0.1,0,0.1,0,0.2-0.1l5.2-4.3v4c0,0.1,0.1,0.3,0.3,0.3c0.1,0,0.3-0.1,0.3-0.3v-4.6
				c0-0.1-0.1-0.2-0.2-0.2c-0.1,0-0.2,0-0.3,0l-5.7,4.7c-0.1,0.1-0.1,0.3,0,0.4C175.6,26.5,175.7,26.6,175.7,26.6z"/>
		</g>
		<g>
			<path class="st4" d="M170.7,26.6c0.1,0,0.1,0,0.2-0.1l5.2-4.3v4c0,0.1,0.1,0.3,0.3,0.3c0.1,0,0.3-0.1,0.3-0.3v-4.6
				c0-0.1-0.1-0.2-0.2-0.2c-0.1,0-0.2,0-0.3,0l-5.7,4.7c-0.1,0.1-0.1,0.3,0,0.4C170.5,26.5,170.6,26.6,170.7,26.6z"/>
		</g>
		<g>
			<path class="st4" d="M165.6,26.6c0.1,0,0.1,0,0.2-0.1l5.2-4.3v4c0,0.1,0.1,0.3,0.3,0.3c0.1,0,0.3-0.1,0.3-0.3v-4.6
				c0-0.1-0.1-0.2-0.2-0.2c-0.1,0-0.2,0-0.3,0l-5.7,4.7c-0.1,0.1-0.1,0.3,0,0.4C165.5,26.5,165.6,26.6,165.6,26.6z"/>
		</g>
		<g>
			<path class="st4" d="M160.6,26.6c0.1,0,0.1,0,0.2-0.1l5.2-4.3v4c0,0.1,0.1,0.3,0.3,0.3s0.3-0.1,0.3-0.3v-4.6
				c0-0.1-0.1-0.2-0.2-0.2c-0.1,0-0.2,0-0.3,0l-5.7,4.7c-0.1,0.1-0.1,0.3,0,0.4C160.4,26.5,160.5,26.6,160.6,26.6z"/>
		</g>
		<g>
			<path class="st4" d="M155.5,26.6c0.1,0,0.1,0,0.2-0.1l5.2-4.3v4c0,0.1,0.1,0.3,0.3,0.3s0.3-0.1,0.3-0.3v-4.6
				c0-0.1-0.1-0.2-0.2-0.2c-0.1,0-0.2,0-0.3,0l-5.7,4.7c-0.1,0.1-0.1,0.3,0,0.4C155.4,26.5,155.5,26.6,155.5,26.6z"/>
		</g>
		<g>
			<path class="st4" d="M150.5,26.6c0.1,0,0.1,0,0.2-0.1l5.2-4.3v4c0,0.1,0.1,0.3,0.3,0.3s0.3-0.1,0.3-0.3v-4.6
				c0-0.1-0.1-0.2-0.2-0.2c-0.1,0-0.2,0-0.3,0l-5.7,4.7c-0.1,0.1-0.1,0.3,0,0.4C150.3,26.5,150.4,26.6,150.5,26.6z"/>
		</g>
		<g>
			<path class="st4" d="M145.4,26.6c0.1,0,0.1,0,0.2-0.1l5.2-4.3v4c0,0.1,0.1,0.3,0.3,0.3c0.1,0,0.3-0.1,0.3-0.3v-4.6
				c0-0.1-0.1-0.2-0.2-0.2c-0.1,0-0.2,0-0.3,0l-5.7,4.7c-0.1,0.1-0.1,0.3,0,0.4C145.3,26.5,145.4,26.6,145.4,26.6z"/>
		</g>
		<g>
			<path class="st4" d="M115.6,26.6c0.1,0,0.2,0,0.2-0.1l6.8-8.1v7.9c0,0.1,0.1,0.3,0.3,0.3c0.1,0,0.3-0.1,0.3-0.3v-8.6
				c0-0.1-0.1-0.2-0.2-0.3c-0.1,0-0.2,0-0.3,0.1l-7.3,8.7c-0.1,0.1-0.1,0.3,0,0.4C115.4,26.6,115.5,26.6,115.6,26.6z"/>
		</g>
		<g>
			<path class="st4" d="M110.3,26.6c0.1,0,0.2,0,0.2-0.1l5.2-8v7.7c0,0.1,0.1,0.3,0.3,0.3c0.1,0,0.3-0.1,0.3-0.3v-8.6
				c0-0.1-0.1-0.2-0.2-0.3c-0.1,0-0.2,0-0.3,0.1l-5.7,8.7c-0.1,0.1,0,0.3,0.1,0.4C110.2,26.6,110.3,26.6,110.3,26.6z"/>
		</g>
		<path class="st6" d="M185,64.5c0,0.9,0.7,1.7,1.7,1.7c0.9,0,1.7-0.8,1.7-1.7c0-0.9-0.7-1.7-1.7-1.7C185.8,62.8,185,63.6,185,64.5z
			"/>
		<line class="st10" x1="117" y1="149.7" x2="157.5" y2="149.7"/>
	</g>
	<g>
		<polygon class="st5" points="285.3,167.2 284.7,158.7 285.7,152.5 288.8,134.1 287.3,133.9 283.8,150.1 278.4,150.5 272.7,134.1 
			271.1,134.3 275.3,151.9 276.7,158.6 276.6,166.8 		"/>
		<polygon class="st6" points="277.8,144.5 277.3,149.4 280.5,149.7 282.5,144.5 		"/>
		<path class="st7" d="M283.8,146.3c0,1.8-1.5,3.3-3.3,3.3c-1.8,0-3.3-1.5-3.3-3.3c0-1.8,1.5-3.3,3.3-3.3
			C282.3,143,283.8,144.5,283.8,146.3z"/>
		<path class="st13" d="M286.6,113.6h-12.7c-2.2,0-3.9,1.8-3.9,4v12.9c0,2.2,1.8,4,3.9,4h12.7c2.2,0,3.9-1.8,3.9-4v-12.9
			C290.5,115.4,288.8,113.6,286.6,113.6z"/>
		<path class="st6" d="M281.7,146.1c0.1,0,0.1,0.1,0.2,0c0.1,0,0.1-0.1,0.1-0.2c0.2-0.2,0.5-0.2,0.7,0c0.2,0.2,0.2,0.5,0.1,0.8
			c-0.1,0.2-0.4,0.4-0.7,0.4c-0.2,0.7-0.3,1.4-0.2,2c0.5,0,0.9,0.1,1.4,0.1c0.1,0,0.2,0,0.3,0c0.1-0.1,0.1-0.1,0.1-0.2
			c0.2-0.8,0.3-1.6,0.3-2.4c0-0.8-0.1-1.6-0.5-2.3c-0.5-0.8-2.4-2.1-3.4-1.4C279,143.8,281,145.7,281.7,146.1z"/>
		<path class="st6" d="M279,145c-0.6,0.6-1.3,1-2.1,1c0-0.9,0.3-1.8,1-2.3c0.4-0.3,1.6-1,2.1-0.7C280.6,143.3,279.4,144.6,279,145z"
			/>
		<polygon class="st13" points="285,161.2 276.7,160.8 270.2,190.1 267.3,188.3 270.9,192.7 279.4,168.6 279.3,179.6 285.1,187.4 
			285.5,190.2 285.6,191.4 286.7,191.3 286.9,187 282.4,179.5 285.5,167.2 		"/>
		<polygon class="st7" points="285.6,142 287.4,142.7 288.8,134.1 287.3,133.9 		"/>
		<polygon class="st7" points="275,140.9 272.9,141.7 271.1,134.3 272.7,134.1 		"/>
		<polygon class="st7" points="282.1,150.2 280.5,153.1 279.7,150.4 		"/>
		<path class="st7" d="M270.5,133.2c0,0.7,0.6,1.3,1.3,1.3s1.3-0.6,1.3-1.3c0-0.7-0.6-1.3-1.3-1.3S270.5,132.5,270.5,133.2z"/>
		<path class="st7" d="M286.9,133.5c0,0.7,0.6,1.3,1.3,1.3s1.3-0.6,1.3-1.3c0-0.7-0.6-1.3-1.3-1.3S286.9,132.7,286.9,133.5z"/>
		<linearGradient id="SVGID_3_" gradientUnits="userSpaceOnUse" x1="277.7604" y1="165.8213" x2="273.1165" y2="177.431">
			<stop  offset="0" style="stop-color:#241084;stop-opacity:0.8"/>
			<stop  offset="0.9896" style="stop-color:#0A5DE2;stop-opacity:0"/>
		</linearGradient>
		<path class="st21" d="M277.1,175.2l2-5.7l0.2-1.8l-2.6-6.9l-2.8,12.7C275.1,174.2,276.2,174.8,277.1,175.2z"/>
		<g>
			<g>
				<path class="st7" d="M282.9,120.5c0,1.5-1.2,2.7-2.7,2.7s-2.7-1.2-2.7-2.7c0-1.5,1.2-2.7,2.7-2.7S282.9,119,282.9,120.5z"/>
				<path class="st7" d="M285.5,128.8c0-2.9-2.3-5.2-5.2-5.2c-2.8,0-5.1,2.3-5.2,5.2H285.5z"/>
			</g>
		</g>
		<line class="st10" x1="259.7" y1="192.2" x2="300.1" y2="192.2"/>
	</g>
	<line class="st10" x1="205.4" y1="154.1" x2="245.9" y2="154.1"/>
	<g>
		<path class="st13" d="M163.7,87.1H151c-2.2,0-3.9,1.8-3.9,4V104c0,2.2,1.8,4,3.9,4h12.7c2.2,0,3.9-1.8,3.9-4V91.1
			C167.6,88.9,165.9,87.1,163.7,87.1z"/>
		<polygon class="st7" points="152,142 150.4,125.8 148.4,108.5 150,108.2 153.5,124.7 159,125.1 164.8,108.5 166.4,108.7 
			162.2,126.5 162.4,141.6 		"/>
		<path class="st5" d="M150.8,107.5c0,0.7-0.6,1.4-1.3,1.4c-0.7,0-1.3-0.6-1.3-1.4c0-0.7,0.6-1.4,1.3-1.4
			C150.3,106.2,150.8,106.8,150.8,107.5z"/>
		<path class="st5" d="M166.4,108c0,0.7-0.6,1.4-1.3,1.4c-0.7,0-1.3-0.6-1.3-1.4s0.6-1.4,1.3-1.4C165.8,106.6,166.4,107.3,166.4,108
			z"/>
		<path class="st5" d="M159.8,119.8c0,1.9-1.5,3.4-3.4,3.4c-1.9,0-3.4-1.5-3.4-3.4c0-1.9,1.5-3.4,3.4-3.4
			C158.3,116.3,159.8,117.9,159.8,119.8z"/>
		<path class="st6" d="M159.8,120.3c0,1.9-1.5,3.4-3.4,3.4c-1.9,0-3.4-1.5-3.4-3.4c0-1.9,1.5-3.4,3.4-3.4
			C158.3,116.9,159.8,118.4,159.8,120.3z"/>
		<polygon class="st4" points="162.4,141.6 160.8,166.5 159.1,166.5 157.7,141.8 156.2,141.9 155.3,167.1 154,167.1 152,142 
			151.7,139 162.3,139.1 		"/>
		<polygon class="st4" points="160.8,166.5 164.6,166.9 164.4,167.5 159,167.5 159.1,166.5 		"/>
		<polygon class="st4" points="155.3,167.1 155.3,167.8 150.2,168 150.2,167.4 154,167.1 		"/>
		<line class="st10" x1="144.2" y1="167.9" x2="174" y2="167.9"/>
	</g>
	<g>
		<path class="st22" d="M202.4,173.8c0,0,0,0.1,0,0.1c0,0,0,0,0,0c0,0,0,0.1,0,0.1c0,0,0,0,0,0c0,0,0,0.1-0.1,0.1c0,0,0,0,0,0
			c0,0-0.1,0.1-0.1,0.1c0,0,0,0,0,0c0,0-0.1,0.1-0.1,0.1c0,0,0,0,0,0c0,0-0.1,0.1-0.1,0.1c0,0,0,0-0.1,0c-0.1,0-0.1,0.1-0.2,0.1
			c0,0,0,0-0.1,0c-0.1,0-0.2,0.1-0.3,0.1l-9.1,3.2c-0.1,0-0.2,0.1-0.3,0.1c-0.1,0-0.3,0.1-0.4,0.1c-0.2,0-0.4,0.1-0.5,0.1
			c-0.1,0-0.2,0-0.3,0c-0.1,0-0.3,0-0.4,0c0,0-0.1,0-0.1,0c-0.2,0-0.5,0-0.7,0c0,0,0,0,0,0c-0.2,0-0.5,0-0.7,0c0,0,0,0,0,0
			c-0.2,0-0.5,0-0.7-0.1c0,0,0,0,0,0c-0.2,0-0.4-0.1-0.7-0.1c0,0,0,0,0,0c-0.2,0-0.4-0.1-0.6-0.2l-8.9-3.1c-0.1,0-0.1,0-0.1-0.1
			c0,0-0.1,0-0.1,0c0,0-0.1,0-0.1-0.1c0,0-0.1,0-0.1-0.1c0,0-0.1,0-0.1-0.1c0,0-0.1,0-0.1-0.1c0,0,0,0-0.1-0.1c0,0-0.1,0-0.1-0.1
			c0,0,0,0-0.1-0.1c0,0,0,0-0.1-0.1c0,0,0-0.1-0.1-0.1c0,0,0,0,0,0c0,0,0,0,0-0.1c0-0.1,0-0.1,0-0.2l0,4.1c0,0.1,0,0.1,0,0.2
			c0,0,0,0,0,0.1c0,0,0,0,0,0c0,0,0,0.1,0.1,0.1c0,0,0,0,0.1,0.1c0,0,0,0,0.1,0.1c0,0,0,0,0.1,0c0,0,0.1,0.1,0.1,0.1
			c0,0,0.1,0,0.1,0c0,0,0.1,0,0.1,0.1c0,0,0.1,0,0.1,0c0,0,0.1,0,0.1,0.1c0,0,0.1,0,0.1,0c0.1,0,0.1,0,0.2,0.1c0,0,0,0,0,0l8.9,3.1
			c0.1,0,0.2,0.1,0.3,0.1c0.1,0,0.2,0,0.3,0.1c0,0,0,0,0,0c0,0,0,0,0,0c0.1,0,0.1,0,0.2,0c0.1,0,0.2,0,0.2,0c0.1,0,0.1,0,0.2,0
			c0,0,0,0,0,0c0,0,0,0,0,0c0.1,0,0.2,0,0.2,0c0.1,0,0.2,0,0.2,0c0.1,0,0.1,0,0.2,0c0,0,0,0,0,0c0,0,0,0,0,0c0.1,0,0.2,0,0.2,0
			c0.1,0,0.2,0,0.3,0c0.1,0,0.2,0,0.2,0c0,0,0,0,0,0c0,0,0,0,0,0c0.1,0,0.2,0,0.3,0c0.1,0,0.2,0,0.3,0c0,0,0.1,0,0.1,0
			c0,0,0.1,0,0.1,0c0.1,0,0.1,0,0.2,0c0.1,0,0.2,0,0.3,0c0.1,0,0.2,0,0.3,0c0,0,0.1,0,0.1,0c0.1,0,0.3,0,0.4-0.1c0,0,0,0,0,0
			c0.1,0,0.3-0.1,0.4-0.1c0.1,0,0.1,0,0.2-0.1c0,0,0,0,0.1,0l9.1-3.2c0.1,0,0.2-0.1,0.3-0.1c0,0,0,0,0,0c0,0,0,0,0.1,0
			c0,0,0.1,0,0.1-0.1c0,0,0,0,0,0c0,0,0,0,0.1,0c0,0,0.1,0,0.1,0c0,0,0,0,0.1,0c0,0,0,0,0,0c0,0,0,0,0,0c0,0,0.1-0.1,0.1-0.1
			c0,0,0,0,0,0c0,0,0,0,0,0c0,0,0,0,0.1-0.1c0,0,0,0,0,0c0,0,0,0,0,0c0,0,0,0,0,0c0,0,0-0.1,0.1-0.1c0,0,0,0,0,0c0,0,0,0,0,0
			c0,0,0,0,0-0.1c0,0,0,0,0,0c0,0,0,0,0,0c0,0,0,0,0,0c0,0,0-0.1,0-0.1c0,0,0,0,0,0L202.4,173.8z"/>
		<g>
			<path class="st5" d="M201.3,172.9c1.5,0.5,1.5,1.4,0,2l-9.1,3.2c-1.5,0.5-4,0.6-5.6,0l-8.9-3.1c-1.5-0.5-1.5-1.4,0-2l9.1-3.2
				c1.5-0.5,4-0.6,5.6,0L201.3,172.9z"/>
		</g>
	</g>
	<g>
		<path class="st6" d="M237.6,170.3c0,0,0,0.1,0,0.1c0,0,0,0,0,0c0,0,0,0.1,0,0.1c0,0,0,0,0,0c0,0,0,0.1-0.1,0.1c0,0,0,0,0,0
			c0,0-0.1,0.1-0.1,0.1c0,0,0,0,0,0c0,0-0.1,0.1-0.1,0.1c0,0,0,0,0,0c0,0-0.1,0.1-0.1,0.1c0,0,0,0-0.1,0c-0.1,0-0.1,0.1-0.2,0.1
			c0,0,0,0-0.1,0c-0.1,0-0.2,0.1-0.3,0.1l-9.1,3.2c-0.1,0-0.2,0.1-0.3,0.1c-0.1,0-0.3,0.1-0.4,0.1c-0.2,0-0.4,0.1-0.5,0.1
			c-0.1,0-0.2,0-0.3,0c-0.1,0-0.3,0-0.4,0c0,0-0.1,0-0.1,0c-0.2,0-0.5,0-0.7,0c0,0,0,0,0,0c-0.2,0-0.5,0-0.7,0c0,0,0,0,0,0
			c-0.2,0-0.5,0-0.7-0.1c0,0,0,0,0,0c-0.2,0-0.4-0.1-0.7-0.1c0,0,0,0,0,0c-0.2,0-0.4-0.1-0.6-0.2l-8.9-3.1c-0.1,0-0.1,0-0.1-0.1
			c0,0-0.1,0-0.1,0c0,0-0.1,0-0.1-0.1c0,0-0.1,0-0.1-0.1c0,0-0.1,0-0.1-0.1c0,0-0.1,0-0.1-0.1c0,0,0,0-0.1-0.1c0,0-0.1,0-0.1-0.1
			c0,0,0,0-0.1-0.1c0,0,0,0-0.1-0.1c0,0,0-0.1-0.1-0.1c0,0,0,0,0,0c0,0,0,0,0-0.1c0-0.1,0-0.1,0-0.2l0,4.1c0,0.1,0,0.1,0,0.2
			c0,0,0,0,0,0.1c0,0,0,0,0,0c0,0,0,0.1,0.1,0.1c0,0,0,0,0.1,0.1c0,0,0,0,0.1,0.1c0,0,0,0,0.1,0c0,0,0.1,0.1,0.1,0.1
			c0,0,0.1,0,0.1,0c0,0,0.1,0,0.1,0.1c0,0,0.1,0,0.1,0c0,0,0.1,0,0.1,0.1c0,0,0.1,0,0.1,0c0.1,0,0.1,0,0.2,0.1c0,0,0,0,0,0l8.9,3.1
			c0.1,0,0.2,0.1,0.3,0.1c0.1,0,0.2,0,0.3,0.1c0,0,0,0,0,0c0,0,0,0,0,0c0.1,0,0.1,0,0.2,0c0.1,0,0.2,0,0.2,0c0.1,0,0.1,0,0.2,0
			c0,0,0,0,0,0c0,0,0,0,0,0c0.1,0,0.2,0,0.2,0c0.1,0,0.2,0,0.2,0c0.1,0,0.1,0,0.2,0c0,0,0,0,0,0c0,0,0,0,0,0c0.1,0,0.2,0,0.2,0
			c0.1,0,0.2,0,0.3,0c0.1,0,0.2,0,0.2,0c0,0,0,0,0,0c0,0,0,0,0,0c0.1,0,0.2,0,0.3,0c0.1,0,0.2,0,0.3,0c0,0,0.1,0,0.1,0
			c0,0,0.1,0,0.1,0c0.1,0,0.1,0,0.2,0c0.1,0,0.2,0,0.3,0c0.1,0,0.2,0,0.3,0c0,0,0.1,0,0.1,0c0.1,0,0.3,0,0.4-0.1c0,0,0,0,0,0
			c0.1,0,0.3-0.1,0.4-0.1c0.1,0,0.1,0,0.2-0.1c0,0,0,0,0.1,0l9.1-3.2c0.1,0,0.2-0.1,0.3-0.1c0,0,0,0,0,0c0,0,0,0,0.1,0
			c0,0,0.1,0,0.1-0.1c0,0,0,0,0,0c0,0,0,0,0.1,0c0,0,0.1,0,0.1,0c0,0,0,0,0.1,0c0,0,0,0,0,0c0,0,0,0,0,0c0,0,0.1-0.1,0.1-0.1
			c0,0,0,0,0,0c0,0,0,0,0,0c0,0,0,0,0.1-0.1c0,0,0,0,0,0c0,0,0,0,0,0c0,0,0,0,0,0c0,0,0-0.1,0.1-0.1c0,0,0,0,0,0c0,0,0,0,0,0
			c0,0,0,0,0-0.1c0,0,0,0,0,0c0,0,0,0,0,0c0,0,0,0,0,0c0,0,0-0.1,0-0.1c0,0,0,0,0,0L237.6,170.3z"/>
		<g>
			<path class="st4" d="M236.4,169.4c1.5,0.5,1.5,1.4,0,2l-9.1,3.2c-1.5,0.5-4,0.6-5.6,0l-8.9-3.1c-1.5-0.5-1.5-1.4,0-2l9.1-3.2
				c1.5-0.5,4-0.6,5.6,0L236.4,169.4z"/>
		</g>
	</g>
</g>
<g>
	<g id="buildingSite_334_">
		<g id="buildingSite_404_">
			<path id="buildingSite_408_" class="st23" d="M55.9,166.3L55.9,166.3h2l2.8-8.4c0.2-0.5,0.1-1-0.1-1.5l-3.7-6.5h-0.8l-0.1,7
				c0.1,0.1,0.7,0.3,0.8,0.4c0.5,0.5,0.5,1.4,0,1.9s-1.4,0.5-1.9,0s-0.5-1.4,0-1.9c0.1-0.1,0.5-0.4,0.6-0.4l0.2-6.9h-0.6l-3.8,6.5
				c-0.3,0.5-0.3,1-0.2,1.5l2.7,8.4L55.9,166.3z"/>
			<polygon id="buildingSite_407_" class="st24" points="53.9,166.3 55.9,166.3 55.9,166.3 57.9,166.3 58.8,163.5 53,163.5 			"/>
			<rect id="buildingSite_406_" x="51.5" y="164.8" class="st25" width="8.8" height="15.9"/>
			<rect id="buildingSite_405_" x="55.9" y="164.8" class="st26" width="4.4" height="15.9"/>
		</g>
		<g id="buildingSite_392_">
			<path id="buildingSite_401_" class="st27" d="M72,160.6v3.8c0,0.7,0.6,1.3,1.3,1.3c1.4,0,2.5,1.1,2.5,2.5v10.3
				c0,1.3,1.1,2.4,2.5,2.3c1.2-0.1,2-1.2,2-2.4v-10.1c0-1.4,1.1-2.5,2.5-2.5c0.7,0,1.3-0.6,1.3-1.3v-3.9L72,160.6L72,160.6z
				 M77.2,178.3c0-0.4,0.4-0.8,0.8-0.8s0.8,0.4,0.8,0.8s-0.4,0.8-0.8,0.8S77.2,178.7,77.2,178.3z"/>
			<rect id="buildingSite_400_" x="72" y="148.9" class="st23" width="12" height="8.7"/>
			<rect id="buildingSite_399_" x="72" y="148.9" class="st23" width="4.8" height="8.7"/>
			<rect id="buildingSite_398_" x="72" y="157.1" class="st28" width="12" height="3.5"/>
			<rect id="buildingSite_397_" x="72" y="157.3" class="st29" width="12" height="0.5"/>
			<rect id="buildingSite_396_" x="72" y="158.6" class="st29" width="12" height="0.5"/>
			<rect id="buildingSite_395_" x="72" y="159.8" class="st29" width="12" height="0.5"/>
			<path id="buildingSite_394_" class="st30" d="M78,160.6v16.9c-0.4,0-0.8,0.4-0.8,0.8s0.4,0.8,0.8,0.8v1.6c-1.3,0-2.3-1-2.3-2.3
				v-10.3c0-1.4-1.1-2.5-2.5-2.5c-0.7,0-1.3-0.6-1.3-1.3v-3.7H78z"/>
			<path id="buildingSite_393_" class="st31" d="M76.1,148.9v3.4c0,0.5,0.4,1,1,1l0,0c0.5,0,1-0.4,1-1v-1c0-0.4,0.4-0.8,0.8-0.8l0,0
				c0.4,0,0.8,0.4,0.8,0.8v3.6c0,0.4,0.4,0.8,0.8,0.8l0,0c0.4,0,0.8-0.4,0.8-0.8v-1.7l0,0c0.9,0,1.6-0.7,1.6-1.6v-2.8h-6.8
				C76.1,148.8,76.1,148.9,76.1,148.9z"/>
		</g>
		<path id="buildingSite_391_" class="st32" d="M72,148.9v8.1v0.2v0.3v0.2v0.7v0.5v0.7v0.5v0.3v3.8c0,0.7,0.6,1.3,1.3,1.3
			c0.1,0,0.3,0,0.4,0v-12.9l-1.4-3.6L72,148.9L72,148.9z"/>
		<g id="buildingSite_384_">
			<rect id="buildingSite_390_" x="67.6" y="152.6" class="st23" width="4.9" height="24.4"/>
			<path id="buildingSite_389_" class="st23" d="M72.6,178.2h-4.9v1.4c0,0.6,0.5,1.2,1.2,1.2h2.6c0.6,0,1.2-0.5,1.2-1.2L72.6,178.2
				L72.6,178.2z"/>
			<rect id="buildingSite_388_" x="67.6" y="177" class="st33" width="4.9" height="1.2"/>
			<rect id="buildingSite_387_" x="67.6" y="152.6" class="st34" width="2.5" height="24.4"/>
			<path id="buildingSite_386_" class="st35" d="M69.9,146.9l-2.3,5.7h4.9l-2.3-5.7C70.2,146.7,70,146.7,69.9,146.9z"/>
			<path id="buildingSite_385_" class="st33" d="M70,146.5l-0.6,1.5h1.3l-0.6-1.5C70.1,146.5,70.1,146.5,70,146.5z"/>
		</g>
		<path id="buildingSite_383_" class="st32" d="M58.4,164.8l2.3-6.8c0.2-0.5,0.1-1-0.1-1.5l-3.2-5.7l0,0v1.2v0.4v1.2v0.4v1.2v0.4
			v1.2v0.4v1.2v0.4v1.2v0.4v1.2v0.4v1.2v0.4v1.2v0.4v1.2v0.4v1.2v0.4v1.2v0.4v1.2v0.4v1.2v0.4v1.2v0.4v1.2v0.4v1.2v0.4v1.2v0.4v0.8
			c0,0.6,0.5,1.1,1.1,1.1h1.9v-15.9h-2C58.4,165.6,58.4,164.8,58.4,164.8z"/>
		<g id="buildingSite_359_">
			<path id="buildingSite_382_" class="st31" d="M59.4,145.8h3.9c0.6,0,1,0.5,1,1v32.9c0,0.6-0.5,1-1,1h-3.9c-0.6,0-1-0.5-1-1v-32.9
				C58.4,146.3,58.8,145.8,59.4,145.8z"/>
			<path id="buildingSite_381_" class="st36" d="M59.5,145.8h2.1v34.9h-2.1c-0.6,0-1.1-0.5-1.1-1.1v-32.7
				C58.4,146.3,58.9,145.8,59.5,145.8z"/>
			<rect id="buildingSite_380_" x="58.4" y="178.3" class="st37" width="0.7" height="0.4"/>
			<rect id="buildingSite_379_" x="58.4" y="176.8" class="st37" width="0.7" height="0.4"/>
			<rect id="buildingSite_378_" x="58.4" y="175.2" class="st37" width="0.7" height="0.4"/>
			<rect id="buildingSite_377_" x="58.4" y="173.7" class="st37" width="0.7" height="0.4"/>
			<rect id="buildingSite_376_" x="58.3" y="172.1" class="st37" width="1.5" height="0.4"/>
			<rect id="buildingSite_375_" x="58.4" y="170.6" class="st37" width="0.7" height="0.4"/>
			<rect id="buildingSite_374_" x="58.4" y="169" class="st37" width="0.7" height="0.4"/>
			<rect id="buildingSite_373_" x="58.4" y="167.5" class="st37" width="0.7" height="0.4"/>
			<rect id="buildingSite_372_" x="58.4" y="165.9" class="st37" width="0.7" height="0.4"/>
			<rect id="buildingSite_371_" x="58.3" y="164.4" class="st37" width="1.5" height="0.4"/>
			<rect id="buildingSite_370_" x="58.4" y="162.8" class="st37" width="0.7" height="0.4"/>
			<rect id="buildingSite_369_" x="58.4" y="161.3" class="st37" width="0.7" height="0.4"/>
			<rect id="buildingSite_368_" x="58.4" y="159.7" class="st37" width="0.7" height="0.4"/>
			<rect id="buildingSite_367_" x="58.4" y="158.2" class="st37" width="0.7" height="0.4"/>
			<rect id="buildingSite_366_" x="58.3" y="156.6" class="st37" width="1.5" height="0.4"/>
			<rect id="buildingSite_365_" x="58.4" y="155.1" class="st37" width="0.7" height="0.4"/>
			<rect id="buildingSite_364_" x="58.4" y="153.5" class="st37" width="0.7" height="0.4"/>
			<rect id="buildingSite_363_" x="58.4" y="152" class="st37" width="0.7" height="0.4"/>
			<rect id="buildingSite_362_" x="58.4" y="150.4" class="st37" width="0.7" height="0.4"/>
			<rect id="buildingSite_361_" x="58.3" y="148.9" class="st37" width="1.5" height="0.4"/>
			<rect id="buildingSite_360_" x="58.4" y="147.3" class="st37" width="0.7" height="0.4"/>
		</g>
		<path id="buildingSite_358_" class="st32" d="M63.3,145.8v6.9l0,0h-0.6v2.7v0.3v4.6h0.6v20.4c0.6,0,1-0.5,1-1.1v-32.7
			C64.3,146.3,63.9,145.9,63.3,145.8z"/>
		<g id="buildingSite_349_">
			<rect id="buildingSite_357_" x="64.4" y="160" class="st38" width="2.6" height="20.7"/>
			<rect id="buildingSite_356_" x="65.7" y="160" class="st39" width="1.3" height="20.7"/>
			<rect id="buildingSite_355_" x="63.8" y="155.4" class="st38" width="3.5" height="4.9"/>
			<rect id="buildingSite_354_" x="63.8" y="155.4" class="st40" width="3.5" height="0.3"/>
			<rect id="buildingSite_353_" x="63.8" y="152.7" class="st38" width="3.5" height="2.7"/>
			<polygon id="buildingSite_352_" class="st28" points="67.2,147.1 64.4,144.7 64.4,152.7 67.2,152.7 			"/>
			<polygon id="buildingSite_351_" class="st41" points="64.4,145.6 64.4,152.7 67.2,152.7 67.2,148 			"/>
			<polygon id="buildingSite_350_" class="st42" points="65.8,152.7 67.2,152.7 67.2,148 65.8,146.8 			"/>
		</g>
		<g id="buildingSite_342_" class="st43">
			<path id="buildingSite_348_" class="st32" d="M58.4,180.7h1.1h0.8h1.3h1.6h0.1l0,0c0.3,0,0.5-0.1,0.7-0.3c0,0,0,0,0-0.1
				c0.1-0.1,0.1-0.2,0.2-0.3s0.1-0.3,0.1-0.4v-9.1H51.5v10.2h4.4L58.4,180.7L58.4,180.7z"/>
			<path id="buildingSite_347_" class="st32" d="M67.6,179.4c0,0.7,0.6,1.3,1.3,1.3h2.4c0.7,0,1.3-0.6,1.3-1.3v-1.3v-1.2v-6.5h-4.9
				v6.5v1.2v1.3H67.6z"/>
			<polygon id="buildingSite_346_" class="st32" points="67,180.7 67,170.5 64.4,170.5 64.4,180.7 65.7,180.7 			"/>
			<path id="buildingSite_343_" class="st32" d="M75.7,170.5v8c0,0.2,0,0.3,0.1,0.5c0,0.1,0,0.1,0.1,0.2c0,0.1,0,0.2,0.1,0.2
				c0,0.1,0.1,0.2,0.1,0.2l0.1,0.1c0.1,0.1,0.1,0.2,0.2,0.3c0,0,0,0,0.1,0.1s0.2,0.2,0.3,0.2l0,0c0.4,0.3,0.9,0.4,1.5,0.4
				c1.2-0.1,2-1.2,2-2.4v-7.8H75.7z M78,179.1c-0.4,0-0.8-0.4-0.8-0.8s0.4-0.8,0.8-0.8s0.8,0.4,0.8,0.8S78.5,179.1,78,179.1z"/>
		</g>
		<g id="buildingSite_335_">
			<path id="buildingSite_341_" class="st23" d="M85.2,193H51v-21.4h36.3v19.3C87.3,192,86.4,193,85.2,193z"/>
			<path id="buildingSite_340_" class="st44" d="M49.4,193H51v-21.4h-3.7v19.3C47.3,192,48.2,193,49.4,193z"/>
			<polygon id="buildingSite_339_" class="st24" points="47.3,176.1 49.7,176.1 51,171.6 47.3,172.5 			"/>
			<path id="buildingSite_338_" class="st23" d="M46.7,174.3h2.6c0.2,0,0.4-0.1,0.4-0.3l1.2-2.4h-3.7l-1,2
				C46.1,173.9,46.4,174.3,46.7,174.3z"/>
			<polygon id="buildingSite_337_" class="st24" points="87.3,176.1 87.3,172.5 51,171.6 53,176.1 			"/>
			<path id="buildingSite_336_" class="st23" d="M88.3,174.3H53.2c-0.2,0-0.3-0.1-0.4-0.2l-1.8-2.5h36.3l1.4,1.9
				C89,173.8,88.8,174.3,88.3,174.3z"/>
		</g>
	</g>
	<g id="buildingSite_320_">
		<polygon id="buildingSite_327_" class="st23" points="303.9,181.5 297.5,181 302.6,175 		"/>
		<polygon id="buildingSite_326_" class="st23" points="298.8,187.3 292.4,186.8 297.5,181 		"/>
		<polygon id="buildingSite_325_" class="st23" points="311.3,193 293.6,193 309,175.5 		"/>
		<polygon id="buildingSite_324_" class="st34" points="311.3,193 298.8,187.3 303.9,181.4 		"/>
		<polygon id="buildingSite_323_" class="st34" points="292.4,186.8 293.6,193 298.7,187.3 		"/>
		<polygon id="buildingSite_322_" class="st34" points="297.5,181 298.8,187.3 303.9,181.5 		"/>
		<polygon id="buildingSite_321_" class="st34" points="302.6,175 303.9,181.4 309,175.5 		"/>
	</g>
	<g id="buildingSite_121_">
		<g id="buildingSite_307_">
			<path id="buildingSite_319_" class="st45" d="M249.3,191.3c-3.7,3.1-9.2,2.6-12.2-1.1c-3.1-3.7-2.6-9.2,1.1-12.2
				c3.7-3.1,9.2-2.6,12.2,1.1C253.5,182.8,253,188.3,249.3,191.3z"/>
			<g>
				<path class="st40" d="M246.1,183l-2.8,5.9c0,0.1-0.1,0.1-0.2,0.1c0,0,0,0-0.1,0s-0.2-0.1-0.2-0.3l1-4.1l-2.1,0.5c0,0,0,0-0.1,0
					s-0.1,0-0.2-0.1s-0.1-0.1-0.1-0.2l1-4.2c0-0.1,0.1-0.2,0.2-0.2h1.7c0.1,0,0.2,0.1,0.2,0.2v0.1l-0.9,2.4l2-0.5c0,0,0,0,0.1,0
					s0.1,0,0.2,0.1C246.1,182.8,246.1,182.9,246.1,183z"/>
			</g>
		</g>
		<path id="buildingSite_306_" class="st46" d="M242.6,184.9c0-2.9-1.3-5.4-3.3-7.2c-0.4,0.2-0.8,0.5-1.2,0.8c-2,1.7-3,4-3.1,6.4
			c0.1,1.9,0.7,3.7,2,5.3c0.6,0.8,1.4,1.4,2.2,1.9C241.3,190.4,242.6,187.8,242.6,184.9z"/>
		<g id="buildingSite_150_">
			<path id="buildingSite_305_" class="st31" d="M241.1,183.8c0,5.3-4.3,9.5-9.5,9.5c-5.3,0-9.5-4.3-9.5-9.5c0-5.3,4.3-9.5,9.5-9.5
				S241.1,178.6,241.1,183.8z"/>
			<g>
				<path class="st40" d="M234.1,187.1c0,0.1,0,0.2-0.1,0.2c0,0-0.5,0.2-1.1,0.2c-1.6,0-3-1-3.4-2.5H229c-0.1,0-0.2-0.1-0.2-0.2
					v-0.6c0-0.1,0.1-0.2,0.2-0.2h0.3c0-0.2,0-0.4,0-0.6h-0.4c-0.1,0-0.2-0.1-0.2-0.2v-0.6c0-0.1,0.1-0.2,0.2-0.2h0.5
					c0.5-1.5,1.8-2.4,3.4-2.4c0.5,0,1,0.1,1,0.1s0.1,0,0.1,0.1v0.1l-0.2,0.8c0,0.1-0.1,0.1-0.2,0.1c0,0-0.4-0.1-0.7-0.1
					c-0.9,0-1.6,0.5-2,1.3h2.5c0.1,0,0.1,0,0.1,0.1v0.1l-0.1,0.6c0,0.1-0.1,0.1-0.2,0.1h-2.6c0,0.2,0,0.3,0,0.6h2.4
					c0.1,0,0.1,0,0.1,0.1v0.1l-0.1,0.6c0,0.1-0.1,0.1-0.2,0.1h-2c0.3,0.8,1.1,1.3,2,1.3c0.5,0,0.8-0.1,0.8-0.1h0.1l0.1,0.1
					L234.1,187.1z"/>
			</g>
		</g>
		<path id="buildingSite_149_" class="st46" d="M227.9,176.1c-3.3,1.4-5.7,4.6-5.9,8.4c0.2,3.2,2.1,6,4.7,7.6
			c4-2.9,5.4-8.3,3.3-12.9C229.5,178,228.8,177,227.9,176.1z"/>
		<g id="buildingSite_134_">
			<ellipse id="buildingSite_148_" class="st23" cx="218.9" cy="182.9" rx="10.5" ry="10.5"/>
			<g>
				<path class="st40" d="M225,179v6.9c0,0.5-0.4,0.9-0.9,0.9H215c-0.5,0-0.9-0.4-0.9-0.9V179c0-0.5,0.4-0.9,0.9-0.9h9.1
					C224.5,178.1,225,178.5,225,179z M214.7,179v1.3h9.5V179c0-0.1-0.1-0.2-0.2-0.2h-9.1C214.8,178.8,214.7,178.9,214.7,179z
					 M224.2,186v-3.5h-9.5v3.5c0,0.1,0.1,0.2,0.2,0.2h9.1C224.1,186.2,224.2,186.1,224.2,186z M215.5,184.7h1.5v0.7h-1.5V184.7z
					 M217.7,184.7h2.2v0.7h-2.2V184.7z"/>
			</g>
		</g>
		<path id="buildingSite_133_" class="st46" d="M209.4,187.3c0.7,1.5,1.7,2.7,2.8,3.6c0.6-0.8,1.2-1.8,1.5-2.8
			c1.4-4.1,0.2-8.5-2.9-11.2c-1.5,1.8-2.4,4.1-2.4,6.5C208.5,184.7,208.8,186,209.4,187.3z"/>
		<g id="buildingSite_122_">
			<path id="buildingSite_132_" class="st0" d="M211.7,186.4c-1.9,5.4-7.9,8.3-13.3,6.4c-5.4-1.9-8.3-7.9-6.4-13.3
				c1.9-5.4,7.8-8.3,13.3-6.4C210.8,175.1,213.6,181,211.7,186.4z"/>
			<g>
				<path class="st40" d="M202.2,186.6v0.9c0,0.1-0.1,0.2-0.2,0.2h-0.7c-0.1,0-0.2-0.1-0.2-0.2v-0.9c-1.2-0.2-1.9-0.9-2-1
					s-0.1-0.2,0-0.2l0.6-0.7l0.1-0.1h0.1c0,0,0.8,0.7,1.7,0.7c0.5,0,1.1-0.3,1.1-0.9c0-0.5-0.6-0.8-1.4-1.1c-1-0.4-2.2-0.9-2.2-2.2
					c0-1,0.8-1.8,1.9-2v-1c0-0.1,0.1-0.2,0.2-0.2h0.7c0.1,0,0.2,0.1,0.2,0.2v0.9c1.1,0.1,1.7,0.7,1.7,0.7c0.1,0.1,0.1,0.1,0,0.2
					l-0.4,0.8l-0.1,0.1c-0.1,0-0.1,0-0.1,0s-0.7-0.6-1.5-0.6c-0.7,0-1.1,0.3-1.1,0.8c0,0.6,0.7,0.8,1.4,1.1c1,0.4,2.1,0.8,2.1,2.1
					S203.3,186.4,202.2,186.6z"/>
			</g>
		</g>
	</g>
	<g id="buildingSite_33_">
		<g id="buildingSite_117_">
			<path id="buildingSite_120_" class="st31" d="M183.5,183.9c0,5.1-4.1,9.3-9.3,9.3c-5.1,0-9.3-4.1-9.3-9.3s4.1-9.3,9.3-9.3
				C179.3,174.6,183.5,178.8,183.5,183.9z"/>
			<g id="buildingSite_118_">
				<polygon id="buildingSite_119_" class="st40" points="173.4,186.8 170.4,183.8 171.4,182.8 173.4,184.7 177,181 178.1,182.1 
									"/>
			</g>
		</g>
		<path id="buildingSite_116_" class="st46" d="M165,183.9c0,2.9,1.4,5.6,3.5,7.2c1-0.8,1.9-1.9,2.5-3.1c1.9-4,0.8-8.6-2.4-11.4
			C166.3,178.4,165,181,165,183.9z"/>
		<g id="buildingSite_107_">
			<path id="buildingSite_115_" class="st23" d="M169.2,188c-2.3,4.7-7.9,6.7-12.6,4.4c-4.7-2.3-6.7-7.9-4.4-12.6
				c2.3-4.7,7.9-6.7,12.6-4.4C169.5,177.7,171.5,183.3,169.2,188z"/>
			<g id="buildingSite_108_">
				<g>
					<path id="buildingSite_110_" class="st40" d="M160.2,182.7l1-2.1l1.7,0.8l-1,2.1l2.1,1l-0.7,1.5l-2.1-1l-1,2.1l-1.7-0.8l1-2.1
						l-2-1l0.7-1.5L160.2,182.7z"/>
				</g>
			</g>
		</g>
		<path id="buildingSite_105_" class="st46" d="M156,175.7c-1.6,0.9-3,2.3-3.9,4.1c-2.1,4.4-0.5,9.7,3.6,12.2
			c2.8-1.7,4.7-4.7,4.7-8.2C160.4,180.4,158.6,177.4,156,175.7z"/>
		<g id="buildingSite_34_">
			<circle id="buildingSite_103_" class="st38" cx="149.4" cy="183.7" r="9.6"/>
			<g>
				<path class="st40" d="M152.9,183.9c0.2,0.3,0.3,0.7,0.3,1.2c-0.1,0.6-0.3,1.1-0.8,1.3c-0.4,0.2-1,0.4-1.7,0.4v1.2h-0.9v-1.2
					h-0.7v1.2h-0.9v-1.2h-1.7l0.2-1h0.2c0.3,0,0.5,0,0.5,0c0.1,0,0.2-0.1,0.2-0.3v-3.8c0-0.2-0.1-0.3-0.3-0.3c-0.1,0-0.3,0-0.7,0
					h-0.1v-0.9h0.5c0.6,0,1,0,1.2,0v-1.4h0.9v1.4h0.7v-1.3h0.9v1.4c0.6,0.1,1,0.2,1.4,0.4s0.6,0.6,0.6,1c0.1,0.7-0.2,1.1-0.7,1.4
					C152.3,183.4,152.7,183.6,152.9,183.9z M149.1,183.1h0.1c0.5,0,0.9,0,1.1-0.1c0.5-0.1,0.7-0.4,0.7-0.7c0-0.4-0.2-0.6-0.7-0.8
					c-0.3-0.1-0.6-0.1-1.1-0.1c-0.1,0-0.1,0-0.2,0L149.1,183.1L149.1,183.1z M149.3,185.8c0.6,0,1,0,1.3-0.1
					c0.5-0.1,0.8-0.4,0.8-0.8s-0.3-0.7-0.8-0.8c-0.3-0.1-0.7-0.1-1.3-0.1h-0.2v1.8L149.3,185.8L149.3,185.8z"/>
			</g>
		</g>
	</g>
	<g id="buildingSite_29_">
		<path id="buildingSite_30_" class="st23" d="M125.9,185h2.3c0.5,0,0.9-0.4,0.9-0.9v-3c0-0.5-0.4-0.9-0.9-0.9h-1.8
			c-0.3,0-0.6-0.2-0.7-0.5c-0.1-0.2-0.1-0.3-0.2-0.5c-0.1-0.3-0.1-0.6,0.1-0.8l1.3-1.3c0.3-0.3,0.3-0.9,0-1.2l-2.1-2.1
			c-0.3-0.3-0.9-0.3-1.2,0l-1.3,1.3c-0.2,0.2-0.5,0.3-0.8,0.1c-0.2-0.1-0.4-0.2-0.6-0.2c-0.3-0.1-0.4-0.4-0.4-0.7v-1.8
			c0-0.5-0.4-0.9-0.9-0.9h-3c-0.5,0-0.9,0.4-0.9,0.9v1.8c0,0.3-0.2,0.6-0.5,0.7c-0.2,0.1-0.4,0.1-0.5,0.2c-0.3,0.1-0.6,0.1-0.8-0.1
			l-1.3-1.3c-0.3-0.3-0.9-0.3-1.2,0l-2.1,2.1c-0.3,0.3-0.3,0.9,0,1.2l1.3,1.3c0.2,0.2,0.3,0.5,0.2,0.8c-0.1,0.2-0.2,0.4-0.2,0.6
			c-0.1,0.3-0.4,0.4-0.7,0.4h-1.8c-0.5,0-0.9,0.4-0.8,0.9v3c0,0.5,0.4,0.9,0.9,0.8h1.8c0.3,0,0.6,0.2,0.7,0.5
			c0.1,0.2,0.1,0.3,0.2,0.5c0.1,0.3,0.1,0.6-0.1,0.8l-1.3,1.3c-0.3,0.3-0.3,0.9,0,1.2l2.1,2.1c0.3,0.3,0.9,0.3,1.2,0l1.3-1.3
			c0.2-0.2,0.5-0.3,0.8-0.1c0.2,0.1,0.4,0.2,0.6,0.2c0.3,0.1,0.4,0.4,0.4,0.7v1.8c0,0.5,0.4,0.9,0.9,0.8h3c0.5,0,0.9-0.4,0.8-0.9
			v-1.8c0-0.3,0.2-0.6,0.5-0.7c0.2-0.1,0.3-0.1,0.5-0.2c0.3-0.1,0.6-0.1,0.8,0.1l1.3,1.3c0.3,0.3,0.9,0.3,1.2,0l2.1-2.1
			c0.3-0.3,0.3-0.9,0-1.2l-1.3-1.3c-0.2-0.2-0.3-0.5-0.1-0.8C125.7,185.6,125.9,185,125.9,185z M114.1,181.9
			c0.5-2.6,3.2-4.1,5.6-3.2c1.9,0.7,3,2.7,2.6,4.7c-0.5,2.6-3.2,4.1-5.6,3.2C114.9,185.9,113.8,183.9,114.1,181.9z"/>
	</g>
	<g id="buildingSite_857_">
		<g id="buildingSite_868_">
			<path id="buildingSite_901_" class="st47" d="M39.5,193H14.6c-1.2,0-2.2-1-2.2-2.2v-20.6h27.1c0.4,0,0.8,0.3,0.8,0.8v21.3
				C40.2,192.6,39.9,193,39.5,193z"/>
			<path id="buildingSite_900_" class="st48" d="M15.3,189.1c-1,0-3,0.2-3,2.3V169c0-1.3,1-2.3,2.3-2.3h0.7V189.1z"/>
		</g>
		<path id="buildingSite_834_" class="st31" d="M31.4,183.6h1.5c0.3,0,0.5-0.2,0.5-0.5v-1.9c0-0.3-0.2-0.5-0.5-0.5h-1.2
			c-0.2,0-0.4-0.1-0.4-0.3c0-0.1-0.1-0.2-0.1-0.3c-0.1-0.2-0.1-0.4,0.1-0.5l0.8-0.8c0.2-0.2,0.2-0.6,0-0.8l-1.3-1.3
			c-0.2-0.2-0.6-0.2-0.8,0l-0.8,0.8c-0.1,0.1-0.3,0.2-0.5,0.1c-0.1-0.1-0.2-0.1-0.4-0.1c-0.2-0.1-0.3-0.2-0.3-0.4v-1.2
			c0-0.3-0.2-0.5-0.5-0.5h-1.9c-0.3,0-0.5,0.2-0.5,0.5v1.2c0,0.2-0.1,0.4-0.3,0.4c-0.1,0-0.2,0.1-0.3,0.1c-0.2,0.1-0.4,0.1-0.5-0.1
			l-0.9-0.9c-0.2-0.2-0.6-0.2-0.8,0l-1.3,1.3c-0.2,0.2-0.2,0.6,0,0.8l0.8,0.8c0.1,0.1,0.2,0.3,0.1,0.5c-0.1,0.1-0.1,0.2-0.1,0.4
			c-0.1,0.2-0.2,0.3-0.4,0.3h-1.2c-0.3,0-0.5,0.2-0.5,0.5v1.9c0,0.3,0.2,0.5,0.5,0.5h1.2c0.2,0,0.4,0.1,0.4,0.3
			c0,0.1,0.1,0.2,0.1,0.3c0.1,0.2,0.1,0.4-0.1,0.5l-0.8,0.8c-0.2,0.2-0.2,0.6,0,0.8l1.3,1.3c0.2,0.2,0.6,0.2,0.8,0l0.8-0.8
			c0.1-0.1,0.3-0.2,0.5-0.1c0.1,0.1,0.2,0.1,0.4,0.1c0.2,0.1,0.3,0.2,0.3,0.4v1.2c0,0.3,0.2,0.5,0.5,0.5h1.9c0.3,0,0.5-0.2,0.5-0.5
			v-1.2c0-0.2,0.1-0.4,0.3-0.4c0.1,0,0.2-0.1,0.3-0.1c0.2-0.1,0.4-0.1,0.5,0.1l0.8,0.8c0.2,0.2,0.6,0.2,0.8,0l1.3-1.3
			c0.2-0.2,0.2-0.6,0-0.8l-0.8-0.8c-0.1-0.1-0.2-0.3-0.1-0.5C31.3,184,31.4,183.6,31.4,183.6z M23.9,181.6c0.3-1.7,2-2.6,3.6-2
			c1.2,0.5,1.9,1.7,1.7,3c-0.3,1.7-2,2.6-3.6,2C24.4,184.2,23.7,182.9,23.9,181.6z"/>
		<path id="buildingSite_858_" class="st32" d="M40.2,192.4v-21.7c0-0.3-0.3-0.6-0.6-0.6h-1.8v19.1v0.6v2.5c0,0.3,0.3,0.6,0.6,0.6
			h1.2C40,193,40.2,192.7,40.2,192.4z"/>
		<g id="buildingSite_838_">
			<rect id="buildingSite_856_" x="38.6" y="168.3" class="st23" width="2.5" height="21.6"/>
			<path id="buildingSite_855_" class="st48" d="M41.1,189.8h-2.5v2.3c0,0.5,0.4,0.8,0.8,0.8h0.9c0.5,0,0.8-0.4,0.8-0.8V189.8z"/>
			<rect id="buildingSite_852_" x="38.6" y="168.3" class="st49" width="1.3" height="21.6"/>
			<path id="buildingSite_851_" class="st35" d="M39.7,165.3l-1.2,2.9h2.6l-1.2-2.9C39.9,165.2,39.8,165.2,39.7,165.3z"/>
			<path id="buildingSite_850_" class="st33" d="M39.8,165.2l-0.3,0.8h0.7L39.8,165.2C39.8,165.1,39.8,165.1,39.8,165.2z"/>
			<rect id="buildingSite_854_" x="38.6" y="189.2" class="st33" width="2.5" height="0.6"/>
		</g>
	</g>
</g>
</svg>
