<?xml version="1.0" encoding="utf-8"?>
<!-- Generator: Adobe Illustrator 22.1.0, SVG Export Plug-In . SVG Version: 6.00 Build 0)  -->
<svg version="1.1" id="Layer_1" xmlns="http://www.w3.org/2000/svg" xmlns:xlink="http://www.w3.org/1999/xlink" x="0px" y="0px"
	 viewBox="0 0 880.3 159.4" style="enable-background:new 0 0 880.3 159.4;" xml:space="preserve">
<style type="text/css">
	.st0{fill:#E7EAF3;stroke:#AAB4CE;stroke-miterlimit:10;}
	.st1{fill:#F7F8F9;}
	.st2{fill:#FFFFFF;}
	.st3{fill:#FEC55E;}
	.st4{opacity:0.2;fill:#231F20;enable-background:new    ;}
	.st5{fill:#717386;}
	.st6{fill:#4D5068;}
	.st7{fill:#9A9DD0;}
	.st8{fill:#9E9E9E;}
	.st9{fill:#C5C5C5;}
	.st10{fill:#8184C4;}
	.st11{fill:#377DFF;}
	.st12{opacity:0.3;fill:#414042;enable-background:new    ;}
	.st13{fill:#212121;}
	.st14{fill:#FED17E;}
	.st15{fill:#F1F2F2;}
	.st16{fill:#B7D2F9;}
	.st17{fill:#414042;}
	.st18{fill:#191C3C;}
	.st19{fill:#474963;}
	.st20{fill:#ECECEC;}
	.st21{fill:#B1B1B1;}
	.st22{opacity:0.3;}
	.st23{fill:#BF9447;}
	.st24{opacity:0.3;fill:#231F20;enable-background:new    ;}
	.st25{fill:#FDFDFE;}
	.st26{fill:#575A8F;}
	.st27{fill:#FDE1A7;}
	.st28{fill:#13D7B6;}
	.st29{fill:#4D40AD;}
	.st30{fill:#2D1582;}
	.st31{fill:#EFA02E;}
	.st32{fill:#FDD14E;}
	.st33{fill:#1E2022;}
	.st34{fill:#7C98D6;}
	.st35{opacity:0.2;fill:#7C98D6;enable-background:new    ;}
	.st36{fill:#FCD991;}
	.st37{fill:#00C9A7;}
	.st38{fill:#00C671;}
	.st39{opacity:0.2;}
	.st40{opacity:8.000000e-02;fill:#F5F7F9;enable-background:new    ;}
	.st41{fill:#DDB758;}
	.st42{fill:#09324C;}
	.st43{opacity:0.3;fill:#191C3C;enable-background:new    ;}
	.st44{fill:#093A66;}
	.st45{opacity:7.000000e-02;fill:#F7F9FA;enable-background:new    ;}
	.st46{fill:#F5F7F9;}
	.st47{fill:#DFE2EC;}
	.st48{fill:#D8D7D6;}
	.st49{fill:#BEBCBA;}
	.st50{fill:#EFDCB4;}
	.st51{opacity:0.1;}
	.st52{fill:#E7EAF3;}
	.st53{opacity:0.2;fill:#97A4AF;enable-background:new    ;}
	.st54{fill:#05331E;}
	.st55{opacity:0.67;}
	.st56{fill:#4E87C3;}
	.st57{fill:#ECE8EC;}
	.st58{fill:#F5D09F;}
	.st59{fill:#151E1C;}
	.st60{fill:#E9BB88;}
	.st61{fill:#FFD970;}
	.st62{fill:#AFAEAE;}
	.st63{fill:#251F3E;}
	.st64{fill:#312C48;}
	.st65{fill:#44263D;}
	.st66{fill:#FFB100;}
	.st67{fill:#7DADDF;}
	.st68{fill:#93BCEB;}
	.st69{fill:#CCE1F7;}
</style>
<g>
	<polygon class="st0" points="795.2,151.9 2.8,151.9 66.2,128.4 877.4,121.8 	"/>
	<polygon class="st0" points="795.2,152.9 2.8,152.9 66.2,129.4 877.4,122.8 	"/>
	<polygon class="st0" points="795.2,153.9 2.8,153.9 66.2,130.4 877.4,123.8 	"/>
	<polygon class="st0" points="795.2,154.9 2.8,154.9 66.2,131.4 877.4,124.8 	"/>
	<polygon class="st0" points="795.2,155.9 2.8,155.9 66.2,132.4 877.4,125.8 	"/>
	<polygon class="st0" points="795.2,156.9 2.8,156.9 66.2,133.4 877.4,126.8 	"/>
	<polygon class="st0" points="795.2,157.9 2.8,157.9 66.2,134.4 877.4,127.8 	"/>
	<polygon class="st0" points="795.2,158.9 2.8,158.9 66.2,135.4 877.4,128.8 	"/>
</g>
<polygon class="st1" points="63.8,0 880.3,0 880.3,121.8 63.8,128.4 "/>
<polygon class="st2" points="880.3,0 534.1,0 880.3,127.8 "/>
<g>
	<g id="maintenanceMode_334_">
		<g id="maintenanceMode_404_">
			<path id="maintenanceMode_408_" class="st3" d="M101.9,119.5L101.9,119.5h2l2.8-8.4c0.2-0.5,0.1-1-0.1-1.5l-3.7-6.5h-0.8l-0.1,7
				c0.1,0.1,0.7,0.3,0.8,0.4c0.5,0.5,0.5,1.4,0,1.9s-1.4,0.5-1.9,0s-0.5-1.4,0-1.9c0.1-0.1,0.5-0.4,0.6-0.4l0.2-6.9h-0.6l-3.8,6.5
				c-0.3,0.5-0.3,1-0.2,1.5l2.7,8.4L101.9,119.5z"/>
			<polygon id="maintenanceMode_407_" class="st4" points="99.9,119.5 101.9,119.5 101.9,119.5 103.9,119.5 104.8,116.7 99,116.7 
							"/>
			<rect id="maintenanceMode_406_" x="97.5" y="118" class="st5" width="8.8" height="15.9"/>
			<rect id="maintenanceMode_405_" x="101.9" y="118" class="st6" width="4.4" height="15.9"/>
		</g>
		<g id="maintenanceMode_392_">
			<path id="maintenanceMode_401_" class="st7" d="M118,113.8v3.8c0,0.7,0.6,1.3,1.3,1.3c1.4,0,2.5,1.1,2.5,2.5v10.3
				c0,1.3,1.1,2.4,2.5,2.3c1.2-0.1,2-1.2,2-2.4v-10.1c0-1.4,1.1-2.5,2.5-2.5c0.7,0,1.3-0.6,1.3-1.3v-3.9L118,113.8L118,113.8z
				 M123.2,131.5c0-0.4,0.4-0.8,0.8-0.8s0.8,0.4,0.8,0.8s-0.4,0.8-0.8,0.8S123.2,131.9,123.2,131.5z"/>
			<rect id="maintenanceMode_400_" x="118" y="102.1" class="st3" width="12" height="8.7"/>
			<rect id="maintenanceMode_399_" x="118" y="102.1" class="st3" width="4.8" height="8.7"/>
			<rect id="maintenanceMode_398_" x="118" y="110.3" class="st8" width="12" height="3.5"/>
			<rect id="maintenanceMode_397_" x="118" y="110.5" class="st9" width="12" height="0.5"/>
			<rect id="maintenanceMode_396_" x="118" y="111.8" class="st9" width="12" height="0.5"/>
			<rect id="maintenanceMode_395_" x="118" y="113" class="st9" width="12" height="0.5"/>
			<path id="maintenanceMode_394_" class="st10" d="M124,113.8v16.9c-0.4,0-0.8,0.4-0.8,0.8s0.4,0.8,0.8,0.8v1.6
				c-1.3,0-2.3-1-2.3-2.3v-10.3c0-1.4-1.1-2.5-2.5-2.5c-0.7,0-1.3-0.6-1.3-1.3v-3.7H124z"/>
			<path id="maintenanceMode_393_" class="st11" d="M122.1,102.1v3.4c0,0.5,0.4,1,1,1l0,0c0.5,0,1-0.4,1-1v-1c0-0.4,0.4-0.8,0.8-0.8
				l0,0c0.4,0,0.8,0.4,0.8,0.8v3.6c0,0.4,0.4,0.8,0.8,0.8l0,0c0.4,0,0.8-0.4,0.8-0.8v-1.7l0,0c0.9,0,1.6-0.7,1.6-1.6V102
				L122.1,102.1C122.1,102,122.1,102.1,122.1,102.1z"/>
		</g>
		<path id="maintenanceMode_391_" class="st12" d="M118,102.1v8.1v0.2v0.3v0.2v0.7v0.5v0.7v0.5v0.3v3.8c0,0.7,0.6,1.3,1.3,1.3
			c0.1,0,0.3,0,0.4,0v-12.9l-1.4-3.6L118,102.1L118,102.1z"/>
		<g id="maintenanceMode_384_">
			<rect id="maintenanceMode_390_" x="113.6" y="105.8" class="st3" width="4.9" height="24.4"/>
			<path id="maintenanceMode_389_" class="st3" d="M118.6,131.4h-4.9v1.4c0,0.6,0.5,1.2,1.2,1.2h2.6c0.6,0,1.2-0.5,1.2-1.2
				L118.6,131.4L118.6,131.4z"/>
			<rect id="maintenanceMode_388_" x="113.6" y="130.2" class="st13" width="4.9" height="1.2"/>
			<rect id="maintenanceMode_387_" x="113.6" y="105.8" class="st14" width="2.5" height="24.4"/>
			<path id="maintenanceMode_386_" class="st15" d="M115.9,100.1l-2.3,5.7h4.9l-2.3-5.7C116.2,99.9,116,99.9,115.9,100.1z"/>
			<path id="maintenanceMode_385_" class="st13" d="M116,99.7l-0.6,1.5h1.3l-0.6-1.5C116.1,99.7,116.1,99.7,116,99.7z"/>
		</g>
		<path id="maintenanceMode_383_" class="st12" d="M104.4,118l2.3-6.8c0.2-0.5,0.1-1-0.1-1.5l-3.2-5.7l0,0v1.2v0.4v1.2v0.4v1.2v0.4
			v1.2v0.4v1.2v0.4v1.2v0.4v1.2v0.4v1.2v0.4v1.2v0.4v1.2v0.4v1.2v0.4v1.2v0.4v1.2v0.4v1.2v0.4v1.2v0.4v1.2v0.4v1.2v0.4v1.2v0.4v0.8
			c0,0.6,0.5,1.1,1.1,1.1h1.9v-15.9h-2C104.4,118.8,104.4,118,104.4,118z"/>
		<g id="maintenanceMode_359_">
			<path id="maintenanceMode_382_" class="st11" d="M105.4,99h3.9c0.6,0,1,0.5,1,1v32.9c0,0.6-0.5,1-1,1h-3.9c-0.6,0-1-0.5-1-1V100
				C104.4,99.5,104.8,99,105.4,99z"/>
			<path id="maintenanceMode_381_" class="st16" d="M105.5,99h2.1v34.9h-2.1c-0.6,0-1.1-0.5-1.1-1.1v-32.7
				C104.4,99.5,104.9,99,105.5,99z"/>
			<rect id="maintenanceMode_380_" x="104.4" y="131.5" class="st17" width="0.7" height="0.4"/>
			<rect id="maintenanceMode_379_" x="104.4" y="130" class="st17" width="0.7" height="0.4"/>
			<rect id="maintenanceMode_378_" x="104.4" y="128.4" class="st17" width="0.7" height="0.4"/>
			<rect id="maintenanceMode_377_" x="104.4" y="126.9" class="st17" width="0.7" height="0.4"/>
			<rect id="maintenanceMode_376_" x="104.3" y="125.3" class="st17" width="1.5" height="0.4"/>
			<rect id="maintenanceMode_375_" x="104.4" y="123.8" class="st17" width="0.7" height="0.4"/>
			<rect id="maintenanceMode_374_" x="104.4" y="122.2" class="st17" width="0.7" height="0.4"/>
			<rect id="maintenanceMode_373_" x="104.4" y="120.7" class="st17" width="0.7" height="0.4"/>
			<rect id="maintenanceMode_372_" x="104.4" y="119.1" class="st17" width="0.7" height="0.4"/>
			<rect id="maintenanceMode_371_" x="104.3" y="117.6" class="st17" width="1.5" height="0.4"/>
			<rect id="maintenanceMode_370_" x="104.4" y="116" class="st17" width="0.7" height="0.4"/>
			<rect id="maintenanceMode_369_" x="104.4" y="114.5" class="st17" width="0.7" height="0.4"/>
			<rect id="maintenanceMode_368_" x="104.4" y="112.9" class="st17" width="0.7" height="0.4"/>
			<rect id="maintenanceMode_367_" x="104.4" y="111.4" class="st17" width="0.7" height="0.4"/>
			<rect id="maintenanceMode_366_" x="104.3" y="109.8" class="st17" width="1.5" height="0.4"/>
			<rect id="maintenanceMode_365_" x="104.4" y="108.3" class="st17" width="0.7" height="0.4"/>
			<rect id="maintenanceMode_364_" x="104.4" y="106.7" class="st17" width="0.7" height="0.4"/>
			<rect id="maintenanceMode_363_" x="104.4" y="105.2" class="st17" width="0.7" height="0.4"/>
			<rect id="maintenanceMode_362_" x="104.4" y="103.6" class="st17" width="0.7" height="0.4"/>
			<rect id="maintenanceMode_361_" x="104.3" y="102.1" class="st17" width="1.5" height="0.4"/>
			<rect id="maintenanceMode_360_" x="104.4" y="100.5" class="st17" width="0.7" height="0.4"/>
		</g>
		<path id="maintenanceMode_358_" class="st12" d="M109.3,99v6.9l0,0h-0.6v2.7v0.3v4.6h0.6v20.4c0.6,0,1-0.5,1-1.1v-32.7
			C110.3,99.5,109.9,99.1,109.3,99z"/>
		<g id="maintenanceMode_349_">
			<rect id="maintenanceMode_357_" x="110.4" y="113.2" class="st18" width="2.6" height="20.7"/>
			<rect id="maintenanceMode_356_" x="111.7" y="113.2" class="st19" width="1.3" height="20.7"/>
			<rect id="maintenanceMode_355_" x="109.8" y="108.6" class="st18" width="3.5" height="4.9"/>
			<rect id="maintenanceMode_354_" x="109.8" y="108.6" class="st2" width="3.5" height="0.3"/>
			<rect id="maintenanceMode_353_" x="109.8" y="105.9" class="st18" width="3.5" height="2.7"/>
			<polygon id="maintenanceMode_352_" class="st8" points="113.2,100.3 110.4,97.9 110.4,105.9 113.2,105.9 			"/>
			<polygon id="maintenanceMode_351_" class="st20" points="110.4,98.8 110.4,105.9 113.2,105.9 113.2,101.2 			"/>
			<polygon id="maintenanceMode_350_" class="st21" points="111.8,105.9 113.2,105.9 113.2,101.2 111.8,100 			"/>
		</g>
		<g id="maintenanceMode_342_" class="st22">
			<path id="maintenanceMode_6_" class="st12" d="M104.4,133.9h1.1h0.8h1.3h1.6h0.1l0,0c0.3,0,0.5-0.1,0.7-0.3c0,0,0,0,0-0.1
				c0.1-0.1,0.1-0.2,0.2-0.3s0.1-0.3,0.1-0.4v-9.1H97.5v10.2h4.4H104.4L104.4,133.9z"/>
			<path id="maintenanceMode_347_" class="st12" d="M113.6,132.6c0,0.7,0.6,1.3,1.3,1.3h2.4c0.7,0,1.3-0.6,1.3-1.3v-1.3v-1.2v-6.5
				h-4.9v6.5v1.2v1.3H113.6z"/>
			<polygon id="maintenanceMode_346_" class="st12" points="113,133.9 113,123.7 110.4,123.7 110.4,133.9 111.7,133.9 			"/>
			<path id="maintenanceMode_343_" class="st12" d="M121.7,123.7v8c0,0.2,0,0.3,0.1,0.5c0,0.1,0,0.1,0.1,0.2c0,0.1,0,0.2,0.1,0.2
				c0,0.1,0.1,0.2,0.1,0.2l0.1,0.1c0.1,0.1,0.1,0.2,0.2,0.3c0,0,0,0,0.1,0.1s0.2,0.2,0.3,0.2l0,0c0.4,0.3,0.9,0.4,1.5,0.4
				c1.2-0.1,2-1.2,2-2.4v-7.8H121.7z M124,132.3c-0.4,0-0.8-0.4-0.8-0.8s0.4-0.8,0.8-0.8s0.8,0.4,0.8,0.8S124.5,132.3,124,132.3z"/>
		</g>
		<g id="maintenanceMode_335_">
			<path id="maintenanceMode_341_" class="st3" d="M131.2,146.2H97v-21.4h36.3v19.3C133.3,145.2,132.4,146.2,131.2,146.2z"/>
			<path id="maintenanceMode_340_" class="st23" d="M95.4,146.2H97v-21.4h-3.7v19.3C93.3,145.2,94.2,146.2,95.4,146.2z"/>
			<polygon id="maintenanceMode_339_" class="st4" points="93.3,129.3 95.7,129.3 97,124.8 93.3,125.7 			"/>
			<path id="maintenanceMode_338_" class="st3" d="M92.7,127.5h2.6c0.2,0,0.4-0.1,0.4-0.3l1.2-2.4h-3.7l-1,2
				C92.1,127.1,92.4,127.5,92.7,127.5z"/>
			<polygon id="maintenanceMode_337_" class="st4" points="133.3,129.3 133.3,125.7 97,124.8 99,129.3 			"/>
			<path id="maintenanceMode_336_" class="st3" d="M134.3,127.5H99.2c-0.2,0-0.3-0.1-0.4-0.2l-1.8-2.5h36.3l1.4,1.9
				C135,127,134.8,127.5,134.3,127.5z"/>
		</g>
	</g>
	<g id="maintenanceMode_33_">
		<g id="maintenanceMode_117_">
			<path id="maintenanceMode_120_" class="st11" d="M229.5,137.1c0,5.1-4.1,9.3-9.3,9.3c-5.1,0-9.3-4.1-9.3-9.3s4.1-9.3,9.3-9.3
				C225.3,127.8,229.5,132,229.5,137.1z"/>
			<g id="maintenanceMode_118_">
				<polygon id="maintenanceMode_119_" class="st2" points="219.4,140 216.4,137 217.4,136 219.4,137.9 223,134.2 224.1,135.3 				
					"/>
			</g>
		</g>
		<path id="maintenanceMode_116_" class="st24" d="M211,137.1c0,2.9,1.4,5.6,3.5,7.2c1-0.8,1.9-1.9,2.5-3.1c1.9-4,0.8-8.6-2.4-11.4
			C212.3,131.6,211,134.2,211,137.1z"/>
		<g id="maintenanceMode_107_">
			<path id="maintenanceMode_115_" class="st3" d="M215.2,141.2c-2.3,4.7-7.9,6.7-12.6,4.4c-4.7-2.3-6.7-7.9-4.4-12.6
				c2.3-4.7,7.9-6.7,12.6-4.4C215.5,130.9,217.5,136.5,215.2,141.2z"/>
			<g id="maintenanceMode_108_">
				<g>
					<path id="maintenanceMode_110_" class="st2" d="M206.2,135.9l1-2.1l1.7,0.8l-1,2.1l2.1,1l-0.7,1.5l-2.1-1l-1,2.1l-1.7-0.8
						l1-2.1l-2-1l0.7-1.5L206.2,135.9z"/>
				</g>
			</g>
		</g>
		<path id="maintenanceMode_105_" class="st24" d="M202,128.9c-1.6,0.9-3,2.3-3.9,4.1c-2.1,4.4-0.5,9.7,3.6,12.2
			c2.8-1.7,4.7-4.7,4.7-8.2C206.4,133.6,204.6,130.6,202,128.9z"/>
		<g id="maintenanceMode_34_">
			<circle id="maintenanceMode_103_" class="st18" cx="195.4" cy="136.9" r="9.6"/>
			<g>
				<path class="st2" d="M198.9,137.1c0.2,0.3,0.3,0.7,0.3,1.2c-0.1,0.6-0.3,1.1-0.8,1.3c-0.4,0.2-1,0.4-1.7,0.4v1.2h-0.9V140h-0.7
					v1.2h-0.9V140h-1.7l0.2-1h0.2c0.3,0,0.5,0,0.5,0c0.1,0,0.2-0.1,0.2-0.3v-3.8c0-0.2-0.1-0.3-0.3-0.3c-0.1,0-0.3,0-0.7,0h-0.1
					v-0.9h0.5c0.6,0,1,0,1.2,0v-1.4h0.9v1.4h0.7v-1.3h0.9v1.4c0.6,0.1,1,0.2,1.4,0.4s0.6,0.6,0.6,1c0.1,0.7-0.2,1.1-0.7,1.4
					C198.3,136.6,198.7,136.8,198.9,137.1z M195.1,136.3h0.1c0.5,0,0.9,0,1.1-0.1c0.5-0.1,0.7-0.4,0.7-0.7c0-0.4-0.2-0.6-0.7-0.8
					c-0.3-0.1-0.6-0.1-1.1-0.1c-0.1,0-0.1,0-0.2,0L195.1,136.3L195.1,136.3z M195.3,139c0.6,0,1,0,1.3-0.1c0.5-0.1,0.8-0.4,0.8-0.8
					s-0.3-0.7-0.8-0.8c-0.3-0.1-0.7-0.1-1.3-0.1h-0.2v1.8L195.3,139L195.3,139z"/>
			</g>
		</g>
	</g>
	<g id="maintenanceMode_29_">
		<path id="maintenanceMode_30_" class="st3" d="M171.9,138.2h2.3c0.5,0,0.9-0.4,0.9-0.9v-3c0-0.5-0.4-0.9-0.9-0.9h-1.8
			c-0.3,0-0.6-0.2-0.7-0.5c-0.1-0.2-0.1-0.3-0.2-0.5c-0.1-0.3-0.1-0.6,0.1-0.8l1.3-1.3c0.3-0.3,0.3-0.9,0-1.2l-2.1-2.1
			c-0.3-0.3-0.9-0.3-1.2,0l-1.3,1.3c-0.2,0.2-0.5,0.3-0.8,0.1c-0.2-0.1-0.4-0.2-0.6-0.2c-0.3-0.1-0.4-0.4-0.4-0.7v-1.8
			c0-0.5-0.4-0.9-0.9-0.9h-3c-0.5,0-0.9,0.4-0.9,0.9v1.8c0,0.3-0.2,0.6-0.5,0.7c-0.2,0.1-0.4,0.1-0.5,0.2c-0.3,0.1-0.6,0.1-0.8-0.1
			l-1.3-1.3c-0.3-0.3-0.9-0.3-1.2,0l-2.1,2.1c-0.3,0.3-0.3,0.9,0,1.2l1.3,1.3c0.2,0.2,0.3,0.5,0.2,0.8c-0.1,0.2-0.2,0.4-0.2,0.6
			c-0.1,0.3-0.4,0.4-0.7,0.4h-1.8c-0.5,0-0.9,0.4-0.8,0.9v3c0,0.5,0.4,0.9,0.9,0.8h1.8c0.3,0,0.6,0.2,0.7,0.5
			c0.1,0.2,0.1,0.3,0.2,0.5c0.1,0.3,0.1,0.6-0.1,0.8l-1.3,1.3c-0.3,0.3-0.3,0.9,0,1.2l2.1,2.1c0.3,0.3,0.9,0.3,1.2,0l1.3-1.3
			c0.2-0.2,0.5-0.3,0.8-0.1c0.2,0.1,0.4,0.2,0.6,0.2c0.3,0.1,0.4,0.4,0.4,0.7v1.8c0,0.5,0.4,0.9,0.9,0.8h3c0.5,0,0.9-0.4,0.8-0.9
			v-1.8c0-0.3,0.2-0.6,0.5-0.7c0.2-0.1,0.3-0.1,0.5-0.2c0.3-0.1,0.6-0.1,0.8,0.1l1.3,1.3c0.3,0.3,0.9,0.3,1.2,0l2.1-2.1
			c0.3-0.3,0.3-0.9,0-1.2l-1.3-1.3c-0.2-0.2-0.3-0.5-0.1-0.8C171.7,138.8,171.9,138.2,171.9,138.2z M160.1,135.1
			c0.5-2.6,3.2-4.1,5.6-3.2c1.9,0.7,3,2.7,2.6,4.7c-0.5,2.6-3.2,4.1-5.6,3.2C160.9,139.1,159.8,137.1,160.1,135.1z"/>
	</g>
	<g id="maintenanceMode_857_">
		<g id="maintenanceMode_868_">
			<path id="maintenanceMode_901_" class="st25" d="M85.5,146.2H60.6c-1.2,0-2.2-1-2.2-2.2v-20.6h27.1c0.4,0,0.8,0.3,0.8,0.8v21.3
				C86.2,145.8,85.9,146.2,85.5,146.2z"/>
			<path id="maintenanceMode_900_" class="st26" d="M61.3,142.3c-1,0-3,0.2-3,2.3v-22.4c0-1.3,1-2.3,2.3-2.3h0.7V142.3z"/>
		</g>
		<path id="maintenanceMode_834_" class="st11" d="M77.4,136.8h1.5c0.3,0,0.5-0.2,0.5-0.5v-1.9c0-0.3-0.2-0.5-0.5-0.5h-1.2
			c-0.2,0-0.4-0.1-0.4-0.3c0-0.1-0.1-0.2-0.1-0.3c-0.1-0.2-0.1-0.4,0.1-0.5l0.8-0.8c0.2-0.2,0.2-0.6,0-0.8l-1.3-1.3
			c-0.2-0.2-0.6-0.2-0.8,0l-0.8,0.8c-0.1,0.1-0.3,0.2-0.5,0.1c-0.1-0.1-0.2-0.1-0.4-0.1c-0.2-0.1-0.3-0.2-0.3-0.4v-1.2
			c0-0.3-0.2-0.5-0.5-0.5h-1.9c-0.3,0-0.5,0.2-0.5,0.5v1.2c0,0.2-0.1,0.4-0.3,0.4c-0.1,0-0.2,0.1-0.3,0.1c-0.2,0.1-0.4,0.1-0.5-0.1
			l-0.9-0.9c-0.2-0.2-0.6-0.2-0.8,0l-1.3,1.3c-0.2,0.2-0.2,0.6,0,0.8l0.8,0.8c0.1,0.1,0.2,0.3,0.1,0.5c-0.1,0.1-0.1,0.2-0.1,0.4
			c-0.1,0.2-0.2,0.3-0.4,0.3h-1.2c-0.3,0-0.5,0.2-0.5,0.5v1.9c0,0.3,0.2,0.5,0.5,0.5h1.2c0.2,0,0.4,0.1,0.4,0.3
			c0,0.1,0.1,0.2,0.1,0.3c0.1,0.2,0.1,0.4-0.1,0.5l-0.8,0.8c-0.2,0.2-0.2,0.6,0,0.8l1.3,1.3c0.2,0.2,0.6,0.2,0.8,0l0.8-0.8
			c0.1-0.1,0.3-0.2,0.5-0.1c0.1,0.1,0.2,0.1,0.4,0.1c0.2,0.1,0.3,0.2,0.3,0.4v1.2c0,0.3,0.2,0.5,0.5,0.5h1.9c0.3,0,0.5-0.2,0.5-0.5
			v-1.2c0-0.2,0.1-0.4,0.3-0.4c0.1,0,0.2-0.1,0.3-0.1c0.2-0.1,0.4-0.1,0.5,0.1l0.8,0.8c0.2,0.2,0.6,0.2,0.8,0l1.3-1.3
			c0.2-0.2,0.2-0.6,0-0.8l-0.8-0.8c-0.1-0.1-0.2-0.3-0.1-0.5C77.3,137.2,77.4,136.8,77.4,136.8z M69.9,134.8c0.3-1.7,2-2.6,3.6-2
			c1.2,0.5,1.9,1.7,1.7,3c-0.3,1.7-2,2.6-3.6,2C70.4,137.4,69.7,136.1,69.9,134.8z"/>
		<path id="maintenanceMode_858_" class="st12" d="M86.2,145.6v-21.7c0-0.3-0.3-0.6-0.6-0.6h-1.8v19.1v0.6v2.5
			c0,0.3,0.3,0.6,0.6,0.6h1.2C86,146.2,86.2,145.9,86.2,145.6z"/>
		<g id="maintenanceMode_838_">
			<rect id="maintenanceMode_856_" x="84.6" y="121.5" class="st3" width="2.5" height="21.6"/>
			<path id="maintenanceMode_855_" class="st26" d="M87.1,143h-2.5v2.3c0,0.5,0.4,0.8,0.8,0.8h0.9c0.5,0,0.8-0.4,0.8-0.8
				C87.1,145.3,87.1,143,87.1,143z"/>
			<rect id="maintenanceMode_852_" x="84.6" y="121.5" class="st27" width="1.3" height="21.6"/>
			<path id="maintenanceMode_851_" class="st15" d="M85.7,118.5l-1.2,2.9h2.6l-1.2-2.9C85.9,118.4,85.8,118.4,85.7,118.5z"/>
			<path id="maintenanceMode_850_" class="st13" d="M85.8,118.4l-0.3,0.8h0.7L85.8,118.4C85.8,118.3,85.8,118.3,85.8,118.4z"/>
			<rect id="maintenanceMode_854_" x="84.6" y="142.4" class="st13" width="2.5" height="0.6"/>
		</g>
	</g>
	<g>
		<g id="maintenanceMode_615_">
			<g id="maintenanceMode_873_">
				<path id="maintenanceMode_883_" class="st28" d="M167.5,75.3h-5.2c-0.4,0-0.7-0.3-0.7-0.7V40.5c0-0.4,0.3-0.7,0.7-0.7h5.2
					c0.4,0,0.7,0.3,0.7,0.7v34.1C168.2,75,167.9,75.3,167.5,75.3z"/>
				<rect id="maintenanceMode_882_" x="163.8" y="42.6" class="st2" width="1.8" height="1.8"/>
				<rect id="maintenanceMode_881_" x="163.8" y="46.1" class="st2" width="1.8" height="1.8"/>
				<rect id="maintenanceMode_880_" x="163.8" y="49.6" class="st2" width="1.8" height="1.8"/>
				<rect id="maintenanceMode_879_" x="163.8" y="53.1" class="st2" width="1.8" height="1.8"/>
				<rect id="maintenanceMode_878_" x="163.8" y="56.7" class="st2" width="1.8" height="1.8"/>
				<rect id="maintenanceMode_877_" x="163.8" y="60.2" class="st2" width="1.8" height="1.8"/>
				<rect id="maintenanceMode_876_" x="163.8" y="63.7" class="st2" width="1.8" height="1.8"/>
				<rect id="maintenanceMode_875_" x="163.8" y="67.2" class="st2" width="1.8" height="1.8"/>
				<rect id="maintenanceMode_874_" x="163.8" y="70.8" class="st2" width="1.8" height="1.8"/>
			</g>
			<g id="maintenanceMode_610_">
				<path id="maintenanceMode_861_" class="st28" d="M192.2,73.6l-4.9,1.8c-0.4,0.1-0.8-0.1-0.9-0.4l-11.5-32
					c-0.1-0.4,0.1-0.8,0.4-0.9l4.9-1.8c0.4-0.1,0.8,0.1,0.9,0.4l11.5,32C192.7,73,192.5,73.4,192.2,73.6z"/>
				<path id="maintenanceMode_844_" class="st2" d="M182.3,46.1c0.5,1.3-0.2,2.8-1.5,3.3s-2.8-0.2-3.3-1.5s0.2-2.8,1.5-3.3
					S181.8,44.8,182.3,46.1z"/>
				<path id="maintenanceMode_847_" class="st2" d="M189.9,67.3c0.5,1.3-0.2,2.8-1.5,3.3s-2.8-0.2-3.3-1.5s0.2-2.8,1.5-3.3
					C187.9,65.2,189.4,65.9,189.9,67.3z"/>
			</g>
			<g id="maintenanceMode_652_">
				<path id="maintenanceMode_841_" class="st29" d="M174.3,37.3h-5.7c-0.3,0-0.5,0.2-0.5,0.5v37c0,0.3,0.2,0.5,0.5,0.5h5.7
					c0.3,0,0.5-0.2,0.5-0.5v-37C174.8,37.5,174.6,37.3,174.3,37.3z"/>
				<path id="maintenanceMode_9_" class="st30" d="M168.9,75.3h2.6v-38h-2.6c-0.4,0-0.8,0.3-0.8,0.8v36.5
					C168.1,75,168.5,75.3,168.9,75.3z"/>
				<rect id="maintenanceMode_835_" x="168.1" y="41.9" class="st2" width="6.7" height="5.3"/>
				<rect id="maintenanceMode_8_" x="168.1" y="65.4" class="st2" width="6.7" height="5.3"/>
			</g>
			<g id="maintenanceMode_648_">
				<path id="maintenanceMode_651_" class="st31" d="M160.9,75.3h-8.3c-0.3,0-0.6-0.3-0.6-0.6v-39c0-0.3,0.3-0.6,0.6-0.6h8.3
					c0.3,0,0.6,0.3,0.6,0.6v39C161.5,75.1,161.2,75.3,160.9,75.3z"/>
				<path id="maintenanceMode_650_" class="st32" d="M152.9,75.3h3.8V35.2h-3.8c-0.5,0-0.9,0.4-0.9,0.9v38.4
					C152,74.9,152.4,75.3,152.9,75.3z"/>
				<path id="maintenanceMode_649_" class="st33" d="M157.9,72.5h-2.2c-0.2,0-0.3-0.1-0.3-0.3V40.1c0-0.2,0.1-0.3,0.3-0.3h2.2
					c0.2,0,0.3,0.1,0.3,0.3v32.1C158.2,72.4,158,72.5,157.9,72.5z"/>
			</g>
		</g>
		<rect x="125.8" y="75.6" class="st34" width="90.3" height="5.6"/>
		<polygon class="st35" points="125.8,80.8 128.9,83.7 220.2,83.7 220.1,78 216.1,75.6 216.1,80.8 		"/>
	</g>
</g>
<g>
	<g id="maintenanceMode_121_">
		<g id="maintenanceMode_307_">
			<path id="maintenanceMode_319_" class="st36" d="M828.3,130.5c-3.7,3.1-9.2,2.6-12.2-1.1c-3.1-3.7-2.6-9.2,1.1-12.2
				c3.7-3.1,9.2-2.6,12.2,1.1C832.5,122,832,127.5,828.3,130.5z"/>
			<g>
				<path class="st2" d="M825.1,122.2l-2.8,5.9c0,0.1-0.1,0.1-0.2,0.1c0,0,0,0-0.1,0s-0.2-0.1-0.2-0.3l1-4.1l-2.1,0.5c0,0,0,0-0.1,0
					s-0.1,0-0.2-0.1c-0.1-0.1-0.1-0.1-0.1-0.2l1-4.2c0-0.1,0.1-0.2,0.2-0.2h1.7c0.1,0,0.2,0.1,0.2,0.2v0.1l-0.9,2.4l2-0.5
					c0,0,0,0,0.1,0s0.1,0,0.2,0.1C825.1,122,825.1,122.1,825.1,122.2z"/>
			</g>
		</g>
		<path id="maintenanceMode_306_" class="st24" d="M821.6,124.1c0-2.9-1.3-5.4-3.3-7.2c-0.4,0.2-0.8,0.5-1.2,0.8c-2,1.7-3,4-3.1,6.4
			c0.1,1.9,0.7,3.7,2,5.3c0.6,0.8,1.4,1.4,2.2,1.9C820.3,129.6,821.6,127,821.6,124.1z"/>
		<g id="maintenanceMode_1_">
			<path id="maintenanceMode_305_" class="st11" d="M820.1,123c0,5.3-4.3,9.5-9.5,9.5c-5.3,0-9.5-4.3-9.5-9.5c0-5.3,4.3-9.5,9.5-9.5
				S820.1,117.8,820.1,123z"/>
			<g>
				<path class="st2" d="M813.1,126.3c0,0.1,0,0.2-0.1,0.2c0,0-0.5,0.2-1.1,0.2c-1.6,0-3-1-3.4-2.5H808c-0.1,0-0.2-0.1-0.2-0.2v-0.6
					c0-0.1,0.1-0.2,0.2-0.2h0.3c0-0.2,0-0.4,0-0.6h-0.4c-0.1,0-0.2-0.1-0.2-0.2v-0.6c0-0.1,0.1-0.2,0.2-0.2h0.5
					c0.5-1.5,1.8-2.4,3.4-2.4c0.5,0,1,0.1,1,0.1s0.1,0,0.1,0.1v0.1l-0.2,0.8c0,0.1-0.1,0.1-0.2,0.1c0,0-0.4-0.1-0.7-0.1
					c-0.9,0-1.6,0.5-2,1.3h2.5c0.1,0,0.1,0,0.1,0.1v0.1l-0.1,0.6c0,0.1-0.1,0.1-0.2,0.1h-2.6c0,0.2,0,0.3,0,0.6h2.4
					c0.1,0,0.1,0,0.1,0.1v0.1l-0.1,0.6c0,0.1-0.1,0.1-0.2,0.1h-2c0.3,0.8,1.1,1.3,2,1.3c0.5,0,0.8-0.1,0.8-0.1h0.1l0.1,0.1
					L813.1,126.3z"/>
			</g>
		</g>
		<path id="maintenanceMode_149_" class="st24" d="M806.9,115.3c-3.3,1.4-5.7,4.6-5.9,8.4c0.2,3.2,2.1,6,4.7,7.6
			c4-2.9,5.4-8.3,3.3-12.9C808.5,117.2,807.8,116.2,806.9,115.3z"/>
		<g id="maintenanceMode_134_">
			<ellipse id="maintenanceMode_148_" class="st3" cx="797.9" cy="122.1" rx="10.5" ry="10.5"/>
			<g>
				<path class="st2" d="M804,118.2v6.9c0,0.5-0.4,0.9-0.9,0.9H794c-0.5,0-0.9-0.4-0.9-0.9v-6.9c0-0.5,0.4-0.9,0.9-0.9h9.1
					C803.5,117.3,804,117.7,804,118.2z M793.7,118.2v1.3h9.5v-1.3c0-0.1-0.1-0.2-0.2-0.2h-9.1C793.8,118,793.7,118.1,793.7,118.2z
					 M803.2,125.2v-3.5h-9.5v3.5c0,0.1,0.1,0.2,0.2,0.2h9.1C803.1,125.4,803.2,125.3,803.2,125.2z M794.5,123.9h1.5v0.7h-1.5V123.9z
					 M796.7,123.9h2.2v0.7h-2.2V123.9z"/>
			</g>
		</g>
		<path id="maintenanceMode_133_" class="st24" d="M788.4,126.5c0.7,1.5,1.7,2.7,2.8,3.6c0.6-0.8,1.2-1.8,1.5-2.8
			c1.4-4.1,0.2-8.5-2.9-11.2c-1.5,1.8-2.4,4.1-2.4,6.5C787.5,123.9,787.8,125.2,788.4,126.5z"/>
		<g id="maintenanceMode_122_">
			<path id="maintenanceMode_132_" class="st37" d="M790.7,125.6c-1.9,5.4-7.9,8.3-13.3,6.4c-5.4-1.9-8.3-7.9-6.4-13.3
				c1.9-5.4,7.8-8.3,13.3-6.4C789.8,114.3,792.6,120.2,790.7,125.6z"/>
			<g>
				<path class="st2" d="M781.2,125.8v0.9c0,0.1-0.1,0.2-0.2,0.2h-0.7c-0.1,0-0.2-0.1-0.2-0.2v-0.9c-1.2-0.2-1.9-0.9-2-1
					s-0.1-0.2,0-0.2l0.6-0.7l0.1-0.1h0.1c0,0,0.8,0.7,1.7,0.7c0.5,0,1.1-0.3,1.1-0.9c0-0.5-0.6-0.8-1.4-1.1c-1-0.4-2.2-0.9-2.2-2.2
					c0-1,0.8-1.8,1.9-2v-1c0-0.1,0.1-0.2,0.2-0.2h0.7c0.1,0,0.2,0.1,0.2,0.2v0.9c1.1,0.1,1.7,0.7,1.7,0.7c0.1,0.1,0.1,0.1,0,0.2
					l-0.4,0.8l-0.1,0.1c-0.1,0-0.1,0-0.1,0s-0.7-0.6-1.5-0.6c-0.7,0-1.1,0.3-1.1,0.8c0,0.6,0.7,0.8,1.4,1.1c1,0.4,2.1,0.8,2.1,2.1
					S782.3,125.6,781.2,125.8z"/>
			</g>
		</g>
	</g>
	<g id="maintenanceMode_320_">
		<polygon id="maintenanceMode_327_" class="st3" points="639.2,134.3 632.8,133.8 637.9,127.9 		"/>
		<polygon id="maintenanceMode_326_" class="st3" points="634.1,140.1 627.7,139.6 632.8,133.8 		"/>
		<polygon id="maintenanceMode_5_" class="st3" points="646.6,145.9 628.9,145.9 644.3,128.4 		"/>
		<polygon id="maintenanceMode_324_" class="st14" points="646.6,145.9 634.1,140.1 639.2,134.2 		"/>
		<polygon id="maintenanceMode_323_" class="st14" points="627.7,139.6 628.9,145.9 634,140.1 		"/>
		<polygon id="maintenanceMode_4_" class="st14" points="632.8,133.8 634.1,140.1 639.2,134.3 		"/>
		<polygon id="maintenanceMode_321_" class="st14" points="637.9,127.9 639.2,134.2 644.3,128.4 		"/>
	</g>
	<g>
		<g>
			<path class="st38" d="M694.5,132.1L694.5,132.1C694.5,132.1,693.8,132.4,694.5,132.1z M700.8,125.9c-6.5-6.7-14.4-12.5-23.4-15
				c-9-2.6-19.3-1.7-27.1,3.6c11.2,11.9,27.8,18.5,44.2,17.6c2.4,0.2,9.3,0.3,11.2-0.9c0.5-0.3-1-2.1-2.4-3.5
				C702.9,127.3,701.3,126.3,700.8,125.9z"/>
			<g class="st39">
				<path class="st18" d="M703.4,127.7c-0.4-0.4-2-1.4-2.4-1.8c-6.5-6.7-14.4-12.5-23.4-15c-4.4-1.2-9-1.7-13.4-1.2
					c5.1,0.2,10.4,1.6,15,3.9c8.2,4.2,14.7,11,19.8,18.7c2.7,0,5.8-0.3,7-1C706.3,130.8,704.6,129.2,703.4,127.7z"/>
			</g>
			<path class="st38" d="M708.6,111.7c1.3,3.7,3.1,9.3,1.5,13c-1.2,2.9-3.5,7.1-6.4,6.5c-2.4-3.1-7.3-9.6-10.5-12.1
				c-2.6-2.1-6.6-4.3-9.2-6.5c-6.3-5.7-8.7-13.3-12.2-21c6.4,0.6,12.6,1.8,18.9,3.6c4,1.1,8.1,2.6,11.2,5.4
				C705.3,103.4,707.2,107.6,708.6,111.7z"/>
			<path class="st40" d="M695,119.3c-2.2-2.5-5.8-5.4-7.9-8c-4.3-5.6-5.8-11.9-7.3-18.7c-2.6-0.4-5.2-0.8-7.9-1
				c3.5,7.8,5.9,15.4,12.2,21c2.4,2.3,6.5,4.4,9.2,6.5c1.5,1.2,3.4,3.3,5.2,5.5C697.3,122.5,696.1,120.5,695,119.3z"/>
			<path class="st38" d="M711.8,91.5c2.2,5.8,2.1,12.2,2.1,18.4c0,2.4,0.6,6.3,0,8.6c-0.4,1.9-1.7,3.7-2.9,5.3
				c-1,1.4-2.2-0.3-3.1-1.7c-0.8-1.3-2.3-3.6-1.6-3.1c-1-3.6-1.7-5.8-2.6-9.5c-1-2.8-1.8-5.6-2.4-8.5c-1.2-7.2,0.2-14.4,1.6-21.5
				C706.9,82.8,710,87,711.8,91.5z"/>
			<g>
				<path class="st33" d="M655,115.6c8.1-0.3,16.1,0,23.9,2.2c7.4,2.1,14.2,5.7,20.3,10.3c0.3,0.3,0.6-0.3,0.3-0.5
					c-6.1-4.6-13.1-8.1-20.5-10.2c-7.9-2.3-15.9-2.4-24.1-1.9C654.8,115.5,654.8,115.6,655,115.6L655,115.6z"/>
			</g>
			<g>
				<path class="st33" d="M674.6,94c6.5,3.1,12.6,7.2,17.7,12.2c5.6,5.5,9.3,12,13.5,18.5c0.1,0.2,0.4,0,0.3-0.2
					c-7.2-13.4-17.3-24.7-31.5-30.7C674.6,93.8,674.4,93.8,674.6,94L674.6,94z"/>
			</g>
			<g>
				<path class="st33" d="M703.4,82.6c4.3,12.6,9.3,24.8,6.4,38.5c-0.1,0.3,0.3,0.4,0.4,0.1C712.9,108.1,709,94.3,703.4,82.6
					C703.4,82.4,703.2,82.5,703.4,82.6L703.4,82.6z"/>
			</g>
			<g>
				<path class="st33" d="M660.8,120.2c0.9-0.9,1.7-1.8,2.7-2.5c1-0.8,2.1-1.3,3.2-1.9c0.1-0.1,0-0.2-0.1-0.2
					C664.4,116.3,662.1,118.2,660.8,120.2L660.8,120.2L660.8,120.2z"/>
			</g>
			<g>
				<path class="st33" d="M667.4,123.4c2.3-4.1,5.6-5.3,10-5.8c0.3,0,0.3-0.5-0.1-0.4C673.2,117.7,668.9,119,667.4,123.4
					C667.3,123.4,667.4,123.4,667.4,123.4L667.4,123.4z"/>
			</g>
			<g>
				<path class="st33" d="M675.5,123.9c2.6-2,5.2-5.1,8.9-4.2c0.2,0.1,0.3-0.3,0.1-0.3C680.8,118.4,677.9,121.5,675.5,123.9
					C675.3,123.9,675.4,124,675.5,123.9L675.5,123.9z"/>
			</g>
			<g>
				<path class="st33" d="M683.5,128.2c2.4-3.1,5.9-5.8,10-3.7c0.3,0.1,0.4-0.3,0.2-0.3C689.7,122.1,685.6,124.7,683.5,128.2
					C683.3,128.2,683.5,128.3,683.5,128.2L683.5,128.2z"/>
			</g>
			<g>
				<path class="st33" d="M664.9,110.5c0.5,2.6,2.8,4.2,4.9,5.6c0.2,0.1,0.3-0.2,0.2-0.3c-2.1-1.4-4.2-2.8-4.9-5.3
					C665,110.3,664.9,110.4,664.9,110.5L664.9,110.5z"/>
			</g>
			<g>
				<path class="st33" d="M673.5,111c1,2.5,2.6,4.7,4.5,6.5c0.2,0.2,0.4-0.1,0.3-0.3C676.2,115.5,674.8,113.4,673.5,111
					C673.5,111,673.4,111,673.5,111L673.5,111z"/>
			</g>
			<g>
				<path class="st33" d="M680.7,113.9c0.4,1.2,1,2.3,1.8,3.3c0.6,0.8,1.5,2.2,2.4,2.5c0.1,0,0.2,0,0.3-0.1l0.1-0.1
					c0.1-0.1,0.1-0.3-0.1-0.3l-0.1-0.1c-0.1-0.1-0.2,0-0.3,0l-0.1,0.1c-0.1,0.1-0.1,0.2,0.1,0.3c0.3,0.1-1-1.4-1-1.4
					c-0.3-0.4-0.7-0.8-1-1.2c-0.8-1-1.5-2-2-3.1C680.8,113.8,680.7,113.8,680.7,113.9L680.7,113.9z"/>
			</g>
			<g>
				<path class="st33" d="M686.8,117c1.6,2.7,4.1,5.1,6.5,7.1c0.3,0.3,0.7-0.2,0.4-0.4c-2.6-2-4.6-4.4-6.8-6.8
					C686.8,116.8,686.6,116.9,686.8,117L686.8,117z"/>
			</g>
			<g>
				<path class="st33" d="M678.4,102.5c4.5-0.3,8.5-0.1,12.4,2.4c0.3,0.2,0.5-0.3,0.3-0.4c-3.5-2.3-8.6-3.7-12.7-2.3
					C678.2,102.3,678.2,102.5,678.4,102.5L678.4,102.5z"/>
			</g>
			<g>
				<path class="st33" d="M685.4,110c2.2,0,4.3-0.1,6.4,0.4c1.9,0.4,3.7,1.1,5.7,1.8c0.3,0.1,0.3-0.3,0.1-0.4
					c-3.8-1.4-8.1-3.1-12.2-2C685.4,109.9,685.4,110,685.4,110L685.4,110z"/>
			</g>
			<g>
				<path class="st33" d="M693.8,116.6c1.5,0.1,3.1,0.3,4.5,0.5c1.7,0.3,2.9,1.2,4,2.5c0.2,0.2,0.5-0.1,0.3-0.3
					c-1-1.2-2.1-2.1-3.7-2.5c-1.7-0.3-3.4-0.4-5.1-0.3C693.8,116.4,693.8,116.6,693.8,116.6L693.8,116.6z"/>
			</g>
			<g>
				<path class="st33" d="M687.7,97.3c0.1,1.7,1,3.3,1.6,4.8c0.4,1,0.8,2.6,2,2.8c0.1,0,0.2-0.1,0.1-0.2
					C689.3,103,689.2,99.6,687.7,97.3C687.8,97.1,687.7,97.1,687.7,97.3L687.7,97.3z"/>
			</g>
			<g>
				<path class="st33" d="M694.5,99.2c0.4,4.5,1.8,9,3.4,13.2c0.1,0.2,0.4,0.1,0.3-0.1c-1.7-4.3-2.5-8.6-3.6-13.1
					C694.6,99.2,694.5,99.2,694.5,99.2L694.5,99.2z"/>
			</g>
			<g>
				<path class="st33" d="M701.8,108.8c0,3.8,1,7.8,1.6,11.5c0.1,0.3,0.5,0.2,0.4-0.1c-0.7-3.8-1.2-7.6-1.8-11.4
					C702,108.6,701.8,108.6,701.8,108.8L701.8,108.8z"/>
			</g>
			<g>
				<path class="st33" d="M702,89.8c2.7,3.1,4.9,6.4,6.6,10c0.2,0.3,0.6,0.1,0.4-0.3c-1.7-3.7-4-7.1-6.9-10
					C702,89.4,701.8,89.6,702,89.8L702,89.8z"/>
			</g>
			<g>
				<path class="st33" d="M710.7,90.5c-1.3,2.9-1.6,6.6-1.7,9.8c0,0.3,0.4,0.3,0.4,0c0.1-1.8,0.3-3.6,0.6-5.4
					c0.3-1.5,0.7-2.9,0.9-4.4C710.9,90.3,710.7,90.3,710.7,90.5L710.7,90.5z"/>
			</g>
			<g>
				<path class="st33" d="M705.8,101.3c2,3.1,3.3,6.3,4.7,9.8c0,0.1,0.2,0,0.2-0.1c-0.5-3.5-2.4-7.2-4.7-9.8
					C705.8,101.2,705.7,101.3,705.8,101.3L705.8,101.3z"/>
			</g>
			<g>
				<path class="st33" d="M710.9,111.3c0.9-2.3,1.6-4.4,2.9-6.5c0.1-0.2-0.2-0.3-0.3-0.2C712.3,106.7,711,108.9,710.9,111.3
					C710.7,111.4,710.7,111.4,710.9,111.3L710.9,111.3z"/>
			</g>
		</g>
	</g>
	<g>
		<g class="st22">
			<path class="st18" d="M764.7,121.4c0-0.1-0.1-0.3-0.2-0.3c0,0,0-0.1-0.1-0.1c-0.3-0.5-0.8-1-1.3-1.2c-1.6-1-3.9-1.7-5.1-1.9
				l3.1-0.8v-0.4l1.6,0.5c0.4,0.2,1-0.1,1.1-0.5l0,0c0-0.1,0-0.2,0-0.3c0.3,0,0.7-0.3,0.8-0.6c0.1-0.3,0-0.5-0.1-0.7
				c0.3,0,0.6-0.3,0.7-0.6c0.1-0.3,0-0.6-0.2-0.9c0.3-0.1,0.4-0.3,0.5-0.5c0.2-0.4-0.1-1-0.5-1.1l-0.7-0.3l6.6-10
				c0.1-0.2-0.1-0.3-0.3-0.3l-15.3,4.1l-6.4-7v8.3l0.4,0.3l-0.4,0.1v25.1h7.9C768.4,129.6,764.7,121.4,764.7,121.4z"/>
		</g>
		<g class="st22">
			<g>
				<path class="st18" d="M711,123.9c1.1-1.6,2.4-3.5,2.9-5.3c0.5-2.3,0-6.2,0-8.6c0.1-6.2,0.1-12.6-2-18.3l1.1,4.9l-0.3,4.4
					l-0.3-0.1l-1.1-10.4c-1.7-3.9-4.3-7.4-7.7-10.1c-0.3,6.6-0.4,21.2,2.5,25.7c0.5,0.9,1.5,1.6,2.6,2.2c-2.7-1.2-5-2-6.5-2.5l0,0
					l0,0c-0.1,0-0.3-0.1-0.3-0.1h0.1c-0.1,0-0.2-0.1-0.3-0.1c0,0,0,0-0.1,0s-0.2-0.1-0.3-0.1c0,0,0,0-0.1,0s-0.2-0.1-0.3-0.1
					c0,0,0,0-0.1,0s-0.1,0-0.2-0.1c0,0,0,0-0.1,0h-0.1c0,0,0,0-0.1,0c0,0,0,0-0.1,0l0,0l0,0c-0.2,0-0.3,0-0.5,0.1
					c-0.1,0-0.2,0-0.2,0.1c-0.1,0-0.2,0.1-0.2,0.1c-0.4,0.2-0.9,0.5-1.2,0.9c-0.8,0.8-1.4,1.8-1.7,2.9l0,0v0.1c0,0,0,0,0,0.1
					c-0.3,1-0.3,2.1-0.1,3.1c0.3,1.8,1.2,3.6,2.5,5c0.1,0.1,0.1,0.2,0.2,0.2c0.3,0.3,0.5,0.5,0.9,0.8c1.6,1.3,3.3,2.7,4.8,3.8
					c0.2,0.2,0.4,0.3,0.6,0.4c0.3,0.2,0.5,0.3,0.7,0.5c0.3,0.2,0.5,0.3,0.7,0.5s0.3,0.3,0.5,0.3c0.1,0.1,0.3,0.2,0.3,0.3
					c0.2,0.2,0.3,0.3,0.4,0.3l0,0l-5.1,0.6c-1.2,0-2.3,0.8-2.8,1.8c-0.2,0.3-0.3,0.8-0.3,1.1v0.1l0,0l0,0c0,0.2,0,0.3,0.1,0.5
					c0.1,0.4,0.3,0.8,0.4,1.1c0.5,0.8,1.5,1.3,2.5,1.3h1.7c0.1,0,0.2,0,0.2-0.1c0.1,0,0.1,0,0.2-0.1c0.2-0.1,0.3-0.2,0.5-0.3
					c0.1,0,0.1-0.1,0.1-0.2c0-0.1,0-0.1,0-0.2c1.9-1,3.3-3.9,4.3-6.1c0-0.1,0.1-0.2,0.1-0.3C710.5,124.5,710.7,124.3,711,123.9z
					 M712.1,109.7v0.3c-0.4-0.3-1-0.5-1.4-0.7c0,0-0.1,0-0.1-0.1h-0.1C711.1,109.4,711.6,109.5,712.1,109.7z"/>
			</g>
		</g>
		<g>
			<g>
				<path class="st18" d="M736.4,51.7c0.4-1.4-0.6-2.8-1.7-3.8c-2.1-2-4.6-3.6-7.5-3.7c-2.6-0.2-5.8,1.6-7.6,3.5
					c-1,1.1-1.8,2.5-2.6,3.8c-0.7,1.1-1,2.4-1.1,3.8c-0.1,1.6,0.6,3.2,0,4.8c-0.2,0.4-0.5,0.9-0.7,1.4c-0.4,1-0.1,2.3,0.2,3.4
					c0.1,0.4,0.3,0.9,0.3,1.2c0,0.7-0.3,1.4-0.5,2c-0.4,1.6,0.2,3.6,1.7,4.3c0.5,0.3,1.1,0.3,1.7,0.3c0.2,0,0.4,0,0.6-0.1
					c0.5-0.3,0.5-1,0.9-1.7c0.3-0.7,1.3-0.9,2.1-0.9s1.7,0.1,2.4-0.3c1.9-1,1.5-4.2,3.2-5.3c0.8-0.5,1.8-0.5,2.5-1.1
					c0.9-0.7,1-1.9,1.4-2.9c0.4-0.9,1-1.6,1.7-2.3C734.9,56.3,735.9,54,736.4,51.7"/>
			</g>
			<polygon class="st41" points="731.9,84.5 720.2,83.3 715.8,70.6 719.4,69.2 727.6,69.3 732.9,70.6 			"/>
			<rect x="714.7" y="108.7" class="st42" width="26.9" height="16.2"/>
			<path class="st11" d="M728.6,69.6c0,0,5,1.1,6.7,1.7c0,0,5.4,0.5,7.1,7.8l4.2,18.9l8.8,9.6l-3.4,2.6l-11.2-7.7
				c-0.6-0.4-1.1-1.1-1.3-1.8l-3.2-12.1l0.2,10c0,0,7.1,10.3,5,13.8l-27.1-1.5l0.8-14L712,83.2l1.8-11.7l5.6-2.1
				c0,0-1.3,7.5,5.6,8.5C725,77.7,731.1,76,728.6,69.6z"/>
			<g class="st22">
				<path class="st18" d="M736.3,94l-0.1-5.6c-1.4,2.3-2.2,7-3.7,9.1c-0.3,0.3-0.5,0.7-0.6,1c-0.3,0.9,0.2,1.8,0.8,2.5
					s1.5,1.1,2.3,1.7c1.6,1.1,3,2.6,3.9,4.3c0.7,1.2,2.2,3.7,1.5,5.1c0.3,0,0.6,0,1,0c2.2-3.5-5-13.8-5-13.8L736.3,94z"/>
			</g>
			<path class="st43" d="M743.4,102.5c-0.6-0.4-1.1-1.1-1.3-1.8l-5.8-12.2l1.7,6.8l1.4,5.4c0.2,0.8,0.7,1.4,1.3,1.8l11.2,7.7
				l0.6-0.5L743.4,102.5z"/>
			<path class="st44" d="M710.4,124.9c0,0-4.6-3.3-8.2-6.4c-2.7-2.4-3.8-5.7-3.4-9.3v-0.1c0,0,1.6-4,3.8-4c0,0,13.9,3.6,24,13.4
				l17.1,5.6l-31.6,4L710.4,124.9z"/>
			<path class="st45" d="M712.8,125.4c-0.3-0.6-0.7-1.2-1.3-1.6c-0.3-0.3-0.8-0.3-1.1-0.5c-1.1-0.7-1.6-2.2-2.4-3.1
				c-0.8-0.9-1.8-1.3-2.5-2.2c-0.6-0.8-1-1.7-1.4-2.6c-0.3-0.9-0.7-1.7-1-2.6s-0.7-1.8-0.7-2.8c0-0.6,1-4.5,2-4.2
				c-1.2-0.3-1.8-0.5-1.8-0.5c-0.8,0-1.5,0.5-2.2,1.1c-1.6,1.7-2.3,4-1.7,6.2c0.4,2.4,1.7,4.4,3.5,6c3.6,3.1,8.2,6.4,8.2,6.4
				l1.7,3.4l3.1-0.4c-0.5-1-1.6-1.2-2.2-2.3C713,125.6,713,125.5,712.8,125.4z"/>
			<polygon class="st43" points="716.9,126.6 716.9,127.6 743.6,124.2 735.6,121.6 730.3,120.1 			"/>
			<path class="st44" d="M755.3,117.6c0,0,6.6,1.4,7.2,3.8c0,0,3.7,8.2-7.7,10.8h-34.3v-5.7l16.3-4.4L755.3,117.6z"/>
			<path class="st43" d="M762.5,121.4c-0.2-0.7-1.1-1.7-1.7-1.7c0,0.8,0.4,1.5,0.4,2.3c0,1-0.5,2.1-1.2,2.9c-1,1.1-2.5,1.8-3.9,2.5
				c-0.9,0.4-1.7,0.8-2.6,1.2c-0.8,0.3-1.6,0.7-2.4,1c-2.8,0.7-5.8-0.2-8.6,0.3c-1.7,0.3-3.5,0.4-5.2,0.6c-1.4,0.1-16.6,1-16.6,0.8
				v1H755C766.1,129.6,762.5,121.4,762.5,121.4z"/>
			<path class="st41" d="M720.6,126.6l-2.2-1.7c-0.7-0.5-1.6-0.8-2.4-0.7l-10.7,1.2c-1.7,0-3,1.3-3,3v0.1c0,1.7,1.3,3,3,3h15.4
				C720.6,131.4,720.6,126.6,720.6,126.6z"/>
			<path class="st18" d="M718.4,124.9c-0.7-0.5-1.6-0.8-2.4-0.7l-10.7,1.2c-1.7,0-3,1.3-3,3v0.1c0,0.3,0.1,0.7,0.2,1
				c0.4-1.1,1.5-2,2.8-2l10.7-1.2c0.9-0.1,1.7,0.2,2.4,0.7l2.2,1.7v-2L718.4,124.9z"/>
			<path class="st18" d="M708.3,127.5L708.3,127.5c0-1,0.3-1.8,0.8-2.5l-3.9,0.4c-1.7,0-3,1.3-3,3v0.1c0,1.7,1.3,3,3,3h7.1
				C710.2,131.5,708.3,129.7,708.3,127.5z"/>
			<polygon class="st46" points="721.7,117.3 743.5,111.7 751.1,118.6 736.9,122.2 			"/>
			<polygon class="st47" points="725.2,117.3 745.2,112.2 751.1,118.3 739.6,121.2 			"/>
			<path class="st48" d="M737.3,121.5l-15.6-4.1v0.3c0,0.4,0.3,0.8,0.7,1l13.3,4.1c0.3,0.1,0.8,0,1-0.3L737.3,121.5z"/>
			<polygon class="st49" points="736.1,122.7 759.1,117 759.1,116 737.3,121.5 			"/>
			<path class="st41" d="M730.3,108.7l5.5,1.3c0.2,0.1,0.4,0.2,0.6,0.3l2.7,2c0.4,0.3,0.8,0.8,1,1.2l0.9,1.5l0.4,2.9l0,0
				c-0.5,0.4-1.2,0.1-1.3-0.5l-0.1-1.6c-0.3-0.5-1.4-1.7-1.9-1.7l-1.6-0.3l1.2,2.1c0.3,0.5-0.1,1.2-0.7,1.2l0,0l-3.1-3.7l-5.4-2.2
				L730.3,108.7z"/>
			<path class="st46" d="M736.9,121.8l7.9-13.9c0-0.1,0.1-0.1,0.1-0.1l23.6-6.4c0.2-0.1,0.3,0.2,0.3,0.3l-9.8,14.7
				c0,0.1-0.1,0.1-0.2,0.1L737,122C737,122.1,736.8,121.9,736.9,121.8z"/>
			<path class="st47" d="M754.6,112.2c-0.4,1-1.3,1.7-2.1,1.7c-0.7,0-1-0.8-0.6-1.7c0.4-1,1.3-1.7,2.1-1.7
				C754.8,110.4,755.1,111.2,754.6,112.2z"/>
			<path class="st43" d="M714.7,110.1c-2.4-1.2-4.6-2.3-6.5-3c0.1,0.1,0.1,0.3,0.2,0.3c3.6,5.4,21.2,5.1,21.2,5.1l1.1-2.4l-1.5-1.5
				h-14.6C714.7,108.7,714.7,110.1,714.7,110.1z"/>
			<path class="st11" d="M716.7,70.2c0,0-6.7,2.5-7.6,3c-0.3,0.2-3.1,1.1-3.1,4.3c-0.1,3.1-1.1,23.2,2.4,28.6
				c3.6,5.4,21.3,6.1,21.3,6.1l1.9-3.8l-16.9-7.4l-1.9-17.5L716.7,70.2z"/>
			<polygon class="st43" points="714.6,100.9 712.8,83.3 712.5,84.4 713.3,101.6 731,109.5 731.5,108.3 			"/>
			<path class="st41" d="M762.4,113.5l-2.7-0.9c-0.4-0.2-0.7-0.6-0.5-1.1l0,0c0.2-0.4,0.6-0.7,1.1-0.5l2.7,0.9
				c0.4,0.2,0.7,0.6,0.5,1.1l0,0C763.3,113.4,763,113.7,762.4,113.5z"/>
			<path class="st41" d="M762.1,114.9l-3.1-1c-0.4-0.2-0.7-0.6-0.5-1.1l0,0c0.2-0.4,0.6-0.7,1.1-0.5l3.1,1c0.4,0.2,0.7,0.6,0.5,1.1
				l0,0C763.1,114.8,762.6,115,762.1,114.9z"/>
			<path class="st41" d="M761.6,116.2l-2.5-0.9c-0.4-0.2-0.7-0.6-0.5-1.1l0,0c0.2-0.4,0.6-0.7,1.1-0.5l2.5,0.9
				c0.4,0.2,0.7,0.6,0.5,1.1l0,0C762.5,116.1,761.9,116.3,761.6,116.2z"/>
			<path class="st41" d="M760.7,117l-1.6-0.5c-0.4-0.2-0.7-0.6-0.5-1.1l0,0c0.2-0.4,0.6-0.7,1.1-0.5l1.6,0.5
				c0.4,0.2,0.7,0.6,0.5,1.1l0,0C761.6,117,761.1,117.2,760.7,117z"/>
			<path class="st41" d="M738.2,115.6l-0.3-2.3l1.1-0.1l0.3,3.4l0,0C738.9,116.7,738.3,116.2,738.2,115.6z"/>
			<rect x="721" y="65.8" class="st41" width="6.7" height="8.7"/>
			<polygon class="st43" points="727.8,69 721,70.6 721,65.8 727.8,65.8 			"/>
			<path class="st50" d="M737.1,54.8l-0.8-4.3c-1.7,0.7-3.7,1.1-5.5,1.3c-0.6,0.1-1.2,0.1-1.8,0.3c-1.3,0.4-2.2,1.5-2.6,2.7
				c-0.3,1,0.1,3.1-1.2,3.2c-0.6,0.1-1.1-0.3-1.5-0.8c-0.3-0.4-0.7-1-1-1.4c-1-1-2.4-0.3-2.4,1c-0.1,0.8,0.3,1.7,0.9,2.2
				c0.6,0.6,1.6,0.9,1.8,1.7c0.2,0.3,0.2,0.6,0.2,1c0.1,1.1,0.4,2.3,1,3.3c1,1.5,2.5,2.4,4,3.1c1.7,1,3.5,1.5,4.3-0.7
				c0.6-1.7,2.7-2.5,3.4-4.3c0.3-0.9,0-1.7,0-2.7C735.8,58.4,737.2,57,737.1,54.8z"/>
			<g class="st51">
				<path class="st18" d="M735.7,60.6c0.1-2.1,1.5-3.6,1.4-5.8l-0.8-4.3c-0.3,0.1-0.6,0.3-1,0.3l0.7,3.9c0.1,2.2-1.3,3.7-1.4,5.8
					c-0.1,1,0.3,1.7,0,2.7c-0.6,1.7-2.7,2.5-3.4,4.3c-0.3,0.9-0.8,1.3-1.4,1.5c1,0.2,1.9-0.1,2.4-1.5c0.6-1.7,2.7-2.5,3.4-4.3
					C736,62.3,735.6,61.5,735.7,60.6z"/>
			</g>
			<g>
				<path class="st18" d="M716.3,59.8c0.8,0.1,1.3,1,1.3,1.7c0,0.8-0.3,1.6-0.4,2.4s-0.3,1.7,0.2,2.3c0.3,0.5,1,0.9,1.3,1.5
					c0.5,1.1-0.8,2.4-1,3.6c-0.2,1.9,2.5,3.3,2.3,5.2c-0.1,0.5-0.3,1-0.3,1.6c0.1,1,1.2,1.7,1,2.8c-0.1,0.3-0.2,0.5-0.1,0.8
					c0.1,0.2,0.3,0.3,0.5,0.3c0.5,0.2,1.2,0.3,1.5-0.2c0.3-0.6-0.5-1.3-0.3-2c1,0.2,1.9,0.4,2.9,0.6c0.2,0.1,0.4,0.1,0.6-0.1
					c0.1-0.1,0.2-0.2,0.2-0.3c0.3-1.1-0.8-2.1-1.4-3.1c-0.1-0.2-0.2-0.3-0.2-0.4c0-0.3,0.3-0.6,0.7-0.7c0.6-0.3,1.2-0.7,1.4-1.3
					c0.2-0.8-0.3-1.5-0.8-2.2c-0.7-1-1.3-2.2-1-3.4c0.2-0.8,0.8-1.6,0.7-2.4c-0.1-1.6-2.1-2.4-2.3-4c-0.1-0.3,0-0.8,0-1.1
					c-0.1-0.8-0.7-1.6-1.4-1.9c-0.7-0.4-1.6-0.6-2.4-0.8c-0.6-0.2-1.3-0.3-1.9-0.2c-0.6,0.2-1.2,0.6-1.2,1.3"/>
			</g>
		</g>
	</g>
	<g id="maintenanceMode_210_">
		<path id="maintenanceMode_221_" class="st2" d="M566.1,142.4H485V61.9c0-2.2,1.7-3.9,3.9-3.9h73.3c2.2,0,3.9,1.7,3.9,3.9
			L566.1,142.4L566.1,142.4z"/>
		<path id="maintenanceMode_220_" class="st34" d="M566.1,70.2v-9.4c0-1.6-1.3-2.8-2.8-2.8h-75.5c-1.6,0-2.8,1.3-2.8,2.8v9.4H566.1z
			"/>
		<rect id="maintenanceMode_219_" x="496.7" y="72.4" class="st34" width="58.2" height="24.7"/>
		<path id="maintenanceMode_218_" class="st52" d="M552.4,102h-53.3c-1.3,0-2.4,1.1-2.4,2.4l0,0c0,1.3,1.1,2.4,2.4,2.4h53.3
			c1.3,0,2.4-1.1,2.4-2.4l0,0C554.9,103,553.8,102,552.4,102z"/>
		<path id="maintenanceMode_217_" class="st52" d="M552.6,112.3h-53.3c-1.3,0-2.4,1.1-2.4,2.4l0,0c0,1.3,1.1,2.4,2.4,2.4h53.3
			c1.3,0,2.4-1.1,2.4-2.4l0,0C555,113.4,554,112.3,552.6,112.3z"/>
		<path id="maintenanceMode_216_" class="st52" d="M552.8,122.7h-53.3c-1.3,0-2.4,1.1-2.4,2.4l0,0c0,1.3,1.1,2.4,2.4,2.4h53.3
			c1.3,0,2.4-1.1,2.4-2.4l0,0C555.2,123.8,554.1,122.7,552.8,122.7z"/>
		<path id="maintenanceMode_215_" class="st52" d="M553,133.1h-53.3c-1.3,0-2.4,1.1-2.4,2.4l0,0c0,1.3,1.1,2.4,2.4,2.4H553
			c1.3,0,2.4-1.1,2.4-2.4l0,0C555.4,134.2,554.3,133.1,553,133.1z"/>
		<path id="maintenanceMode_214_" class="st2" d="M494.5,64.1c0,0.9-0.7,1.6-1.6,1.6c-0.9,0-1.6-0.7-1.6-1.6s0.7-1.6,1.6-1.6
			C493.8,62.4,494.5,63.2,494.5,64.1z"/>
		<path id="maintenanceMode_213_" class="st2" d="M499.9,64.1c0,0.9-0.7,1.6-1.6,1.6c-0.9,0-1.6-0.7-1.6-1.6s0.7-1.6,1.6-1.6
			C499.2,62.4,499.9,63.2,499.9,64.1z"/>
		<path id="maintenanceMode_212_" class="st2" d="M505.3,64.1c0,0.9-0.7,1.6-1.6,1.6c-0.9,0-1.6-0.7-1.6-1.6s0.7-1.6,1.6-1.6
			C504.6,62.4,505.3,63.2,505.3,64.1z"/>
		<path id="maintenanceMode_211_" class="st53" d="M563.3,58h-3.6c1.6,0,2.8,1.3,2.8,2.8v81.6h3.6V60.8
			C566.1,59.2,564.8,58,563.3,58z"/>
	</g>
	<g>
		<path class="st38" d="M578,146.3C578,146.3,578,146.4,578,146.3C578.7,146.7,578,146.3,578,146.3z M568.9,141.8
			c-1.4,1.5-3.1,3.3-2.5,3.6c2,1.2,9.2,1.1,11.7,0.9c17,0.8,34.2-6,45.8-18.4c-8-5.5-18.7-6.4-28.1-3.7c-9.4,2.7-17.6,8.6-24.3,15.6
			C571,140.4,569.3,141.4,568.9,141.8z"/>
		<g class="st39">
			<path class="st54" d="M568.9,141.8c0.5-0.5,2.1-1.4,2.6-1.9c6.8-7,15-12.9,24.3-15.6c4.5-1.3,9.3-1.8,14-1.3
				c-5.4,0.2-10.8,1.6-15.5,4c-8.5,4.3-15.3,11.4-20.5,19.4c-2.9,0-6.1-0.3-7.3-1C565.8,145.1,567.5,143.3,568.9,141.8z"/>
		</g>
		<path class="st38" d="M570.2,113.6c3.2-2.9,7.5-4.4,11.6-5.6c6.4-1.8,13-3.1,19.6-3.7c-3.6,8-6.2,16-12.7,21.9
			c-2.6,2.3-6.8,4.6-9.5,6.8c-3.2,2.6-8.3,9.3-10.9,12.6c-3,0.6-5.3-3.7-6.6-6.7c-1.7-3.8,0.2-9.6,1.5-13.5
			C564.8,120.9,566.8,116.6,570.2,113.6z"/>
		<path class="st40" d="M577.5,133.1c2.3-2.6,6-5.6,8.2-8.3c4.5-5.8,6-12.5,7.6-19.4c2.7-0.5,5.4-0.8,8.1-1.1
			c-3.6,8-6.2,16-12.7,21.9c-2.6,2.3-6.8,4.6-9.5,6.8c-1.6,1.2-3.5,3.4-5.5,5.7C575.1,136.4,576.4,134.4,577.5,133.1z"/>
		<path class="st38" d="M569.3,92c1.5,7.4,2.9,15,1.6,22.4c-0.5,3-1.5,5.9-2.4,8.8c-1.1,3.8-1.7,6.1-2.7,9.9
			c0.8-0.5-0.8,1.8-1.6,3.1c-0.9,1.4-2.2,3.2-3.2,1.7c-1.2-1.7-2.5-3.6-3-5.6c-0.6-2.4,0-6.4,0-8.9c-0.1-6.5-0.1-13.1,2.1-19.2
			C561.9,99.5,565.1,95.1,569.3,92z"/>
		<g>
			<path class="st33" d="M619.1,129.3c-8.4-0.3-16.7,0-24.9,2.3c-7.7,2.2-14.7,5.8-21.1,10.7c-0.3,0.3-0.7-0.3-0.3-0.6
				c6.4-4.8,13.6-8.5,21.3-10.6c8.3-2.3,16.5-2.5,25-2C619.2,129.1,619.2,129.3,619.1,129.3L619.1,129.3z"/>
		</g>
		<g>
			<path class="st33" d="M598.7,106.7c-6.8,3.2-13,7.4-18.4,12.7c-5.8,5.7-9.7,12.5-14,19.2c-0.1,0.2-0.4,0-0.3-0.2
				c7.4-13.9,17.9-25.7,32.7-31.9C598.7,106.5,598.8,106.7,598.7,106.7L598.7,106.7z"/>
		</g>
		<g>
			<path class="st33" d="M568.9,94.9c-4.4,13.2-9.6,25.8-6.6,40c0.1,0.3-0.4,0.4-0.5,0.1c-2.8-13.5,1.3-27.9,6.9-40.2
				C568.8,94.8,568.9,94.9,568.9,94.9L568.9,94.9z"/>
		</g>
		<g>
			<path class="st33" d="M613,134c-0.9-0.9-1.8-1.9-2.8-2.7s-2.2-1.3-3.3-2c-0.1,0,0-0.2,0.1-0.2C609.3,130,611.7,131.9,613,134
				C613.1,134,613,134.1,613,134L613,134z"/>
		</g>
		<g>
			<path class="st33" d="M606.2,137.4c-2.4-4.3-5.8-5.5-10.4-6.1c-0.4,0-0.3-0.5,0.1-0.5C600.2,131.4,604.6,132.7,606.2,137.4
				C606.3,137.4,606.2,137.4,606.2,137.4L606.2,137.4z"/>
		</g>
		<g>
			<path class="st33" d="M597.8,137.9c-2.7-2.1-5.5-5.3-9.3-4.3c-0.2,0.1-0.3-0.2-0.1-0.3c3.8-1,6.9,2.1,9.5,4.5
				C597.9,137.9,597.8,138,597.8,137.9L597.8,137.9z"/>
		</g>
		<g>
			<path class="st33" d="M589.5,142.4c-2.5-3.2-6.2-6.1-10.4-3.9c-0.2,0.1-0.5-0.2-0.2-0.4C583.1,135.9,587.4,138.7,589.5,142.4
				C589.6,142.4,589.5,142.4,589.5,142.4L589.5,142.4z"/>
		</g>
		<g>
			<path class="st33" d="M608.8,124c-0.6,2.7-2.9,4.3-5.1,5.8c-0.2,0.1-0.3-0.2-0.1-0.3c2.2-1.4,4.3-2.9,5-5.6
				C608.7,123.8,608.8,123.8,608.8,124L608.8,124z"/>
		</g>
		<g>
			<path class="st33" d="M599.9,124.5c-1,2.6-2.7,4.9-4.7,6.8c-0.2,0.2-0.4-0.1-0.2-0.2C597,129.2,598.5,127,599.9,124.5
				C599.8,124.5,599.9,124.5,599.9,124.5L599.9,124.5z"/>
		</g>
		<g>
			<path class="st33" d="M592.3,127.5c-0.5,1.3-1.1,2.4-1.9,3.5c-0.6,0.8-1.6,2.3-2.5,2.6c-0.1,0-0.2,0-0.2-0.1l-0.1-0.1
				c-0.1-0.1-0.1-0.3,0-0.4c0,0,0.1,0,0.1-0.1c0.1,0,0.2,0,0.3,0l0.1,0.1c0.1,0.1,0.1,0.2-0.1,0.2c-0.3,0,1-1.4,1-1.4
				c0.4-0.4,0.8-0.8,1.1-1.3c0.8-1,1.5-2.1,2.1-3.2C592.3,127.4,592.4,127.5,592.3,127.5L592.3,127.5z"/>
		</g>
		<g>
			<path class="st33" d="M586,130.7c-1.7,2.8-4.2,5.3-6.8,7.3c-0.3,0.2-0.7-0.2-0.4-0.4c2.7-2.1,4.8-4.5,7-7.1
				C585.9,130.5,586.1,130.6,586,130.7L586,130.7z"/>
		</g>
		<g>
			<path class="st33" d="M594.8,115.6c-4.7-0.3-8.7-0.1-12.9,2.5c-0.3,0.2-0.5-0.3-0.3-0.4c3.7-2.4,8.9-3.8,13.2-2.3
				C594.9,115.4,594.9,115.6,594.8,115.6L594.8,115.6z"/>
		</g>
		<g>
			<path class="st33" d="M587.4,123.5c-2.3,0-4.4-0.1-6.7,0.5c-2,0.5-3.9,1.2-5.9,1.9c-0.3,0.1-0.4-0.3-0.1-0.4
				C578.6,124,583.1,122.3,587.4,123.5C587.5,123.4,587.5,123.5,587.4,123.5L587.4,123.5z"/>
		</g>
		<g>
			<path class="st33" d="M578.7,130.3c-1.6,0.1-3.2,0.2-4.7,0.5c-1.8,0.3-3,1.2-4.2,2.6c-0.2,0.2-0.5-0.1-0.3-0.3
				c1.1-1.3,2.2-2.2,3.9-2.6c1.7-0.4,3.5-0.5,5.3-0.4C578.8,130.1,578.8,130.3,578.7,130.3L578.7,130.3z"/>
		</g>
		<g>
			<path class="st33" d="M585.1,110.2c-0.1,1.7-1,3.4-1.7,4.9c-0.4,1-0.8,2.7-2.1,2.9c-0.1,0-0.2-0.1-0.1-0.2
				c2.2-1.8,2.3-5.3,3.7-7.7C585,110.1,585.1,110.1,585.1,110.2L585.1,110.2z"/>
		</g>
		<g>
			<path class="st33" d="M578.1,112.3c-0.4,4.7-1.9,9.3-3.5,13.7c-0.1,0.2-0.4,0.1-0.3-0.1C576,121.4,577,116.9,578.1,112.3
				C577.9,112.2,578.1,112.2,578.1,112.3L578.1,112.3z"/>
		</g>
		<g>
			<path class="st33" d="M570.5,122.1c0,4-1,8-1.6,11.9c0,0.3-0.5,0.2-0.5-0.1c0.7-3.9,1.3-7.9,1.9-11.8
				C570.3,122,570.5,122,570.5,122.1L570.5,122.1z"/>
		</g>
		<g>
			<path class="st33" d="M570.3,102.4c-2.8,3.2-5.1,6.6-6.9,10.4c-0.1,0.3-0.6,0-0.5-0.3c1.8-3.9,4.1-7.4,7.2-10.4
				C570.2,102,570.4,102.2,570.3,102.4L570.3,102.4z"/>
		</g>
		<g>
			<path class="st33" d="M561.2,103.1c1.3,3,1.6,6.9,1.8,10.1c0,0.3-0.4,0.3-0.5,0c-0.1-1.9-0.3-3.7-0.6-5.6c-0.3-1.5-0.7-3-0.9-4.5
				C561,103,561.1,103,561.2,103.1L561.2,103.1z"/>
		</g>
		<g>
			<path class="st33" d="M566.3,114.5c-2.1,3.3-3.4,6.5-4.9,10.1c0,0.1-0.2,0-0.2-0.1c0.5-3.6,2.6-7.4,4.9-10.2
				C566.3,114.3,566.4,114.4,566.3,114.5L566.3,114.5z"/>
		</g>
		<g>
			<path class="st33" d="M561.1,124.8c-0.9-2.3-1.7-4.6-3-6.7c-0.1-0.2,0.2-0.3,0.3-0.2C559.6,120,560.8,122.4,561.1,124.8
				C561.2,124.8,561.1,124.8,561.1,124.8L561.1,124.8z"/>
		</g>
	</g>
</g>
<g>
	<g class="st55">
		<ellipse class="st56" cx="365.4" cy="142.6" rx="70.2" ry="4.7"/>
	</g>
	<g>
		<g>
			<g>
				<g>
					<g>
						<path class="st57" d="M393,141.8c0,0,7.2,1.2,14.9,1.2c7.2,0,14.1-1.2,14.1-1.2l-0.6-1.2c-2.5-5.5-11.8-3.3-13.9-9h0
							c-1.8,5.7-11.5,3.5-13.9,9L393,141.8z"/>
					</g>
					<g>
						
							<rect x="405.8" y="99.2" transform="matrix(-1 -1.224647e-16 1.224647e-16 -1 815.412 234.8412)" class="st57" width="3.9" height="36.4"/>
					</g>
					<g>
						<polygon class="st58" points="406.9,132.6 405.2,128.9 401.5,130.3 402.5,134.1 						"/>
					</g>
					<g>
						<path class="st59" d="M406.9,132.6l0.9,3l-3.9,1.2c0,0-8.9,3.7-10.5,2c-0.8-0.8,2.1-1.6,4-2.8s4.8-3,4.8-3
							S404.6,133.2,406.9,132.6z"/>
					</g>
					<g>
						<polygon class="st58" points="387.2,138.1 386.6,134.1 382.7,134.4 382.6,138.3 						"/>
					</g>
					<g>
						<path class="st59" d="M387.2,138.1v3.2l-4.1,0.1c0,0-9.6,1.1-10.7-1.1c-0.5-1,2.5-0.9,4.6-1.6s5.4-1.5,5.4-1.5
							S384.9,138,387.2,138.1z"/>
					</g>
					<g>
						<g>
							<path class="st60" d="M351.5,68.5l5.5-1.8l4.8,1.2c2.7-0.7,3.6-0.7,9.2-2.1c4.7-1.2,10.1-3.6,10.1-3.6l4-6.7
								c2.6,0.2,8,3.1,8,3.1s-7.4,10.1-9.6,10.8c-2.1,0.7-16.4,2.5-21.9,1.8c-1.7-0.2-5.1-2-5.1-2l-4.3,0.7l-3.4,2.3l-0.6-0.5
								l1.3-1.5L351.5,68.5z"/>
						</g>
						<g>
							<path class="st61" d="M389.2,42.7c0,0,6.9,1.2,6.8,7.4c-0.1,4.1-5.7,11.7-5.7,11.7s-3.1-4.2-6.8-5.4c0,0,2.4-7.2,3.2-9.4
								C387.7,44.1,389.2,42.7,389.2,42.7z"/>
						</g>
					</g>
					<g>
						
							<rect x="400.8" y="98.2" transform="matrix(-1 -1.224647e-16 1.224647e-16 -1 815.4119 203.7274)" class="st57" width="13.8" height="7.4"/>
					</g>
					<g>
						<path class="st57" d="M402.7,69.3c-0.7-9-1.2-18-1.5-27c8.5-3.8,27.5-2.1,29.3,3.5c1.9,6-5.3,23-5.3,29.3
							c0,6.4,2.5,11,2.8,13.8c0.4,2.8-1.4,4.9-1.4,4.9h-21.8C404.3,85.7,403.3,77.5,402.7,69.3z"/>
					</g>
					<g>
						<path class="st62" d="M402.7,69.3c-0.7-9.4-1.2-18.7-1.5-28.1c9.4-2.2,24.3-0.3,25.8,4.7c1.9,6-5.3,23-5.3,29.3
							c0,6.4,2.5,11,2.8,13.8c0.4,2.8-1.4,4.9-1.4,4.9h-18.3C404.3,85.7,403.3,77.5,402.7,69.3z"/>
					</g>
					<g>
						<path class="st62" d="M385.6,100.6h34.3c3.7,0,6.7-3,6.7-6.7v0h-41V100.6z"/>
					</g>
					<g>
						<path class="st63" d="M393.4,78.5c0,0-19.6,11.7-20.8,16.5c-1.4,5.7,8,39.8,8,39.8c2.2,1.5,6.3,1,7.8-0.4c0,0-7.6-29.1-6.7-31
							c2-4.8,19.2-10.4,24.6-15.6c5.4-5.2,5.9-10.1,5.9-10.1L393.4,78.5z"/>
					</g>
					<g>
						<path class="st64" d="M415.8,73.3c0,0,6.7,13.9,0.7,19.6c-2.8,2.6-19.2,0.2-20.2,2.8l9.9,33c0,0-1.8,1.1-5.3,2.8
							c0,0-20.7-36.4-18.6-41.2c2.1-4.7,16.4-7.4,17.1-10c0.7-2.6,1.2-6.8,1.2-6.8L415.8,73.3z"/>
					</g>
					<g>
						<path class="st58" d="M387.5,35.5c0.4,1.6,1.2,3.4,2.8,3.9c1.5,0.5,3-0.3,4.3-1.1c1.6-0.9,3.1-1.9,4.1-3.5
							c1.5-2.3,2.7-5.1,2.6-7.8c-0.1-1-1.5-2.2-2.1-2.9c-0.4-0.5-1-0.9-1.7-1.2c-1.5-0.7-3-1.2-4.6-1.5c-2.7-0.4-5.7,0.2-6.2,3.1
							C386.1,28.1,386.6,32.1,387.5,35.5z"/>
					</g>
					<g>
						<path class="st65" d="M391.4,29.2c0,0.4,0.3,0.7,0.7,0.7s0.7-0.3,0.7-0.7c0-0.4-0.3-0.7-0.7-0.7S391.4,28.8,391.4,29.2z"/>
					</g>
					<g>
						<path class="st65" d="M387.2,29.2c0,0.4,0.3,0.7,0.7,0.7c0.4,0,0.7-0.3,0.7-0.7c0-0.4-0.3-0.7-0.7-0.7
							C387.6,28.5,387.2,28.8,387.2,29.2z"/>
					</g>
					<g>
						<g>
							<path class="st65" d="M392.8,31.9c-1.4,0-2.6-1.1-2.6-2.6s1.1-2.6,2.6-2.6c1.4,0,2.6,1.1,2.6,2.6S394.2,31.9,392.8,31.9z
								 M392.8,27.2c-1.1,0-2.1,0.9-2.1,2.1s0.9,2.1,2.1,2.1c1.2,0,2.1-0.9,2.1-2.1S393.9,27.2,392.8,27.2z"/>
						</g>
						<g>
							<path class="st65" d="M388.9,28l-0.4-0.3c0.3-0.4,0.8-0.7,1.3-0.7c0.6,0,1.1,0.2,1.5,0.6l-0.3,0.3c-0.3-0.3-0.8-0.5-1.2-0.5
								C389.5,27.5,389.2,27.7,388.9,28z"/>
						</g>
						<g>
							<path class="st65" d="M387.1,31.9c-1.4,0-2.6-1.1-2.6-2.6s1.1-2.6,2.6-2.6c1.4,0,2.6,1.1,2.6,2.6S388.5,31.9,387.1,31.9z
								 M387.1,27.2c-1.1,0-2.1,0.9-2.1,2.1s0.9,2.1,2.1,2.1c1.1,0,2.1-0.9,2.1-2.1S388.3,27.2,387.1,27.2z"/>
						</g>
					</g>
					<g>
						<path class="st58" d="M406.4,39.9c0,0,0-0.5-1.9-1c-0.5-0.1-1.2-0.1-1.6-0.5c-1.5-1.3-2.9-3.8-3.4-5.6
							c-0.1-0.3-0.2-0.6-0.1-0.8c-1.3,1.1-2.5,2.2-3.7,3.4c-0.4,0.4-2.9,0.2-2.6,0.7c0.1,0.2,0.7,1.6,1.3,3
							c-1.2,0.8-2.5,1.8-2.5,1.8l-1.6,9.2l4.8,2.7c0,0,5.4-1.2,9-3.1C407.5,47.7,406.4,39.9,406.4,39.9z"/>
					</g>
					<g>
						<path class="st66" d="M404.5,38.9c0,0-1.4,2.6-4.9,4.1c-3.5,1.5-6.7-3.1-6.7-3.1l-3.6,2.7c0,0-0.3,12.5,1.2,19.4
							c1.5,6.8,2.9,16.4,2.9,16.4s1.6,2.3,3.6,2.5c2.5,0.2,5.9-1.8,11.3-0.8c6,1.1,10.4,0.1,10.4,0.1s-4.6-22.4-5.6-26.9
							c-1.1-4.5-3.8-13.7-3.8-13.7S406.8,39.1,404.5,38.9z"/>
					</g>
					<g>
						<g>
							<path class="st57" d="M342.4,72.3h20.3v-1.8h-22.1l0,0C340.6,71.5,341.4,72.3,342.4,72.3z"/>
						</g>
						<g>
							<path class="st2" d="M348.6,50.2c0.6,0,1.2,0.4,1.4,1l7,19.3l-0.4,0.2l0.1,0.3l-16-0.5l-6.8-18.3c-0.4-1,0.3-2,1.4-2
								L348.6,50.2z"/>
						</g>
						<g>
							<path class="st57" d="M343.1,61.6c0.5,1.8,1.4,3.3,2.1,3.3c0.7,0,0.8-1.5,0.4-3.4c-0.5-1.8-1.4-3.3-2.1-3.3
								C342.8,58.3,342.6,59.8,343.1,61.6z"/>
						</g>
					</g>
					<g>
						<g>
							<path class="st65" d="M389.9,27.6c0,1.4-0.5,2.5-1.1,3.7c-0.3,0.5-0.5,1.3-0.3,1.9c0,0.1,0.1,0.2,0.2,0.2
								c0.5,0,1.2-0.4,1.7-0.6c0.2-0.1,0.1-0.4-0.2-0.4c-0.2,0.1-0.5,0.2-0.7,0.3c-0.5,0.1-0.6,0.2-0.6-0.3c0-0.7,0.6-1.4,0.8-2
								c0.4-0.9,0.5-1.8,0.4-2.7C390.1,27.5,389.9,27.5,389.9,27.6L389.9,27.6z"/>
						</g>
					</g>
					<g>
						<g>
							<path class="st65" d="M391.8,26.3c0.3,0.1,0.6,0.1,0.9,0.1c0.3,0,0.6,0.1,0.9,0.1c0.4,0,0.5-0.7,0.1-0.7
								c-0.6-0.1-1.3-0.2-1.9-0.1C391.5,25.8,391.5,26.2,391.8,26.3L391.8,26.3z"/>
						</g>
					</g>
					<g>
						<g>
							<path class="st65" d="M387.1,26.3c0.5,0.1,1,0,1.5,0c0.5,0,0.5-0.7,0-0.7c-0.5-0.1-1.1,0-1.6,0.3
								C386.9,26,386.8,26.3,387.1,26.3L387.1,26.3z"/>
						</g>
					</g>
					<g>
						<g>
							<path class="st65" d="M395.1,28.9c0.5-0.1,1-0.2,1.5-0.4c0.5-0.1,1-0.3,1.4-0.5c0.1-0.1,0.1-0.3-0.1-0.3
								c-0.5,0-1,0.2-1.5,0.4c-0.5,0.2-1,0.3-1.4,0.6C394.9,28.6,394.9,28.9,395.1,28.9L395.1,28.9z"/>
						</g>
					</g>
					<g>
						<g>
							<path class="st64" d="M391.4,25.2c-2.3-0.2-4.7-0.2-6.7-1.2c-1-0.5-1.8-1.3-2-2.3c-0.2-1,0.6-2.2,1.7-2.3
								c0.2,0,0.5,0,0.7-0.1c0.2-0.2,0.3-0.5,0.3-0.7c0.2-1.8,1.8-3.7,3.8-3.6c1.6,0,3.1,1.3,4.7,0.9c0.5-0.1,0.9-0.4,1.3-0.6
								c1.3-0.6,2.9-0.9,4.3-0.6c1.5,0.3,3.2,1.5,2.8,2.9c-0.1,0.5-0.5,0.9-0.6,1.4c-0.3,1.7,2.4,2.6,2.9,4.2c0.5,1.5-1,3-0.9,4.6
								c0.1,0.9,0.6,1.9-0.1,2.5c-0.4,0.3-1,0.4-1.2,0.8c-0.3,0.6,0.3,1.2,0.3,1.8c0.1,0.8-0.8,1.5-1.7,1.4
								c-0.9-0.1-1.6-0.7-1.9-1.4c-0.3-0.7-0.4-1.5-0.3-2.3c1.4-0.4,2.3-2.8,1-3.4c-0.7-0.3-1.5,0.5-1.8,1.1
								C396.7,26,394.4,25.2,391.4,25.2z"/>
						</g>
						<g>
							<path class="st64" d="M397.3,28.8c-0.5,1.1-1,2.2-1.4,3.3c-0.2,0.4-0.4,0.9-0.8,1.2c-0.6,0.5-1.4,0.5-2.1,0.4
								s-2.1-0.5-2.8-0.5c-1.7,0.1-2.9,0.9-3,1.1c-0.2,0.4,0.1,1,0.1,1.5c0,0.5-0.1,1-0.3,1.4c-0.2,0.3-0.4,0.5-0.6,0.7
								c-0.6,0.6-1.1,1.4-1.1,2.3c0.1,1.2,1.2,2,2.1,2.7c0.6,0.4,1.3,0.8,2,1c0.5,0.1,1,0,1.5,0c1.1-0.1,2.1-0.2,3.1-0.5
								c1-0.3,2-0.9,2.6-1.7c0.5-0.7,0.8-1.6,1.1-2.5c0.4-1.4,0.8-2.8,0.9-4.3c0-1.4-0.2-2.7-0.4-4.1c-0.1-1.2-0.1-2.4-0.1-3.6
								c0-0.1,0-0.5-0.2-0.5c-0.2,0-0.2,0.3-0.2,0.5C397.7,27.8,397.5,28.3,397.3,28.8z"/>
						</g>
						<g>
							<path class="st58" d="M388.5,35.1c-0.2,0.5-0.1,1.1,0.3,1.5c0.2,0.2,0.4,0.3,0.7,0.3c0.2,0,0.5-0.2,0.4-0.5
								c0-0.1,0-0.2,0-0.3c0-0.1,0.1-0.1,0.2-0.1c0.3,0,0.7,0,0.9,0.3c0,0.1,0.1,0.2,0.1,0.3c0.1,0.2,0.4,0.2,0.6,0.2
								c0.3,0,0.7-0.1,1-0.2c0.2-0.1,0.3-0.1,0.4-0.3c0.1-0.1,0.2-0.3,0.1-0.5c0-0.1-0.2-0.2-0.3-0.3
								C392,34.8,389.3,33.3,388.5,35.1z"/>
						</g>
						<g>
							<g>
								<path class="st65" d="M389,35.1c0.5,0.3,1.7,0.4,2.2,0c0.1-0.1,0.1-0.3-0.1-0.3c-0.3,0-0.7,0.1-1,0.2c-0.3,0-0.7-0.1-1,0
									C388.9,34.8,388.9,35,389,35.1L389,35.1z"/>
							</g>
						</g>
					</g>
				</g>
				<g>
					<path class="st2" d="M403.4,95.9c0,0-0.7-19,3.6-20.3c4.2-1.3,13.6-0.9,13.6-0.9l0.8,3.4c0,0-12.2-0.9-13.9,1.4
						c-1.7,2.3,0,16.5,0,16.5L403.4,95.9z"/>
				</g>
			</g>
			<g>
				<g>
					<path class="st58" d="M369.2,67.9l5.5-1.8l4.8,1.2c2.7-0.7,3.6-0.7,9.2-2.1c4.7-1.2,10.1-3.6,10.1-3.6l6.1-9.2
						c2.6,0.2,5.9,5.5,5.9,5.5s-7.4,10.1-9.6,10.8c-2.1,0.7-18.3,2.6-23.8,2c-1.7-0.2-4.8-2.1-4.8-2.1l-2.8,0.6l-3.4,2.3l-0.6-0.5
						l1.3-1.5L369.2,67.9z"/>
				</g>
				<g>
					<path class="st61" d="M409.2,39.7c0,0,7.3,1.2,7.2,7.4c-0.1,4.1-5.7,11.7-5.7,11.7s-3.1-4.2-6.8-5.4c0,0,2.9-5.8,3.2-8.1
						C407.3,42.9,409.2,39.7,409.2,39.7z"/>
				</g>
				<g>
					<g>
						<path class="st2" d="M358.7,72.3H379v-1.8h-22.1l0,0C356.9,71.5,357.7,72.3,358.7,72.3z"/>
					</g>
					<g>
						
							<rect x="369.6" y="71" transform="matrix(-1 -1.224647e-16 1.224647e-16 -1 746.5347 142.6317)" class="st57" width="7.4" height="0.6"/>
					</g>
					<g>
						
							<rect x="367.4" y="71" transform="matrix(-1 -1.224647e-16 1.224647e-16 -1 735.8817 142.6317)" class="st57" width="1.1" height="0.6"/>
					</g>
				</g>
			</g>
		</g>
		<g>
			<g>
				<g>
					<polygon class="st2" points="323.2,64.8 322.2,57.5 322.6,56.1 323.4,57.3 324.3,64.7 					"/>
				</g>
				<g>
					<polygon class="st2" points="328,65.3 329.1,58 329.8,56.8 330.2,58.1 329.1,65.5 					"/>
				</g>
				<g>
					<polygon class="st2" points="324.7,65.8 324.8,58.3 325.4,57.2 326,58.4 325.9,65.8 					"/>
				</g>
			</g>
			<g>
				<polygon class="st61" points="329.1,73 323.5,73 322.4,63.7 329.9,63.7 				"/>
			</g>
		</g>
		<g>
			<g>
				<polygon class="st62" points="402.1,143.9 403.5,143.9 388.2,77.6 385.4,77.6 				"/>
			</g>
			<g>
				<polygon class="st62" points="360.8,143.2 362.1,143.2 372,77.6 369.1,77.6 				"/>
			</g>
			<g>
				<polygon class="st62" points="340.2,143.6 341.6,143.6 330.8,77.6 327.9,77.6 				"/>
			</g>
			<g>
				<polygon class="st62" points="302.2,142.9 303.6,142.9 316.6,77.6 313.7,77.6 				"/>
			</g>
			<g>
				
					<rect x="324.8" y="74.6" transform="matrix(-1 -1.224647e-16 1.224647e-16 -1 721.1357 152.1377)" class="st67" width="71.6" height="3"/>
			</g>
			<g>
				
					<rect x="301.8" y="74.6" transform="matrix(-1 -1.224647e-16 1.224647e-16 -1 669.657 152.1377)" class="st68" width="66" height="3"/>
			</g>
			<g>
				
					<rect x="326.4" y="72.1" transform="matrix(-1 -1.224647e-16 1.224647e-16 -1 729.2947 148.1765)" class="st68" width="76.6" height="4"/>
			</g>
			<g>
				
					<rect x="291.8" y="72.1" transform="matrix(-1 -1.224647e-16 1.224647e-16 -1 654.5595 148.1765)" class="st69" width="71" height="4"/>
			</g>
		</g>
	</g>
</g>
</svg>
