<?xml version="1.0" encoding="utf-8"?>
<!-- Generator: Adobe Illustrator 22.1.0, SVG Export Plug-In . SVG Version: 6.00 Build 0)  -->
<svg version="1.1" id="Layer_1" xmlns="http://www.w3.org/2000/svg" xmlns:xlink="http://www.w3.org/1999/xlink" x="0px" y="0px"
	 viewBox="0 0 383.2 193.4" style="enable-background:new 0 0 383.2 193.4;" xml:space="preserve">
<style type="text/css">
	.st0{fill:#00C9A7;}
	.st1{fill:none;stroke:#191C3C;stroke-miterlimit:10;}
	.st2{fill:none;stroke:#1E2022;stroke-miterlimit:10;}
	.st3{fill:#FCD991;}
	.st4{fill:#00C671;}
	.st5{opacity:0.2;}
	.st6{fill:#08492C;}
	.st7{opacity:8.000000e-02;fill:#F5F7F9;enable-background:new    ;}
	.st8{fill:#191C3C;}
	.st9{opacity:0.3;fill:#C4C4C4;}
	.st10{fill:#7293ED;}
	.st11{fill:#DCD6FC;}
	.st12{fill:#C3BEEA;}
	.st13{fill:#648AE8;}
	.st14{fill:#FFFFFF;}
	.st15{opacity:0.2;fill:#5870C6;}
	.st16{fill:#5870C6;}
	.st17{fill:#DB5371;}
	.st18{fill:#FFCA76;}
	.st19{fill:#FF7190;}
	.st20{fill:#282854;}
	.st21{fill:#1B1B44;}
	.st22{fill:#373770;}
	.st23{fill:#FF9271;}
	.st24{fill:#DD6B47;}
	.st25{fill:#F2B45A;}
	.st26{fill:#F47389;}
	.st27{fill:#BA77E5;}
	.st28{fill:#CD8CF2;}
	.st29{fill:#5E3823;}
	.st30{fill:#442415;}
	.st31{fill:#E27A5A;}
</style>
<g>
	<g>
		<g>
			<g>
				<path class="st0" d="M326.4,174.2c-0.1,0-0.1,0.1-0.2,0.1c-2.2,1-3.4,0.9-5.5-0.1c-2-0.9-3.9-2-5.5-3.4c-2.1-1.8-3.7-4.3-4-7
					c-0.1-0.6-0.1-1.3,0.3-1.8c0.5-0.7,1.5-0.8,2.3-0.5s1.4,0.9,2,1.5c0.3,0.2,0.6,0.5,0.9,0.6s0.8,0,1-0.3c0.3-0.5-0.2-1.1-0.6-1.4
					c-1-0.9-2-1.3-3.1-2.1c-1.4-1-2.6-2.1-3.3-3.6c-0.7-1.5-0.9-3.3-0.1-4.8c0.2-0.4,0.6-0.9,1-1.1c0.8-0.5,1.7-0.5,2.6-0.3
					s1.7,0.5,2.6,0.6c2.1,0.2,2.9-1.3,2.9-3.2c0-1.3-0.4-2.6-0.5-3.8c-0.1-2.3,1-4.7,3.1-5.7s4.9,0,5.7,2.1c0.8,2.3-1,5,0.2,7.2
					c0.4,0.7,1.3,1.7,2,2.2c1.1,0.7,2.8-0.1,4.1-0.1c0.3,0,0.6,0.1,0.8,0.3c0.2,0.2,0.2,0.4,0.3,0.6c0.3,1.6-0.3,3.4-1.5,4.5
					c-1.4,1.3-3.8,1.9-4.4,3.9c-0.4,1.2-0.2,4.3,1.7,4c0.7-0.1,1.2-0.8,1.9-1.1c0.9-0.3,1.9,0.3,2.3,1.1s0.3,1.8-0.1,2.7
					c-0.5,1.3-1.6,2.4-2.6,3.5C330.5,170.8,329.1,172.8,326.4,174.2z"/>
			</g>
			<line class="st1" x1="323.5" y1="145.4" x2="323.5" y2="193.4"/>
			<polyline class="st1" points="329,153.9 323.5,159.4 318,153.9 			"/>
			<polyline class="st1" points="329,165 323.5,170.5 318,165 			"/>
		</g>
		<g>
			<g>
				<path class="st0" d="M25.9,169.2c-0.1,0-0.1,0.1-0.2,0.1c-1.9,0.9-2.9,0.7-4.7-0.1c-1.7-0.8-3.3-1.7-4.7-2.9
					c-1.8-1.6-3.1-3.7-3.4-6c-0.1-0.5-0.1-1.1,0.3-1.5c0.4-0.6,1.3-0.7,2-0.4s1.2,0.8,1.7,1.3c0.2,0.2,0.5,0.4,0.8,0.5
					s0.7,0,0.8-0.3c0.2-0.4-0.2-0.9-0.6-1.2c-0.9-0.7-1.7-1.1-2.6-1.8c-1.2-0.8-2.2-1.8-2.8-3.1s-0.8-2.8-0.1-4.1
					c0.2-0.4,0.5-0.7,0.8-1c0.6-0.4,1.5-0.4,2.2-0.2s1.5,0.4,2.2,0.5c1.8,0.2,2.5-1.1,2.5-2.7c0-1.1-0.4-2.2-0.4-3.3
					c-0.1-1.9,0.8-4,2.6-4.8c1.8-0.8,4.2,0,4.8,1.8c0.7,2-0.9,4.2,0.2,6.1c0.3,0.6,1.1,1.5,1.7,1.8c1,0.6,2.4-0.1,3.5-0.1
					c0.3,0,0.5,0,0.7,0.2c0.1,0.1,0.2,0.3,0.2,0.5c0.3,1.4-0.2,2.9-1.3,3.8c-1.2,1.1-3.2,1.6-3.7,3.3c-0.3,1-0.2,3.7,1.5,3.4
					c0.6-0.1,1-0.7,1.6-0.9c0.7-0.3,1.6,0.2,1.9,0.9s0.2,1.6-0.1,2.3c-0.5,1.1-1.3,2.1-2.2,3C29.3,166.3,28.2,168,25.9,169.2z"/>
			</g>
			<line class="st2" x1="23.5" y1="145.4" x2="23.5" y2="193.4"/>
			<polyline class="st2" points="28.1,151.9 23.4,156.6 18.7,151.9 			"/>
			<polyline class="st2" points="28.1,161.4 23.4,166.1 18.7,161.4 			"/>
		</g>
		<g>
			<g>
				<path class="st3" d="M41.9,136.6c-0.1,0-0.2,0.1-0.3,0.1c-3.1,1.5-4.7,1.2-7.7-0.2c-2.7-1.3-5.4-2.8-7.7-4.8
					c-2.9-2.5-5.1-6-5.6-9.8c-0.1-0.9-0.1-1.8,0.4-2.5c0.7-1,2.1-1.1,3.2-0.7s2,1.3,2.9,2.1c0.4,0.3,0.8,0.7,1.3,0.8
					c0.5,0.1,1.1,0,1.3-0.4c0.4-0.7-0.3-1.5-0.9-2c-1.4-1.2-2.8-1.9-4.3-2.9c-1.9-1.3-3.6-2.9-4.7-5c-1-2.1-1.3-4.6-0.2-6.6
					c0.3-0.6,0.8-1.2,1.4-1.6c1-0.7,2.4-0.6,3.6-0.4c1.2,0.3,2.4,0.7,3.6,0.9c2.9,0.3,4.1-1.8,4-4.4c0-1.8-0.6-3.6-0.7-5.4
					c-0.2-3.2,1.4-6.5,4.2-7.9c2.9-1.4,6.9-0.1,7.9,2.9c1.1,3.3-1.4,6.9,0.3,10c0.5,1,1.8,2.4,2.8,3c1.6,1,3.9-0.2,5.8-0.1
					c0.4,0,0.9,0.1,1.2,0.4c0.2,0.2,0.3,0.5,0.4,0.8c0.4,2.3-0.4,4.7-2.1,6.3c-1.9,1.8-5.3,2.7-6.1,5.4c-0.5,1.7-0.3,6,2.4,5.5
					c1-0.2,1.7-1.2,2.7-1.5c1.2-0.4,2.6,0.4,3.1,1.6s0.4,2.5-0.1,3.7c-0.7,1.9-2.2,3.4-3.6,4.8C47.6,131.9,45.7,134.8,41.9,136.6z"
					/>
			</g>
			<line class="st2" x1="37.5" y1="97.4" x2="37.5" y2="192.4"/>
			<polyline class="st2" points="45.5,108.4 37.8,116.1 30.1,108.4 			"/>
			<polyline class="st2" points="45.5,123.9 37.8,131.6 30.1,123.9 			"/>
		</g>
		<g>
			<g>
				<path class="st3" d="M352.7,148.2c-0.1,0.1-0.3,0.1-0.4,0.2c-4.2,2-6.4,1.7-10.4-0.2c-3.7-1.7-7.3-3.8-10.4-6.5
					c-3.9-3.5-6.9-8.1-7.6-13.3c-0.1-1.2-0.1-2.4,0.6-3.4c0.9-1.3,2.9-1.5,4.4-0.9s2.7,1.7,3.9,2.8c0.5,0.5,1,0.9,1.7,1.1
					c0.7,0.2,1.5,0,1.8-0.6c0.5-0.9-0.4-2-1.2-2.7c-1.9-1.6-3.8-2.6-5.8-4c-2.6-1.8-4.9-4-6.3-6.8s-1.7-6.3-0.3-9
					c0.4-0.8,1.1-1.6,1.9-2.1c1.4-0.9,3.3-0.9,4.9-0.5s3.2,1,4.9,1.2c4,0.4,5.5-2.4,5.4-6c-0.1-2.4-0.8-4.8-1-7.3
					c-0.2-4.3,1.9-8.9,5.8-10.7c3.9-1.8,9.3-0.1,10.7,4c1.5,4.4-1.9,9.4,0.3,13.6c0.7,1.4,2.4,3.3,3.8,4.1c2.2,1.3,5.3-0.2,7.8-0.1
					c0.6,0,1.2,0.1,1.6,0.5c0.3,0.3,0.4,0.7,0.5,1.1c0.6,3.1-0.5,6.4-2.8,8.5c-2.6,2.4-7.2,3.6-8.3,7.3c-0.7,2.3-0.4,8.1,3.3,7.5
					c1.4-0.2,2.3-1.6,3.6-2c1.6-0.6,3.5,0.5,4.3,2.1c0.7,1.6,0.5,3.4-0.1,5.1c-1,2.5-3,4.6-4.9,6.6
					C360.4,141.7,357.8,145.6,352.7,148.2z"/>
			</g>
			<line class="st2" x1="347.5" y1="94.4" x2="347.5" y2="193.4"/>
			<polyline class="st2" points="357.6,109.9 347.2,120.3 336.7,109.9 			"/>
			<polyline class="st2" points="357.6,130.9 347.2,141.3 336.7,130.9 			"/>
		</g>
		<g>
			<path class="st4" d="M265.9,191.5L265.9,191.5C266.7,191.9,265.9,191.5,265.9,191.5z M256.8,187c-1.4,1.5-3.1,3.3-2.5,3.6
				c2,1.2,9.2,1.1,11.7,0.9c17,0.8,34.2-6,45.8-18.4c-8-5.5-18.7-6.4-28.1-3.7s-17.6,8.6-24.3,15.6
				C258.9,185.6,257.3,186.5,256.8,187z"/>
			<g class="st5">
				<path class="st6" d="M256.8,187c0.5-0.5,2.1-1.4,2.6-1.9c6.8-7,15-12.9,24.3-15.6c4.5-1.3,9.3-1.8,14-1.3
					c-5.4,0.2-10.8,1.6-15.5,4c-8.5,4.3-15.3,11.4-20.5,19.4c-2.9,0-6.1-0.3-7.3-1C253.7,190.3,255.4,188.5,256.8,187z"/>
			</g>
			<path class="st4" d="M258.2,158.7c3.2-2.9,7.5-4.4,11.6-5.6c6.4-1.8,13-3.1,19.6-3.7c-3.6,8-6.2,16-12.7,21.9
				c-2.6,2.3-6.8,4.6-9.5,6.8c-3.2,2.6-8.3,9.3-10.9,12.6c-3,0.6-5.3-3.7-6.6-6.7c-1.7-3.8,0.2-9.6,1.5-13.5
				C252.8,166.1,254.8,161.8,258.2,158.7z"/>
			<path class="st7" d="M265.5,178.3c2.3-2.6,6-5.6,8.2-8.3c4.5-5.8,6-12.5,7.6-19.4c2.7-0.5,5.4-0.8,8.1-1.1
				c-3.6,8-6.2,16-12.7,21.9c-2.6,2.3-6.8,4.6-9.5,6.8c-1.6,1.2-3.5,3.4-5.5,5.7C263,181.6,264.4,179.6,265.5,178.3z"/>
			<path class="st4" d="M257.2,137.2c1.5,7.4,2.9,15,1.6,22.4c-0.5,3-1.5,5.9-2.4,8.8c-1.1,3.8-1.7,6.1-2.7,9.9
				c0.8-0.5-0.8,1.8-1.6,3.1c-0.9,1.4-2.2,3.2-3.2,1.7c-1.2-1.7-2.5-3.6-3-5.6c-0.6-2.4,0-6.4,0-8.9c-0.1-6.5-0.1-13.1,2.1-19.2
				C249.8,144.6,253,140.3,257.2,137.2z"/>
			<g>
				<path class="st8" d="M307,174.5c-8.4-0.3-16.7,0-24.9,2.3c-7.7,2.2-14.7,5.8-21.1,10.7c-0.3,0.3-0.7-0.3-0.3-0.6
					c6.4-4.8,13.6-8.5,21.3-10.6c8.3-2.3,16.5-2.5,25-2C307.1,174.3,307.1,174.5,307,174.5L307,174.5z"/>
			</g>
			<g>
				<path class="st8" d="M286.7,151.9c-6.8,3.2-13,7.4-18.4,12.7c-5.8,5.7-9.7,12.5-14,19.2c-0.1,0.2-0.4,0-0.3-0.2
					c7.4-13.9,17.9-25.7,32.7-31.9C286.7,151.7,286.8,151.8,286.7,151.9L286.7,151.9z"/>
			</g>
			<g>
				<path class="st8" d="M256.8,140.1c-4.4,13.2-9.6,25.8-6.6,40c0.1,0.3-0.4,0.4-0.5,0.1c-2.8-13.5,1.3-27.9,6.9-40.2
					C256.7,140,256.8,140,256.8,140.1L256.8,140.1z"/>
			</g>
			<g>
				<path class="st8" d="M300.9,179.2c-0.9-0.9-1.8-1.9-2.8-2.7s-2.2-1.3-3.3-2c-0.1,0,0-0.2,0.1-0.2
					C297.2,175.2,299.6,177.1,300.9,179.2C301,179.2,301,179.3,300.9,179.2L300.9,179.2z"/>
			</g>
			<g>
				<path class="st8" d="M294.1,182.5c-2.4-4.3-5.8-5.5-10.4-6.1c-0.4,0-0.3-0.5,0.1-0.5C288.2,176.6,292.6,177.9,294.1,182.5
					C294.2,182.6,294.2,182.6,294.1,182.5L294.1,182.5z"/>
			</g>
			<g>
				<path class="st8" d="M285.7,183.1c-2.7-2.1-5.5-5.3-9.3-4.3c-0.2,0.1-0.3-0.2-0.1-0.3c3.8-1,6.9,2.1,9.5,4.5
					C285.9,183.1,285.8,183.2,285.7,183.1L285.7,183.1z"/>
			</g>
			<g>
				<path class="st8" d="M277.4,187.5c-2.5-3.2-6.2-6.1-10.4-3.9c-0.2,0.1-0.5-0.2-0.2-0.4C271,181.1,275.3,183.8,277.4,187.5
					C277.5,187.5,277.4,187.6,277.4,187.5L277.4,187.5z"/>
			</g>
			<g>
				<path class="st8" d="M296.7,169.1c-0.6,2.7-2.9,4.3-5.1,5.8c-0.2,0.1-0.3-0.2-0.1-0.3c2.2-1.4,4.3-2.9,5-5.6
					C296.6,169,296.8,169,296.7,169.1L296.7,169.1z"/>
			</g>
			<g>
				<path class="st8" d="M287.6,169.7c-1,2.6-2.7,4.9-4.7,6.8c-0.2,0.2-0.4-0.1-0.2-0.2C284.8,174.4,286.2,172.2,287.6,169.7
					C287.6,169.6,287.6,169.7,287.6,169.7L287.6,169.7z"/>
			</g>
			<g>
				<path class="st8" d="M280.3,172.5c-0.5,1.3-1.1,2.4-1.9,3.5c-0.6,0.8-1.6,2.3-2.5,2.6c-0.1,0-0.2,0-0.2-0.1l-0.1-0.1
					c-0.1-0.1-0.1-0.3,0-0.4c0,0,0.1,0,0.1-0.1c0.1,0,0.2,0,0.3,0l0.1,0.1c0.1,0.1,0.1,0.2-0.1,0.2c-0.3,0,1-1.4,1-1.4
					c0.4-0.4,0.8-0.8,1.1-1.3c0.8-1,1.5-2.1,2.1-3.2C280.2,172.4,280.3,172.4,280.3,172.5L280.3,172.5z"/>
			</g>
			<g>
				<path class="st8" d="M274,175.9c-1.7,2.8-4.2,5.3-6.8,7.3c-0.3,0.2-0.7-0.2-0.4-0.4c2.7-2.1,4.8-4.5,7-7.1
					C273.9,175.6,274.1,175.8,274,175.9L274,175.9z"/>
			</g>
			<g>
				<path class="st8" d="M282.7,160.8c-4.7-0.3-8.7-0.1-12.9,2.5c-0.3,0.2-0.5-0.3-0.3-0.4c3.7-2.4,8.9-3.8,13.2-2.3
					C282.9,160.6,282.9,160.8,282.7,160.8L282.7,160.8z"/>
			</g>
			<g>
				<path class="st8" d="M275.6,168.6c-2.3,0-4.4-0.1-6.7,0.5c-2,0.5-3.9,1.2-5.9,1.9c-0.3,0.1-0.4-0.3-0.1-0.4
					c3.9-1.5,8.4-3.2,12.7-2.1V168.6L275.6,168.6z"/>
			</g>
			<g>
				<path class="st8" d="M266.6,175.5c-1.6,0.1-3.2,0.2-4.7,0.5c-1.8,0.3-3,1.2-4.2,2.6c-0.2,0.2-0.5-0.1-0.3-0.3
					c1.1-1.3,2.2-2.2,3.9-2.6c1.7-0.4,3.5-0.5,5.3-0.4C266.7,175.3,266.7,175.5,266.6,175.5L266.6,175.5z"/>
			</g>
			<g>
				<path class="st8" d="M273.1,155.3c-0.1,1.7-1,3.4-1.7,4.9c-0.4,1-0.8,2.7-2.1,2.9c-0.1,0-0.2-0.1-0.1-0.2
					c2.2-1.8,2.3-5.3,3.7-7.7C273,155.2,273.1,155.3,273.1,155.3L273.1,155.3z"/>
			</g>
			<g>
				<path class="st8" d="M266,157.5c-0.4,4.7-1.9,9.3-3.5,13.7c-0.1,0.2-0.4,0.1-0.3-0.1C263.9,166.6,264.9,162.1,266,157.5
					C265.8,157.4,266,157.4,266,157.5L266,157.5z"/>
			</g>
			<g>
				<path class="st8" d="M258.4,167.3c0,4-1,8-1.6,11.9c0,0.3-0.5,0.2-0.5-0.1c0.7-3.9,1.3-7.9,1.9-11.8
					C258.2,167.2,258.4,167.2,258.4,167.3L258.4,167.3z"/>
			</g>
			<g>
				<path class="st8" d="M258.2,147.6c-2.8,3.2-5.1,6.6-6.9,10.4c-0.1,0.3-0.6,0-0.5-0.3c1.8-3.9,4.1-7.4,7.2-10.4
					C258.2,147.2,258.4,147.4,258.2,147.6L258.2,147.6z"/>
			</g>
			<g>
				<path class="st8" d="M249.1,148.3c1.3,3,1.6,6.9,1.8,10.1c0,0.3-0.4,0.3-0.5,0c-0.1-1.9-0.3-3.7-0.6-5.6c-0.3-1.5-0.7-3-0.9-4.5
					C248.9,148.2,249.1,148.2,249.1,148.3L249.1,148.3z"/>
			</g>
			<g>
				<path class="st8" d="M254.3,159.7c-2.1,3.3-3.4,6.5-4.9,10.1c0,0.1-0.2,0-0.2-0.1c0.5-3.6,2.6-7.4,4.9-10.2
					C254.2,159.5,254.3,159.6,254.3,159.7L254.3,159.7z"/>
			</g>
			<g>
				<path class="st8" d="M249,169.9c-0.9-2.3-1.7-4.6-3-6.7c-0.1-0.2,0.2-0.3,0.3-0.2C247.6,165,248.8,167.5,249,169.9
					C249.1,169.9,249,169.9,249,169.9L249,169.9z"/>
			</g>
		</g>
	</g>
	<g>
		<g>
			<g>
				<ellipse class="st9" cx="292.4" cy="124.3" rx="15.7" ry="3.1"/>
				<path class="st10" d="M300,124.3h2.3L276.7,42h-2.3l4,13h-12.8l-4-13h-2.3l25.6,82.3h2.3l-3.3-10.8h12.8L300,124.3z M275.2,85.5
					h12.8l3.6,11.5h-12.8L275.2,85.5z M287.1,83h-12.8l-3.6-11.5h12.8L287.1,83z M279.2,57.5l3.6,11.5H270l-3.6-11.5H279.2z
					 M283.1,111l-3.6-11.5h12.8l3.6,11.5H283.1z"/>
			</g>
			<polygon class="st9" points="272.9,134.8 101.1,134.8 106.9,130.8 278.7,130.8 			"/>
			<g>
				<rect x="108" y="23.4" class="st11" width="170.7" height="107.4"/>
				<g>
					<rect x="194.8" y="63.5" class="st12" width="73.2" height="3"/>
					<rect x="194.8" y="73.6" class="st12" width="73.2" height="3"/>
					<rect x="194.8" y="83.6" class="st12" width="73.2" height="3"/>
					<rect x="194.8" y="53.5" class="st12" width="73.2" height="3"/>
					<rect x="194.8" y="43.4" class="st12" width="73.2" height="3"/>
				</g>
				<rect x="108" y="23.3" class="st13" width="170.7" height="11.1"/>
				<rect x="208.6" y="27" class="st14" width="24.1" height="3.5"/>
			</g>
			<g>
				<path class="st15" d="M221.2,71c0,0,4.9,9.6,14.2,12.6l4.8,19.1l6-9.2l-4.1-13.2c0,0-8.9-1.3-11.7-3.3c-2.7-2-8.3-8-8.3-8
					L221.2,71z"/>
				<path class="st15" d="M128.2,47.8c0,0,4.2-15.4,10.8-24.6l3.2,0L132,51.7L128.2,47.8z"/>
				<g class="st5">
					<path class="st16" d="M171,41.9c0,0-3.2-11-7.7-18.5l5.8,0.1l8.7,19L171,41.9z"/>
				</g>
				<polygon class="st15" points="190.4,80.1 175.3,84.3 108,103.4 108.3,86.6 				"/>
			</g>
			<path class="st17" d="M91.3,77.4c0,0,11.9-3,14.8-14.2l2.1,1.7c0,0-1.7,9.9-11.8,14.8L91.3,77.4z"/>
			
				<rect x="104.8" y="44.2" transform="matrix(0.9828 -0.1847 0.1847 0.9828 -9.696 28.0827)" class="st13" width="82.3" height="43.9"/>
			<g>
				<ellipse class="st9" cx="97.2" cy="145" rx="19.2" ry="3.1"/>
				<g>
					<path class="st18" d="M118.7,76.8c-0.4-0.9-1.7-0.4-2.7,0.2c0.1-0.4,0.2-0.8-0.1-0.8c-0.6,0-1.3,1.8-1.3,1.8l-0.2,1.7l1.5,0.7
						C116.7,79.3,119.5,78.4,118.7,76.8z"/>
					<path class="st19" d="M87.3,142l3.6,1.4c0.1,0,0.1,0.1,0.2,0.1c0,0.1,0,0.1,0,0.2c0,0,0,0.1,0,0.1c0,0.1-0.1,0.2-0.3,0.2
						l-6.4,0.3l0.3-2.1L87.3,142z"/>
					<path class="st17" d="M84.5,143.7l-0.1,0.5l6.4-0.3c0.2,0,0.3-0.1,0.3-0.3c0,0,0,0,0,0H84.5z"/>
					<path class="st20" d="M101.3,96.7c0,0,12.2,20.9,10.9,45.2l-2.9,0.6c0,0-2.1-23-12.9-34.8c0,0-0.8,17.6-8.6,34.4l-3,0
						c0,0,6.6-30.4,2.5-44l9.2-4.6L101.3,96.7z"/>
					<path class="st18" d="M96.1,69.7c0,0-0.6-1-1-0.6c-0.4,0.5-0.1,1.8,0.8,2.1c0,0-0.1,0.3-0.8,0.9c-0.7,0.6-2,0.4-2,0.4
						s-1,2.6-1.1,3.3c0,0,1.3,0.4,2.4,0.1c1.1-0.3,1.7,0.4,1.7,0.4l0-2c0,0,0.9,0.4,1.8-0.3c0.9-0.7,2.5-5,0.7-7.4
						c0,0-1.9-0.4-2.3,0.7c-0.3,0.8,0.1,2.3,0.1,2.3L96.1,69.7z"/>
					<path class="st20" d="M98.7,66.6c0,0,1.8-0.1,1.3-1.8c-0.3-1.1-2.7-2.4-4.7-2c-1.6,0.3-2,1.2-2,1.2s-1.7-0.2-2.6,1.2
						c-0.9,1.3,0.1,3.3-0.1,4.8c-0.2,1.5-1.8,1.9-0.8,2.8c1,0.9,4.8,1.6,5.8,0.7c1.1-0.9,0.4-2.3,0.4-2.3s-0.9-0.9-0.7-1.5
						c0.1-0.4,0.4-0.6,1,0.2l0.4-0.1c0,0,0-1.3,0.4-2.2S98.7,66.6,98.7,66.6z"/>
					<path class="st19" d="M87.3,98.2c0,0-1.3-13.3,0.8-18.1c2.1-4.9,3.1-4.9,7-4.7c3.9,0.2,7,3.6,9.8,4.5c2.8,0.9,6,0.4,9.8-1.8
						l1.3,2.4c0,0-3.8,2.6-7.2,3.6c-3.4,1-8.6-1.2-8.6-1.2s0.1,7,1.2,14C101.3,96.7,93.2,100.1,87.3,98.2z"/>
					<path class="st17" d="M98,82.1l2.4,6.1c-0.3-3.4-0.2-5.5-0.2-5.5L98,82.1z"/>
					<path class="st19" d="M112.2,142l3.6,1.4c0.1,0,0.1,0.1,0.2,0.1c0,0.1,0,0.1,0,0.2c0,0.1-0.1,0.2-0.1,0.2c0,0-0.1,0.1-0.2,0.1
						l-6.3,0.3l-0.1-1.7L112.2,142z"/>
					<path class="st17" d="M109.4,143.7l0,0.5l6.3-0.3c0.2,0,0.3-0.1,0.3-0.3c0,0,0,0,0,0H109.4z"/>
					<path class="st21" d="M94.6,120.9c1.6-7.7,1.8-13.2,1.8-13.2l-1.9-1.7C94.5,106,94.8,113.5,94.6,120.9z"/>
				</g>
			</g>
			<g>
				<ellipse class="st9" cx="251" cy="148.1" rx="19.2" ry="3.1"/>
				<g>
					<path class="st18" d="M223.3,69.6c0,0,0.5-3-0.2-3.5c-0.7-0.5-0.8,1.4-0.8,1.4s-2.9-3.2-4.2-1.8c-1.3,1.4,1.8,4.1,3,5.3
						l2.2,0.9V69.6z"/>
					<path class="st18" d="M262.4,89.2l-0.2,1.6c0,0-1,2.6-0.5,3.2c0.5,0.6,0.8-1.8,1.1-1.2c0.3,0.6,0.6,2.7,1.2,3.1
						c0.6,0.3,2.4-2.4,0.4-6L262.4,89.2z"/>
					<path class="st22" d="M245.9,82.1l1.8-4c0,0,12.3-0.5,16.7,11.7l-2.2,0.9C262.2,90.7,257.7,80.2,245.9,82.1z"/>
					<path class="st23" d="M261.5,138.6l-0.7,5.9c0,0.1,0,0.2,0.1,0.3c0.1,0.1,0.3,0,0.3-0.1l3.5-6.9l-2.3-1.2l-1.9,0.7L261.5,138.6
						z"/>
					<path class="st24" d="M260.9,144.7c0.1,0.1,0.3,0,0.3-0.1l3.5-6.9l-0.4-0.2l-3.6,7.1C260.8,144.6,260.9,144.7,260.9,144.7z"/>
					<path class="st23" d="M239.8,146l-5.5,2.1c-0.1,0-0.2,0.1-0.2,0.2c0,0.1,0.1,0.3,0.3,0.2l7.7,0l0-2.6l-1.5-1.3L239.8,146z"/>
					<path class="st18" d="M239.9,104.4c0,0-6.6,26-0.1,41.6l2.3,0c0,0-4.2-25.3,3.1-34.9c7.1-9.3,4.4,0.2,4.4,0.2
						s-2.1,16.2,12,27.3l1-2.1c0,0-12.3-13.9-7.7-27.2c0.2-0.7-2.1-8.5-2.1-8.5L239.9,104.4z"/>
					<path class="st25" d="M254.8,109.4c0.2-0.5-1.1-5-1.7-7.3c-1.6,0-3.5,0.1-5.5,0.2l-7.7,2.2c0,0-1.6,6.5-2.5,14.9l4.6-0.8
						c0.7-2.9,1.7-5.4,3.1-7.4c7.1-9.3,4.4,0.2,4.4,0.2s-0.4,3,0.3,7.3l4-2.1C253.7,114.1,254,111.7,254.8,109.4z"/>
					<path class="st23" d="M239.1,99.7c0,0-2.6,6.8-6.1,15c0,0,18.4,6.9,25.9-5c0,0-2.8-8.8-5.2-13.1l-9.2-1.3L239.1,99.7z"/>
					<path class="st18" d="M240.3,72.2c0,0,0.6-1,1-0.6c0.4,0.5,0.1,1.8-0.8,2.1c0,0,0.1,0.3,0.8,0.9c0.7,0.6,2,0.4,2,0.4
						s1,2.6,1.1,3.3c0,0-1.3,0.4-2.4,0.1c-1.1-0.3-1.7,0.4-1.7,0.4l-0.6-2c0,0-0.3,0.3-1.2-0.3c-0.9-0.7-2.5-5-0.7-7.4
						c0,0,1.9-0.4,2.3,0.7c0.3,0.8-0.1,2.3-0.1,2.3L240.3,72.2z"/>
					<path class="st22" d="M247.7,78c0,0-4.5-0.3-8.4-0.2c-3.9,0.1-13.3-3.9-16-8.2l-2.2,1.4c0,0,3.6,7.7,16.5,11
						c0,0,1.8,12.9,1.4,17.6c0,0,11.4,0.2,14.6-3.2C253.7,96.5,252.2,82.8,247.7,78z"/>
					<path class="st26" d="M244,68.5c0,0-0.2-2.4-3.3-1.9c-3.1,0.5-4.7,2-3.7,3.3c1,1.3,2.7,0.8,3,2.2c0.3,1.4-0.8,3,0.4,4.4
						c1.2,1.4-0.7,4.3,1.3,6.9c2,2.6,9.3,0,9.2-3.4c-0.1-3.4-3.2-3.2-4.6-5.5C244.9,72.3,246.5,70.3,244,68.5z"/>
					<path class="st24" d="M234.1,148.3c0,0.1,0.1,0.3,0.3,0.2l7.7,0l0-0.4h-7.9C234.1,148.2,234.1,148.2,234.1,148.3z"/>
					<path class="st20" d="M237.7,82.1c0,0,0.5,3.8,0.9,8c0.5-3.4,1.6-7.3,1.6-7.3L237.7,82.1z"/>
				</g>
			</g>
			<g>
				<ellipse class="st9" cx="175.4" cy="186.9" rx="19.2" ry="3.1"/>
				<path class="st27" d="M188.4,185l0,0.5l6.3,0.2c0.2,0,0.3-0.1,0.3-0.2c0,0,0,0,0,0L188.4,185z"/>
				<g>
					<path class="st28" d="M160.2,180.2l0.1,3.9c0,0.1,0,0.2-0.1,0.2c0,0.1-0.1,0.1-0.2,0.1c0,0-0.1,0-0.1,0c-0.1,0-0.2-0.1-0.3-0.2
						l-2.8-5.8l2.1-0.5L160.2,180.2z"/>
					<path class="st27" d="M157.5,178.3l-0.5,0.1l2.8,5.8c0.1,0.2,0.2,0.2,0.4,0.2c0,0,0,0,0,0L157.5,178.3z"/>
					<path class="st28" d="M191.3,183.4l3.5,1.7c0.1,0,0.1,0.1,0.2,0.2c0,0.1,0,0.1,0,0.2c0,0.1-0.1,0.2-0.1,0.2
						c-0.1,0-0.1,0.1-0.2,0l-6.3-0.2l0-1.7L191.3,183.4z"/>
					<path class="st29" d="M179.4,141.6c0,0,12.7,16.2,12.3,42l-3.3,0.2c0,0-2.9-24.5-13.1-31.9c0,0,2.3,19.8-15,29.1l-1.2-3.1
						c0,0,14.5-13.1,6.8-36.1l4.9-7L179.4,141.6z"/>
					<path class="st27" d="M168.6,122.1c0,0,10.5,0.6,14.4-11l2.4,0.9c0,0-1.5,8.9-9.9,12.5L168.6,122.1z"/>
					<path class="st18" d="M171.9,115.9c0,0-0.6-1-1-0.6c-0.4,0.5-0.1,1.8,0.8,2.1c0,0-0.1,0.3-0.8,0.9c-0.7,0.6-2,0.4-2,0.4
						s-1,2.6-1.1,3.3c0,0,1.3,0.4,2.4,0.1c1.1-0.3,1.7,0.4,1.7,0.4l0-2c0,0,0.9,0.4,1.8-0.3c0.9-0.7,2.5-5,0.7-7.4
						c0,0-1.9-0.4-2.3,0.7c-0.3,0.8,0.1,2.3,0.1,2.3L171.9,115.9z"/>
					<path class="st29" d="M174.5,112.8c0,0,0.7-0.3,0.6-1.1c-0.1-0.8-1.3-3.4-3.7-2.8c-2.5,0.6-5.3,2.1-6.1,1.8
						c-0.8-0.3-0.2,3.2,0.4,4.9c0.6,1.7,2.1,3.3,3.5,3.4c1.4,0.1,3.2-1.1,3.1-1.5c-0.1-0.5-0.8-0.5-1-1.3c-0.2-0.8,0.5-0.7,1-0.2
						l0.3-0.3C172.6,115.9,171.7,112.1,174.5,112.8z"/>
					<path class="st28" d="M175.6,122.1c0,0-6-2.3-8.8-0.4c-2.8,1.9-0.8,13.4-1,20.1c0,0,7.5,2.3,13.5-0.2c0,0-1.1-11.3-1.2-13.8
						c0,0,12.7,0.2,17-14.8l-2.9-0.7C192.2,112.2,188.5,126.2,175.6,122.1z"/>
					<polygon class="st19" points="180.3,109.3 184.2,87.3 202.2,89.6 198.9,111.7 					"/>
					<path class="st18" d="M195.1,113c0,0,2.3-1,2.3-2.1c0-1.1-1.8,0.4-1.8,0.4l-3.3-0.4l-0.1,1.4L195.1,113z"/>
					<path class="st18" d="M183,111c0,0-0.8-2-0.4-2.7c0.4-0.8,1.1,1.4,1.1,1.4l2.8,0.4l-1,1.9L183,111z"/>
					<path class="st30" d="M174.6,161.4c1.1-5.4,0.6-9.5,0.6-9.5l-3-1.6C172.2,150.3,173.7,156.1,174.6,161.4z"/>
					<path class="st27" d="M178.4,131.8c-0.2-1.7-0.3-3.2-0.3-4l-3.1-0.3C175.1,127.5,176.8,129.5,178.4,131.8z"/>
				</g>
			</g>
			<g>
				<path class="st18" d="M131.6,43.5c0,0-2.5,4-0.4,5.3c2.1,1.3,3.5-2.9,3.5-2.9l1.5-0.2l-1.1-1.4l-1.9-1.6L131.6,43.5z"/>
				<path class="st23" d="M156.4,13.6c-0.4,0,1.6-1.2,1.2-1.2c-0.7,0-11.9,4.1-11.9,4.1s-8,3.1-14.1,27l3.4,0.8
					c0,0,3.9-13.8,11.1-21h15.7c0,0-0.3-1.2-0.8-2.6c7.6,4.6,12.8,16.7,12.8,16.7l3.2-0.6C170.1,15.3,156.4,13.6,156.4,13.6z"/>
				<path class="st18" d="M143.1,13.8c0,0-1,1.1,0.2,3.4c1.2,2.3,5.5,3.4,6.9,2.2c1.3-1.1,1.7-3.4,0.7-5.1c0,0,0.1-1.8-0.7-2.5
					c-1-1-1.6,0.7-1.6,0.7S145.2,10.5,143.1,13.8z"/>
				<path class="st29" d="M147.9,7.4c0,0-2.1-1.3-4.6,0c-2.5,1.3-3.3,5.7-4.7,7c-1.4,1.3,0.6,3.3,3.3,2.2c1.8-0.8,3.2-3.1,4.4-3.8
					c1.1-0.7,2.4-0.2,2.4-0.2s0.6-0.7,1.2-0.3s1.1,2.1,1.1,2.1s-0.3,1.8,0.5,2.8c0.8,1.1,4.6,0.9,6.1-1c1.7-2.2,0.8-5.6-1-5.9
					c-1.6-0.3-2.7,0.6-3.8-0.8S149.4,5.8,147.9,7.4z"/>
				<polygon class="st31" points="148.3,21.4 146.1,23.3 151.1,23.3 				"/>
				<path class="st18" d="M173.9,37.4l-0.5,1.3l0.9-0.2c0,0,0.2,4.4,2.1,3.9c1.9-0.5,0.7-5.6,0.7-5.6L173.9,37.4z"/>
			</g>
			<rect x="238.9" y="27" class="st14" width="24.1" height="3.5"/>
		</g>
	</g>
</g>
</svg>
